<?xml version="1.0" encoding="utf-8"?>
<!-- Generator: Adobe Illustrator 19.0.0, SVG Export Plug-In . SVG Version: 6.00 Build 0)  -->
<svg version="1.1" id="Layer_1" xmlns="http://www.w3.org/2000/svg" xmlns:xlink="http://www.w3.org/1999/xlink" x="0px" y="0px"
	 viewBox="0 0 192.8 39.7" style="enable-background:new 0 0 192.8 39.7;" >
<style type="text/css">
	.st0{fill:#ED1A77;}
	.st1{fill:#242F3C;}
</style>
<g id="XMLID_2_">
	<path id="XMLID_19_" class="st0" d="M36.6,0.8H6.9C5.5,0.8,4.2,1.2,3.2,2c0,0,0,0,0,0C3.1,2,3.1,2.1,3,2.2c0,0,0,0,0,0
		c-0.1,0-0.1,0.1-0.2,0.1c0,0-0.1,0-0.1,0.1c0,0-0.1,0.1-0.1,0.1c0,0-0.1,0.1-0.1,0.1c0,0-0.1,0.1-0.1,0.1c0,0-0.1,0.1-0.1,0.1
		c0,0-0.1,0.1-0.1,0.1c0,0-0.1,0.1-0.1,0.1C2,3.1,2,3.1,2,3.2c0,0-0.1,0.1-0.1,0.1C1.8,3.4,1.8,3.4,1.7,3.5c0,0,0,0,0,0
		c-0.6,0.8-0.9,1.7-1,2.8c0,0,0,0,0,0c0,0.1,0,0.2,0,0.2c0,0,0,0.1,0,0.1c0,0.1,0,0.1,0,0.2c0,0,0,0.1,0,0.1c0,0,0,0,0,0.1h0
		c0,1.1,0.3,2.1,0.8,3.1l14.9,25.8c1.7,3,5.5,4,8.5,2.3c3-1.7,4-5.5,2.3-8.5L23,22.5c-0.5-0.9-0.8-1.9-0.8-3c0-3.4,2.8-6.2,6.2-6.2
		h8.1c3.4,0,6.2-2.8,6.2-6.2C42.8,3.6,40.1,0.8,36.6,0.8"/>
	<path id="XMLID_18_" class="st1" d="M43.6,35.5h-0.2c-1.2,0-2-0.7-2.4-1.9l-4.7-10.8c-0.1-0.3-0.2-0.7-0.2-1.1c0-1,0.9-2,2.1-2
		c1.2,0,1.8,0.7,2.1,1.5l3.3,8.8l3.3-8.9c0.3-0.7,0.9-1.5,2-1.5c1.1,0,2.1,0.9,2.1,2c0,0.4-0.1,0.8-0.2,1L46,33.6
		C45.5,34.7,44.7,35.5,43.6,35.5"/>
	<path id="XMLID_15_" class="st1" d="M51.4,30.8L51.4,30.8c0-3.4,2.5-4.9,6.1-4.9c1.5,0,2.6,0.3,3.7,0.6v-0.3c0-1.8-1.1-2.8-3.3-2.8
		c-1.2,0-2.2,0.2-3,0.4C54.7,24,54.6,24,54.4,24c-1,0-1.8-0.8-1.8-1.8c0-0.8,0.5-1.4,1.2-1.7c1.4-0.5,2.8-0.8,4.9-0.8
		c2.4,0,4.1,0.6,5.1,1.7c1.1,1.1,1.6,2.8,1.6,4.9v6.9c0,1.2-0.9,2.1-2.1,2.1c-1.2,0-2.1-0.9-2.1-1.8v0c-1,1.2-2.5,1.9-4.6,1.9
		C53.8,35.5,51.4,33.8,51.4,30.8 M61.3,29.8v-0.8c-0.7-0.3-1.7-0.6-2.8-0.6c-1.8,0-3,0.7-3,2.1v0.1c0,1.2,1,1.8,2.4,1.8
		C59.9,32.5,61.3,31.4,61.3,29.8"/>
	<path id="XMLID_14_" class="st1" d="M67.2,27.7L67.2,27.7c0-4.4,3.3-8,8-8c2.3,0,3.9,0.6,5.2,1.7c0.3,0.2,0.7,0.7,0.7,1.5
		c0,1.1-0.9,1.9-2,1.9c-0.6,0-1-0.2-1.2-0.4c-0.8-0.6-1.6-1-2.7-1c-2.2,0-3.7,1.9-3.7,4.1v0.1c0,2.3,1.5,4.2,3.9,4.2
		c1.1,0,2-0.4,2.8-1c0.2-0.2,0.7-0.4,1.2-0.4c1,0,1.8,0.8,1.8,1.8c0,0.6-0.3,1-0.6,1.4c-1.3,1.2-2.9,2-5.4,2
		C70.6,35.5,67.2,32,67.2,27.7"/>
	<path id="XMLID_13_" class="st1" d="M96.9,33.2c0,1.2-1,2.2-2.2,2.2c-1.2,0-2.2-1-2.2-2.2V33c-1,1.3-2.3,2.4-4.5,2.4
		c-3.3,0-5.2-2.2-5.2-5.7V22c0-1.2,1-2.2,2.2-2.2c1.2,0,2.2,1,2.2,2.2v6.5c0,2,1,3.1,2.6,3.1c1.6,0,2.7-1.1,2.7-3.1V22
		c0-1.2,1-2.2,2.2-2.2c1.2,0,2.2,1,2.2,2.2V33.2z"/>
	<path id="XMLID_12_" class="st1" d="M113.4,33.2c0,1.2-1,2.2-2.2,2.2c-1.2,0-2.2-1-2.2-2.2V33c-1,1.3-2.3,2.4-4.5,2.4
		c-3.3,0-5.2-2.2-5.2-5.7V22c0-1.2,1-2.2,2.2-2.2c1.2,0,2.2,1,2.2,2.2v6.5c0,2,1,3.1,2.6,3.1c1.6,0,2.7-1.1,2.7-3.1V22
		c0-1.2,1-2.2,2.2-2.2c1.2,0,2.2,1,2.2,2.2V33.2z"/>
	<path id="XMLID_11_" class="st1" d="M116.2,22c0-1.2,1-2.2,2.2-2.2c1.2,0,2.2,1,2.2,2.2v0.2c1-1.3,2.3-2.4,4.5-2.4
		c2,0,3.5,0.9,4.3,2.4c1.3-1.6,2.9-2.4,5-2.4c3.2,0,5.1,1.9,5.1,5.6v7.9c0,1.2-1,2.2-2.2,2.2c-1.2,0-2.2-1-2.2-2.2v-6.5
		c0-2-0.9-3.1-2.5-3.1c-1.6,0-2.6,1.1-2.6,3.1v6.5c0,1.2-1,2.2-2.2,2.2c-1.2,0-2.2-1-2.2-2.2v-6.5c0-2-0.9-3.1-2.5-3.1
		c-1.6,0-2.6,1.1-2.6,3.1v6.5c0,1.2-1,2.2-2.2,2.2c-1.2,0-2.2-1-2.2-2.2V22z"/>
	<path id="XMLID_10_" class="st1" d="M142.9,15.1c0-0.4,0.3-0.7,0.7-0.7c0.4,0,0.7,0.3,0.7,0.7v19.5c0,0.4-0.3,0.7-0.7,0.7
		c-0.4,0-0.7-0.3-0.7-0.7V15.1z"/>
	<path id="XMLID_7_" class="st1" d="M147.5,31L147.5,31c0-3.1,2.6-4.8,6.3-4.8c2,0,3.4,0.3,4.8,0.6v-0.6c0-2.9-1.8-4.4-4.8-4.4
		c-1.6,0-2.9,0.4-4.1,1c-0.1,0.1-0.2,0.1-0.3,0.1c-0.3,0-0.7-0.3-0.7-0.7c0-0.3,0.3-0.6,0.4-0.6c1.5-0.7,2.9-1.1,4.8-1.1
		c2,0,3.5,0.5,4.6,1.6c1,1,1.5,2.3,1.5,4.1v8.4c0,0.4-0.3,0.7-0.7,0.7c-0.4,0-0.7-0.3-0.7-0.7v-1.8c-1,1.4-2.8,2.8-5.5,2.8
		C150.4,35.5,147.5,34,147.5,31 M158.6,29.8v-1.6c-1.2-0.3-2.8-0.7-4.9-0.7c-3.1,0-4.8,1.4-4.8,3.4v0.1c0,2.1,2,3.3,4.2,3.3
		C156.1,34.2,158.6,32.4,158.6,29.8"/>
	<path id="XMLID_4_" class="st1" d="M163.8,15.1c0-0.4,0.3-0.7,0.7-0.7c0.4,0,0.7,0.3,0.7,0.7V24c1.2-1.9,3.1-3.6,6-3.6
		c3.5,0,7,2.8,7,7.5V28c0,4.7-3.6,7.6-7,7.6c-2.9,0-4.8-1.6-6-3.5v2.5c0,0.4-0.3,0.7-0.7,0.7c-0.4,0-0.7-0.3-0.7-0.7V15.1z
		 M176.7,28L176.7,28c0-3.9-2.6-6.3-5.7-6.3c-3,0-5.9,2.5-5.9,6.2V28c0,3.7,2.9,6.2,5.9,6.2C174.2,34.2,176.7,31.9,176.7,28"/>
	<path id="XMLID_3_" class="st1" d="M180.5,33.6c-0.1-0.1-0.3-0.3-0.3-0.5c0-0.4,0.3-0.7,0.7-0.7c0.2,0,0.3,0.1,0.5,0.1
		c1.5,1.1,3.1,1.6,4.8,1.6c2,0,3.5-1.1,3.5-2.8v-0.1c0-1.7-1.8-2.3-3.8-2.9c-2.4-0.7-5-1.4-5-4v-0.1c0-2.3,2-4,4.8-4
		c1.6,0,3.3,0.5,4.7,1.3c0.2,0.1,0.4,0.3,0.4,0.6c0,0.4-0.3,0.7-0.7,0.7c-0.2,0-0.3-0.1-0.4-0.1c-1.2-0.7-2.6-1.2-4-1.2
		c-2,0-3.3,1.1-3.3,2.5v0.1c0,1.6,2,2.2,4,2.8c2.3,0.7,4.8,1.5,4.8,4.1v0.1c0,2.6-2.2,4.2-5,4.2C184.1,35.5,182,34.7,180.5,33.6"/>
</g>
</svg>
