<?xml version="1.0" encoding="UTF-8"?>
<svg width="24px" height="24px" viewBox="0 0 24 24" version="1.1" xmlns="http://www.w3.org/2000/svg" xmlns:xlink="http://www.w3.org/1999/xlink">
    <!-- Generator: Sketch 52.4 (67378) - http://www.bohemiancoding.com/sketch -->
    <title>iconfinder_cardano_ada_2844382</title>
    <desc>Created with Sketch.</desc>
    <g id="design" stroke="none" stroke-width="1" fill="none" fill-rule="evenodd" opacity="0.399999976">
        <g id="01-01-landing" transform="translate(-1373.000000, -1148.000000)" fill="#FFFFFF">
            <g id="Group-16" transform="translate(0.000000, 944.000000)">
                <g id="Group-13" transform="translate(1169.000000, 153.000000)">
                    <g id="Group-12" transform="translate(204.000000, 49.000000)">
                        <g id="iconfinder_cardano_ada_2844382" transform="translate(0.000000, 2.000000)">
                            <path d="M12,24 C5.372583,24 0,18.627417 0,12 C0,5.372583 5.372583,0 12,0 C18.627417,0 24,5.372583 24,12 C24,18.627417 18.627417,24 12,24 Z M10.6619063,8.31890625 C10.0067972,8.31890624 9.47569729,8.84992217 9.47559375,9.50503125 C9.47559376,10.1600856 10.0066019,10.6911217 10.6616563,10.6911562 C11.3167106,10.6911907 11.8477747,10.1602106 11.8478437,9.50515623 C11.8479128,8.85010189 11.3169606,8.3190098 10.6619063,8.31890625 Z M13.5255938,8.31890625 C12.8704481,8.31885447 12.339291,8.84988556 12.3391875,9.50503125 C12.3391875,10.1600734 12.8701766,10.6911045 13.5252188,10.6911562 C14.1802609,10.691208 14.7113339,10.1602608 14.7114375,9.50521871 C14.711541,8.85017658 14.1806359,8.31906157 13.5255938,8.31890625 Z M13.5255938,13.3088437 C13.2109727,13.308794 12.9092194,13.4337355 12.6867224,13.6561797 C12.4642253,13.878624 12.3392124,14.1803477 12.3391875,14.4949688 C12.3391875,15.1500109 12.8701766,15.681042 13.5252188,15.6810937 C14.1802609,15.6811455 14.7113339,15.1501983 14.7114375,14.4951562 C14.711541,13.8401141 14.1806359,13.3089991 13.5255938,13.3088438 Z M10.6619063,13.3088437 C10.3473015,13.3088189 10.0455722,13.4337713 9.82309547,13.6562129 C9.60061872,13.8786545 9.47561861,14.180364 9.47559375,14.4949688 C9.47559376,15.1500231 10.0066019,15.6810592 10.6616563,15.6810937 C11.3167106,15.6811282 11.8477747,15.1501481 11.8478437,14.4950937 C11.8479128,13.8400394 11.3169606,13.3089473 10.6619063,13.3088438 Z M9.1891875,10.85475 C8.53407841,10.85475 8.00297854,11.3857659 8.002875,12.040875 C8.00287501,12.6959293 8.53388317,13.2269655 9.18893751,13.227 C9.84399185,13.2270345 10.375056,12.6960543 10.375125,12.041 C10.375194,11.3859456 9.84424183,10.8548535 9.1891875,10.85475 Z M14.9983125,10.85475 C14.6836915,10.8547003 14.3819381,10.9796417 14.1594411,11.202086 C13.9369441,11.4245303 13.8119311,11.726254 13.8119063,12.040875 C13.8119063,12.6959171 14.3428954,13.2269482 14.9979375,13.227 C15.6529797,13.2270517 16.1840527,12.6961046 16.1841562,12.0410625 C16.1842598,11.3860203 15.6533546,10.8549053 14.9983125,10.85475 Z M16.3483125,8.80978125 C16.1530227,8.80973151 15.9657144,8.88727524 15.827606,9.02534843 C15.6894977,9.16342162 15.6119062,9.35071016 15.6119063,9.546 C15.6119063,9.95257798 15.9414845,10.2821842 16.3480625,10.2822187 C16.7546405,10.2822532 17.0842747,9.95270294 17.0843437,9.54612497 C17.0844128,9.139547 16.7548905,8.8098848 16.3483125,8.80978125 Z M16.3483125,13.7177812 C16.1530227,13.7177315 15.9657144,13.7952752 15.827606,13.9333484 C15.6894977,14.0714216 15.6119062,14.2587102 15.6119063,14.454 C15.6119063,14.860578 15.9414845,15.1901842 16.3480625,15.1902187 C16.7546405,15.1902532 17.0842747,14.8607029 17.0843437,14.454125 C17.0844128,14.047547 16.7548905,13.7178848 16.3483125,13.7177813 Z M7.8391875,13.7177813 C7.43256994,13.7177812 7.10292677,14.0473824 7.102875,14.454 C7.102875,14.8605902 7.43247232,15.1902015 7.8390625,15.1902187 C8.24565269,15.190236 8.57527798,14.8606527 8.5753125,14.4540625 C8.57534701,14.0474723 8.24577768,13.717833 7.8391875,13.7177813 Z M7.8391875,8.80978125 C7.43256994,8.80978125 7.10292677,9.13938245 7.102875,9.546 C7.102875,9.95259018 7.43247232,10.2822015 7.8390625,10.2822187 C8.24565269,10.282236 8.57527798,9.95265267 8.5753125,9.54606249 C8.57534701,9.13947231 8.24577768,8.80983303 7.8391875,8.80978125 Z M12.09375,6.3556875 C11.8984602,6.35563776 11.7111519,6.43318149 11.5730435,6.57125468 C11.4349352,6.70932787 11.3573437,6.89661641 11.3573438,7.09190625 C11.3573438,7.49848423 11.686922,7.82809047 12.0935,7.82812497 C12.500078,7.82815948 12.8297122,7.49860919 12.8297812,7.09203122 C12.8298503,6.68545325 12.500328,6.35579105 12.09375,6.3556875 Z M12.09375,16.171875 C11.8984602,16.1718253 11.7111519,16.249369 11.5730435,16.3874422 C11.4349352,16.5255154 11.3573437,16.7128039 11.3573438,16.9080937 C11.3573438,17.3146717 11.686922,17.644278 12.0935,17.6443125 C12.500078,17.644347 12.8297122,17.3147967 12.8297812,16.9082187 C12.8298503,16.5016407 12.500328,16.1719785 12.09375,16.171875 Z M15.24375,16.9080938 C15.0810072,16.908044 14.9249129,16.9726585 14.8098188,17.0877174 C14.6947247,17.2027764 14.6300625,17.3588509 14.6300625,17.5215938 C14.6300625,17.860396 14.9046977,18.1350592 15.2435,18.1350937 C15.5823023,18.1351282 15.8569935,17.860521 15.8570625,17.5217187 C15.8571315,17.1829164 15.5825523,16.9081973 15.24375,16.9080938 Z M8.94375,16.9080938 C8.7810072,16.908044 8.6249129,16.9726585 8.50981878,17.0877174 C8.39472465,17.2027764 8.33006249,17.3588509 8.3300625,17.5215938 C8.33006252,17.860396 8.60469774,18.1350592 8.94350002,18.1350937 C9.2823023,18.1351282 9.55699346,17.860521 9.55706249,17.5217187 C9.55713151,17.1829164 9.28255227,16.9081973 8.94375,16.9080938 Z M8.94375,5.86490625 C8.7810072,5.86485651 8.6249129,5.92947098 8.50981878,6.04452994 C8.39472465,6.15958889 8.33006249,6.31566344 8.3300625,6.47840625 C8.33006252,6.81720853 8.60469774,7.09187171 8.94350002,7.09190622 C9.2823023,7.09194072 9.55699346,6.81733349 9.55706249,6.47853121 C9.55713151,6.13972894 9.28255227,5.8650098 8.94375,5.86490625 Z M15.24375,5.86490625 C15.0810072,5.86485651 14.9249129,5.92947098 14.8098188,6.04452994 C14.6947247,6.15958889 14.6300625,6.31566344 14.6300625,6.47840625 C14.6300625,6.81720853 14.9046977,7.09187171 15.2435,7.09190622 C15.5823023,7.09194072 15.8569935,6.81733349 15.8570625,6.47853121 C15.8571315,6.13972894 15.5825523,5.8650098 15.24375,5.86490625 Z M18.434625,11.345625 C18.0957831,11.345625 17.821083,11.6202831 17.8210313,11.959125 C17.8210313,12.2979395 18.0956855,12.5726077 18.4345,12.572625 C18.7733145,12.5726422 19.0479967,12.298002 19.0480312,11.9591875 C19.0480658,11.620373 18.7734395,11.3456768 18.434625,11.345625 Z M5.75278125,11.345625 C5.59005469,11.3456001 5.43398448,11.4102256 5.31891063,11.5252818 C5.20383679,11.6403381 5.1391875,11.7963984 5.1391875,11.959125 C5.1391875,12.2979395 5.41384177,12.5726077 5.75265625,12.572625 C6.09147074,12.5726422 6.36615298,12.298002 6.3661875,11.9591875 C6.36622201,11.620373 6.09159574,11.3456768 5.75278125,11.345625 Z M5.30278125,7.5826875 C5.03171508,7.5826875 4.81195802,7.80240259 4.81190625,8.07346875 C4.81186833,8.27201768 4.93144214,8.45103729 5.11486655,8.52704495 C5.29829096,8.60305262 5.50944043,8.56107858 5.64984913,8.42069669 C5.79025784,8.2803148 5.8322722,8.06917336 5.75629958,7.88573443 C5.68032695,7.7022955 5.50133019,7.5826875 5.30278125,7.5826875 Z M5.30278125,15.4356563 C5.03171508,15.4356562 4.81195802,15.6553713 4.81190625,15.9264375 C4.81186833,16.1249864 4.93144214,16.304006 5.11486655,16.3800137 C5.29829096,16.4560214 5.50944043,16.4140473 5.64984913,16.2736654 C5.79025784,16.1332835 5.8322722,15.9221421 5.75629958,15.7387032 C5.68032695,15.5552643 5.50133019,15.4356563 5.30278125,15.4356563 Z M18.884625,15.4356563 C18.6135588,15.4356562 18.3938018,15.6553713 18.39375,15.9264375 C18.3937121,16.1249864 18.5132859,16.304006 18.6967103,16.3800137 C18.8801347,16.4560214 19.0912842,16.4140473 19.2316929,16.2736654 C19.3721016,16.1332835 19.414116,15.9221421 19.3381433,15.7387032 C19.2621707,15.5552643 19.0831739,15.4356563 18.884625,15.4356563 Z M18.884625,7.5826875 C18.6135588,7.5826875 18.3938018,7.80240259 18.39375,8.07346875 C18.3937121,8.27201768 18.5132859,8.45103729 18.6967103,8.52704495 C18.8801347,8.60305262 19.0912842,8.56107858 19.2316929,8.42069669 C19.3721016,8.2803148 19.414116,8.06917336 19.3381433,7.88573443 C19.2621707,7.7022955 19.0831739,7.5826875 18.884625,7.5826875 Z M12.09375,3.65625 C11.9635542,3.65620026 11.8386739,3.70788546 11.746594,3.79993019 C11.6545141,3.89197492 11.6027812,4.01683548 11.6027813,4.14703125 C11.6027295,4.41813402 11.8224597,4.63794821 12.0935625,4.63799998 C12.3646653,4.63805176 12.5844795,4.41832151 12.5845312,4.14721874 C12.584583,3.87611597 12.3648528,3.65630178 12.09375,3.65625 Z M12.09375,19.3620938 C11.9635456,19.3620689 11.8386656,19.4137749 11.7465884,19.5058346 C11.6545112,19.5978942 11.6027812,19.7227644 11.6027813,19.8529688 C11.6027813,20.1240593 11.8225344,20.3438265 12.093625,20.3438437 C12.3647156,20.343861 12.5844967,20.1241218 12.5845312,19.8530312 C12.5845658,19.5819407 12.3648406,19.3621455 12.09375,19.3620938 Z M16.4300625,19.0349063 C16.3215807,19.0349063 16.217542,19.0780005 16.1408337,19.1547087 C16.0641255,19.231417 16.0210313,19.3354557 16.0210313,19.4439375 C16.0210313,19.6698392 16.2041608,19.8529688 16.4300625,19.8529688 C16.6559642,19.8529688 16.8390938,19.6698392 16.8390938,19.4439375 C16.8390938,19.2180358 16.6559642,19.0349063 16.4300625,19.0349063 Z M7.75734375,19.0349063 C7.64886192,19.0349063 7.54482322,19.0780005 7.46811498,19.1547087 C7.39140674,19.231417 7.3483125,19.3354557 7.3483125,19.4439375 C7.3483125,19.6698392 7.53144203,19.8529688 7.75734375,19.8529688 C7.98324547,19.8529688 8.166375,19.6698392 8.166375,19.4439375 C8.166375,19.2180358 7.98324547,19.0349063 7.75734375,19.0349063 Z M7.75734375,4.14740625 L7.75734375,4.14703125 C7.64879691,4.1470312 7.54470134,4.19017692 7.46798232,4.26696628 C7.39126329,4.34375565 7.34821298,4.44789071 7.3483125,4.5564375 C7.3483125,4.78233922 7.53144203,4.96546875 7.75734375,4.96546875 C7.98324547,4.96546875 8.166375,4.78233922 8.166375,4.5564375 C8.166375,4.33053578 7.98324547,4.14740625 7.75734375,4.14740625 Z M16.4300625,4.14740625 L16.4300625,4.14703125 C16.3215157,4.1470312 16.2174201,4.19017692 16.1407011,4.26696628 C16.063982,4.34375565 16.0209317,4.44789071 16.0210313,4.5564375 C16.0210313,4.78233922 16.2041608,4.96546875 16.4300625,4.96546875 C16.6559642,4.96546875 16.8390938,4.78233922 16.8390938,4.5564375 C16.8390938,4.33053578 16.6559642,4.14740625 16.4300625,4.14740625 Z M20.684625,11.5911563 L20.684625,11.5909688 C20.5761432,11.5909688 20.4721045,11.634063 20.3953962,11.7107712 C20.318688,11.7874795 20.2755938,11.8915182 20.2755938,12 C20.2755179,12.1654547 20.3751271,12.3146599 20.5279656,12.3780293 C20.680804,12.4413986 20.8567664,12.4064499 20.9737874,12.2894826 C21.0908084,12.1725152 21.1258378,11.9965689 21.0625385,11.8437014 C20.9992392,11.6908338 20.8500798,11.5911563 20.684625,11.5911563 Z M3.50278125,11.5911563 L3.50278125,11.5909688 C3.39429942,11.5909688 3.29026072,11.634063 3.21355248,11.7107712 C3.13684424,11.7874795 3.09375,11.8915182 3.09375,12 C3.09367416,12.1654547 3.19328332,12.3146599 3.3461218,12.3780293 C3.49896029,12.4413986 3.67492267,12.4064499 3.79194366,12.2894826 C3.90896466,12.1725152 3.94399402,11.9965689 3.88069476,11.8437014 C3.81739549,11.6908338 3.66823601,11.5911563 3.50278125,11.5911563 Z" id="Combined-Shape"></path>
                        </g>
                    </g>
                </g>
            </g>
        </g>
    </g>
</svg>