<svg xmlns="http://www.w3.org/2000/svg" width="157" viewBox="-0.5 -0.5 187 44"><style>.cls-1{fill:#e72076}</style><style>.cls-2{fill:#20323f}</style><title>Adalite logo</title><g id="Layer_2"><g id="Layer_1-2"><path class="cls-1" d="M26.87,2.69a5.37,5.37,0,1,1-7.34-2A5.37,5.37,0,0,1,26.87,2.69Z"></path><path class="cls-1" d="M36.18,18.81a5.37,5.37,0,1,1-7.33-2A5.38,5.38,0,0,1,36.18,18.81Z"></path><path class="cls-1" d="M45.49,34.94a5.37,5.37,0,1,1-7.33-2A5.37,5.37,0,0,1,45.49,34.94Z"></path><path class="cls-1" d="M7.24,23.46A3.93,3.93,0,1,0,12.6,22,3.92,3.92,0,0,0,7.24,23.46Z"></path><path class="cls-1" d="M.36,39A2.69,2.69,0,1,0,4,38,2.69,2.69,0,0,0,.36,39Z"></path><path class="cls-2" d="M57.74,41.53a5.24,5.24,0,0,1,0-7.23,4.71,4.71,0,0,1,3.52-1.48,5.31,5.31,0,0,1,4,1.64.19.19,0,0,1,0,.3l-1.13,1a.2.2,0,0,1-.31,0,3.29,3.29,0,0,0-2.51-1,2.72,2.72,0,0,0-2.09.93,3.47,3.47,0,0,0,0,4.55,2.73,2.73,0,0,0,2.1.93,3.26,3.26,0,0,0,1.34-.23,4.22,4.22,0,0,0,1.11-.77.19.19,0,0,1,.28,0l1.16.92c.12.12.14.21,0,.29A5.21,5.21,0,0,1,61.33,43,4.83,4.83,0,0,1,57.74,41.53Z"></path><path class="cls-2" d="M73.9,35.48a.24.24,0,0,1,.27.27v6.78a.24.24,0,0,1-.27.26H72.54c-.13,0-.22-.09-.26-.26l-.11-.9A3,3,0,0,1,69.67,43a3.22,3.22,0,0,1-2.41-1,3.83,3.83,0,0,1-1-2.79,3.83,3.83,0,0,1,1-2.79,3.2,3.2,0,0,1,2.37-1,3.25,3.25,0,0,1,2.55,1.25l.1-.8c0-.18.11-.27.26-.27Zm-2.27,5.28a2.06,2.06,0,0,0,.58-1.59,2.19,2.19,0,0,0-.59-1.62A2,2,0,0,0,70.18,37a1.9,1.9,0,0,0-1.41.57,2.52,2.52,0,0,0,0,3.19,2,2,0,0,0,1.43.58A2,2,0,0,0,71.63,40.76Z"></path><path class="cls-2" d="M81.3,35.78l-.92,1.53a.24.24,0,0,1-.21.13,3.77,3.77,0,0,0-.46-.06c-1,0-1.46.6-1.61,1.83v3.32a.24.24,0,0,1-.27.26h-1.5a.24.24,0,0,1-.27-.26V35.75a.24.24,0,0,1,.27-.27h1.43c.13,0,.22.09.26.27l.1.83a2.54,2.54,0,0,1,2.13-1.26,5.74,5.74,0,0,1,.93.09C81.37,35.47,81.42,35.6,81.3,35.78Z"></path><path class="cls-2" d="M89.15,32.62a.24.24,0,0,1,.27.27v9.64a.24.24,0,0,1-.27.26H87.8c-.15,0-.23-.09-.26-.26l-.13-.94A3,3,0,0,1,84.89,43a3.22,3.22,0,0,1-2.41-1,3.83,3.83,0,0,1-1-2.79,3.83,3.83,0,0,1,1-2.79,3.17,3.17,0,0,1,2.34-1,3.31,3.31,0,0,1,2.54,1.21V32.89a.24.24,0,0,1,.27-.27Zm-2.3,8.14a2.06,2.06,0,0,0,.58-1.59,2.19,2.19,0,0,0-.59-1.62A2,2,0,0,0,85.4,37a1.9,1.9,0,0,0-1.41.57,2.16,2.16,0,0,0-.57,1.59,2.12,2.12,0,0,0,.58,1.6,1.91,1.91,0,0,0,1.42.58A2,2,0,0,0,86.85,40.76Z"></path><path class="cls-2" d="M98.51,35.48a.24.24,0,0,1,.27.27v6.78a.24.24,0,0,1-.27.26H97.15c-.13,0-.22-.09-.26-.26l-.11-.9A3,3,0,0,1,94.28,43a3.22,3.22,0,0,1-2.41-1,3.83,3.83,0,0,1-1-2.79,3.83,3.83,0,0,1,1-2.79,3.2,3.2,0,0,1,2.37-1,3.25,3.25,0,0,1,2.55,1.25l.1-.8c0-.18.11-.27.26-.27Zm-2.27,5.28a2.06,2.06,0,0,0,.58-1.59,2.19,2.19,0,0,0-.59-1.62A2,2,0,0,0,94.79,37a1.9,1.9,0,0,0-1.41.57,2.16,2.16,0,0,0-.57,1.59,2.12,2.12,0,0,0,.58,1.6,1.91,1.91,0,0,0,1.42.58A2,2,0,0,0,96.24,40.76Z"></path><path class="cls-2" d="M107.23,36.22A3.91,3.91,0,0,1,108,38.8v3.73a.24.24,0,0,1-.27.26h-1.52a.24.24,0,0,1-.27-.26V38.8c0-1-.53-1.65-1.47-1.65s-1.7.66-1.75,2.09v3.29a.24.24,0,0,1-.27.26h-1.52a.24.24,0,0,1-.27-.26V35.75a.24.24,0,0,1,.27-.27h1.43c.13,0,.22.09.26.27l.09.7a3.1,3.1,0,0,1,2.44-1.14A2.59,2.59,0,0,1,107.23,36.22Z"></path><path class="cls-2" d="M110.3,41.88a3.89,3.89,0,0,1,5.51-5.5,3.72,3.72,0,0,1,1.07,2.74A3.67,3.67,0,0,1,113.05,43,3.73,3.73,0,0,1,110.3,41.88Zm2.75-.61a2,2,0,0,0,1.45-.58,2.13,2.13,0,0,0-1.45-3.7,2,2,0,0,0-1.44.57,2.34,2.34,0,0,0,0,3.13A2,2,0,0,0,113.05,41.27Z"></path><path class="cls-2" d="M135.58,33c.22,0,.3.16.24.3l-3,9.28a.28.28,0,0,1-.3.22h-1.32a.32.32,0,0,1-.3-.21l-2.06-5.53-2.05,5.53a.33.33,0,0,1-.3.21h-1.31a.29.29,0,0,1-.31-.22l-3-9.28a.22.22,0,0,1,.23-.3h1.52c.16,0,.26.06.28.21l2,6.37,2.23-6a.29.29,0,0,1,.31-.22h.88a.3.3,0,0,1,.29.22l2.17,6.08,2-6.44a.26.26,0,0,1,.29-.21Z"></path><path class="cls-2" d="M143.78,35.48a.24.24,0,0,1,.26.27v6.78a.23.23,0,0,1-.26.26h-1.37c-.13,0-.22-.09-.26-.26l-.11-.9a3,3,0,0,1-2.5,1.33,3.22,3.22,0,0,1-2.41-1,3.83,3.83,0,0,1-1-2.79,3.83,3.83,0,0,1,1-2.79,3.2,3.2,0,0,1,2.37-1,3.25,3.25,0,0,1,2.55,1.25l.1-.8c0-.18.11-.27.26-.27Zm-2.28,5.28a2.06,2.06,0,0,0,.58-1.59,2.19,2.19,0,0,0-.59-1.62,2,2,0,0,0-1.44-.58,1.9,1.9,0,0,0-1.41.57,2.16,2.16,0,0,0-.57,1.59,2.12,2.12,0,0,0,.58,1.6,1.91,1.91,0,0,0,1.42.58A2,2,0,0,0,141.5,40.76Z"></path><path class="cls-2" d="M146.2,42.79a.23.23,0,0,1-.26-.26V32.89a.24.24,0,0,1,.26-.27h1.54a.24.24,0,0,1,.27.27v9.64a.24.24,0,0,1-.27.26Z"></path><path class="cls-2" d="M150.18,42.79a.24.24,0,0,1-.27-.26V32.89a.24.24,0,0,1,.27-.27h1.54c.18,0,.26.09.26.27v9.64a.23.23,0,0,1-.26.26Z"></path><path class="cls-2" d="M159.66,36.35a3.83,3.83,0,0,1,1,2.76,2.11,2.11,0,0,1,0,.3.26.26,0,0,1-.29.26h-5.07a1.92,1.92,0,0,0,2.16,1.75,2.43,2.43,0,0,0,2-.94c.13-.13.26-.14.37,0l.65.63c.13.14.11.28,0,.43a4.17,4.17,0,0,1-5.91.36,3.67,3.67,0,0,1-1.08-2.72,4,4,0,0,1,1-2.75,3.39,3.39,0,0,1,2.66-1.12A3.45,3.45,0,0,1,159.66,36.35Zm-4.4,2.07h3.66a1.67,1.67,0,0,0-1.78-1.6A1.77,1.77,0,0,0,155.26,38.42Z"></path><path class="cls-2" d="M166.91,42.22a.27.27,0,0,1-.13.35A4.1,4.1,0,0,1,165,43c-1.8,0-2.52-1-2.52-3V37.14h-.88a.24.24,0,0,1-.27-.27V35.75a.24.24,0,0,1,.27-.27h.88V33.85a.24.24,0,0,1,.27-.26h1.51a.23.23,0,0,1,.26.26v1.63h1.88a.24.24,0,0,1,.26.27v1.12a.24.24,0,0,1-.26.27h-1.88v3c0,.85.35,1.13,1,1.13a2,2,0,0,0,.63-.11.26.26,0,0,1,.35.16Z"></path><path class="cls-2" d="M78.59,24.77c.21.49,0,.75-.5.75h-3.9a.66.66,0,0,1-.68-.47L72,21.3H63.14l-1.66,3.75a.72.72,0,0,1-.72.47H56.83c-.5,0-.64-.29-.47-.75L66,3.07a.69.69,0,0,1,.69-.47h2.2a.66.66,0,0,1,.69.47ZM67.69,9.65l-3.11,8.12h6Z"></path><path class="cls-2" d="M98.46,1.76a.55.55,0,0,1,.62.62V24.89a.55.55,0,0,1-.62.63H95.31c-.35,0-.56-.21-.62-.63L94.4,22.7a7,7,0,0,1-5.89,3.22,7.55,7.55,0,0,1-5.64-2.43A9,9,0,0,1,80.53,17a9.07,9.07,0,0,1,2.35-6.54A7.35,7.35,0,0,1,88.35,8a7.74,7.74,0,0,1,5.92,2.84V2.38a.55.55,0,0,1,.63-.62Zm-5.38,19a4.83,4.83,0,0,0,1.35-3.71,5.11,5.11,0,0,0-1.37-3.78,4.62,4.62,0,0,0-3.37-1.38,4.42,4.42,0,0,0-3.29,1.35A5.08,5.08,0,0,0,85.07,17a5.08,5.08,0,0,0,1.34,3.74,4.58,4.58,0,0,0,3.34,1.34A4.72,4.72,0,0,0,93.08,20.77Z"></path><path class="cls-2" d="M120.31,8.44a.55.55,0,0,1,.63.62V24.89a.56.56,0,0,1-.63.63h-3.18c-.3,0-.51-.21-.62-.63l-.25-2.09a7.08,7.08,0,0,1-5.84,3.12,7.57,7.57,0,0,1-5.64-2.43A9,9,0,0,1,102.45,17a9,9,0,0,1,2.35-6.54A7.43,7.43,0,0,1,110.33,8a7.66,7.66,0,0,1,6,2.92l.22-1.87c.06-.42.27-.62.62-.62ZM115,20.77a4.83,4.83,0,0,0,1.36-3.71A5.11,5.11,0,0,0,115,13.28a4.62,4.62,0,0,0-3.37-1.38,4.44,4.44,0,0,0-3.3,1.35A5.12,5.12,0,0,0,107,17a5.08,5.08,0,0,0,1.34,3.74,4.56,4.56,0,0,0,3.34,1.34A4.68,4.68,0,0,0,115,20.77Z"></path><path class="cls-2" d="M142.66,21a.55.55,0,0,1,.63.62v3.24a.56.56,0,0,1-.63.63H126.52a.55.55,0,0,1-.62-.63V3.23a.55.55,0,0,1,.62-.63h3.57a.55.55,0,0,1,.62.63V21Z"></path><path class="cls-2" d="M148.83,5.59a2.63,2.63,0,0,1-2-.83,2.68,2.68,0,0,1-.81-2,2.75,2.75,0,0,1,.81-2,2.63,2.63,0,0,1,2-.83,2.67,2.67,0,0,1,2,.83,2.76,2.76,0,0,1,.82,2,2.69,2.69,0,0,1-.82,2A2.67,2.67,0,0,1,148.83,5.59ZM147,25.52a.55.55,0,0,1-.62-.63V9.06a.54.54,0,0,1,.62-.62h3.56a.55.55,0,0,1,.63.62V24.89a.56.56,0,0,1-.63.63Z"></path><path class="cls-2" d="M166.88,24.17a.61.61,0,0,1-.31.82,9.32,9.32,0,0,1-4.12.89c-4.2,0-5.88-2.33-5.88-6.95V12.3h-2.06a.55.55,0,0,1-.62-.62V9.06a.55.55,0,0,1,.62-.62h2.06V4.63A.55.55,0,0,1,157.2,4h3.53a.55.55,0,0,1,.62.62V8.44h4.38a.55.55,0,0,1,.62.62v2.62a.55.55,0,0,1-.62.62h-4.38v7.07c0,2,.8,2.65,2.41,2.65a4.39,4.39,0,0,0,1.47-.27.6.6,0,0,1,.83.36Z"></path><path class="cls-2" d="M183.38,10.47a8.9,8.9,0,0,1,2.35,6.43c0,.31,0,.55,0,.72a.63.63,0,0,1-.69.59H173.17c.43,2.74,2.11,4.09,5,4.09a5.66,5.66,0,0,0,4.59-2.18.55.55,0,0,1,.88,0l1.52,1.47a.69.69,0,0,1-.1,1,9.75,9.75,0,0,1-13.8.83,8.54,8.54,0,0,1-2.53-6.36,9.23,9.23,0,0,1,2.35-6.42,8.68,8.68,0,0,1,12.27-.16Zm-10.27,4.84h8.53a3.9,3.9,0,0,0-4.16-3.76A4.1,4.1,0,0,0,173.11,15.31Z"></path></g></g></svg>
