<svg width="24" height="24" viewBox="0 0 24 24" fill="none" xmlns="http://www.w3.org/2000/svg">
  <circle cx="12" cy="12" r="12" fill="#292929"/>
  <path fill-rule="evenodd" clip-rule="evenodd" d="M11.9998 20.5C15.834 20.5 19.0672 17.8912 20.0661 14.3291C20.1071 14.1829 19.9974 14.04 19.8482 14.04H17.573C17.4306 14.04 17.3038 14.1302 17.2478 14.2636C16.379 16.3308 14.3563 17.78 11.9998 17.78C9.64327 17.78 7.62063 16.3308 6.75184 14.2636C6.69578 14.1302 6.56906 14.04 6.42658 14.04H4.15144C4.00217 14.04 3.89248 14.1829 3.93347 14.3291C4.93244 17.8912 8.16558 20.5 11.9998 20.5ZM11.9998 3.5C15.834 3.5 19.0672 6.10881 20.0661 9.67093C20.1071 9.81711 19.9974 9.96 19.8482 9.96H17.573C17.4306 9.96 17.3038 9.8698 17.2478 9.73639C16.379 7.66919 14.3563 6.22 11.9998 6.22C9.64327 6.22 7.62063 7.66919 6.75184 9.73639C6.69577 9.8698 6.56906 9.96 6.42658 9.96H4.15144C4.00217 9.96 3.89248 9.81711 3.93347 9.67093C4.93244 6.10881 8.16558 3.5 11.9998 3.5ZM10.524 9.96C10.2277 9.96 9.9874 10.2036 9.9874 10.504V13.496C9.9874 13.7964 10.2277 14.04 10.524 14.04H13.4756C13.7719 14.04 14.0122 13.7964 14.0122 13.496V10.504C14.0122 10.2036 13.7719 9.96 13.4756 9.96H10.524Z" fill="#CCFF00"/>
</svg>
