<?xml version="1.0" encoding="UTF-8"?>
<svg width="16px" height="16px" viewBox="0 0 16 16" version="1.1" xmlns="http://www.w3.org/2000/svg" xmlns:xlink="http://www.w3.org/1999/xlink">
    <!-- Generator: Sketch 52.4 (67378) - http://www.bohemiancoding.com/sketch -->
    <title>Group 10</title>
    <desc>Created with Sketch.</desc>
    <g id="design" stroke="none" stroke-width="1" fill="none" fill-rule="evenodd">
        <g id="01-01-landing" transform="translate(-295.000000, -468.000000)">
            <g id="Group-4" transform="translate(211.000000, 448.000000)">
                <g id="Group-8" transform="translate(84.000000, 20.000000)">
                    <g id="Group-10">
                        <circle id="Oval" fill="#78C9DD" cx="8" cy="8" r="8"></circle>
                        <g id="Path-6" transform="translate(4.000000, 2.000000)" fill="#FFFFFF">
                            <path d="M4.47468825,11.8760596 L0.081289741,5.32932709 C0.0197391318,5.23760872 0.0441949381,5.11335966 0.135913313,5.05180905 C0.168872456,5.02969074 0.207667671,5.01787986 0.24736055,5.01787986 L3.7641273,5.01787986 C3.87458425,5.01787986 3.9641273,4.92833681 3.9641273,4.81787986 C3.9641273,4.8062611 3.96311484,4.79466445 3.9611014,4.78322148 L3.16694484,0.269787276 C3.14780355,0.161001483 3.22047478,0.0572960914 3.32926057,0.0381548017 C3.40732065,0.0244198232 3.48612683,0.0580773385 3.53018024,0.123966049 L7.91909224,6.68826489 C7.98048579,6.78008847 7.95581738,6.9042955 7.8639938,6.96568905 C7.83109379,6.9876861 7.79240721,6.99942775 7.75283094,6.99942775 L4.2408019,6.99942775 C4.13034495,6.99942775 4.0408019,7.0889708 4.0408019,7.19942775 C4.0408019,7.21108742 4.0418215,7.22272475 4.04384906,7.23420678 L4.8377119,11.7298333 C4.85691983,11.8386074 4.78431214,11.9423572 4.67553809,11.9615652 C4.59756495,11.9753341 4.51880994,11.9418066 4.47468825,11.8760596 Z" id="Path-5" transform="translate(4.000096, 5.999871) scale(-1, 1) translate(-4.000096, -5.999871) "></path>
                        </g>
                    </g>
                </g>
            </g>
        </g>
    </g>
</svg>