<svg xmlns="http://www.w3.org/2000/svg" width="90" height="10">
  <path fill="#99A0A4" fill-rule="evenodd" d="M0 5.148v-.027C0 2.453 1.981.243 4.738.243c1.7 0 2.717.607 3.654 1.496l-.723.782c-.789-.755-1.673-1.294-2.944-1.294-2.075 0-3.627 1.698-3.627 3.867v.027c0 2.183 1.566 3.895 3.627 3.895 1.285 0 2.128-.499 3.025-1.361l.695.687C7.47 9.34 6.398 10 4.698 10 1.995 10 0 7.857 0 5.149zm21.496 4.69V.405h1.058v9.433h-1.058zm3.8-9.433h.991l5.903 7.56V.405h1.03v9.433h-.843l-6.05-7.735v7.735h-1.03V.405zm18.394 0h2.208l1.941 6.388L49.94.378h1.767l2.101 6.415L55.749.405h2.155l-3.2 9.5h-1.792l-2.115-6.172-2.115 6.172h-1.793L43.69.405zm15.834 9.433V.405h2.061v9.433h-2.061zm6.585-7.52h-2.851V.405h7.763v1.913h-2.85v7.52h-2.062v-7.52zm-48.041 2.83v-.027c0-2.142-1.553-3.894-3.694-3.894s-3.667 1.725-3.667 3.867v.027c0 2.143 1.552 3.895 3.694 3.895 2.141 0 3.667-1.725 3.667-3.867zm-8.459 0v-.027c0-2.6 1.94-4.877 4.792-4.877 2.85 0 4.764 2.25 4.764 4.85v.027c0 2.602-1.94 4.879-4.791 4.879-2.85 0-4.765-2.251-4.765-4.851zm62.175 0v-.027c0-2.681 2.007-4.877 4.885-4.877 1.767 0 2.824.592 3.694 1.455L79.05 3.222c-.723-.661-1.458-1.065-2.395-1.065-1.58 0-2.717 1.32-2.717 2.937v.027c0 1.618 1.11 2.965 2.717 2.965 1.07 0 1.726-.43 2.462-1.104l1.312 1.334C79.467 9.353 78.396 10 76.589 10c-2.757 0-4.805-2.142-4.805-4.851zM82.076.406h2.061v3.733h3.801V.405H90v9.433h-2.062V6.05h-3.8v3.787h-2.062V.405zM37.72 9.114l-.016.012a1.175 1.175 0 0 1-.175.108h-.001a1.168 1.168 0 0 1-.415.12c-.038.003-.074.01-.113.01h-.024a1.19 1.19 0 0 1-1.16-1.216 1.189 1.189 0 0 1 1.184-1.17h.024c.63.014 1.13.521 1.155 1.147.001.024.006.046.006.07-.001.08-.011.156-.028.23-.006.031-.018.06-.027.09-.013.041-.023.083-.04.121-.017.04-.039.078-.06.116-.014.024-.026.05-.041.073-.03.045-.064.087-.1.127l-.03.037c-.043.046-.09.086-.14.125zm2.246-7.49a1.106 1.106 0 0 1-.015-.199 1.175 1.175 0 0 1 .037-.264c.014-.058.032-.115.055-.168.009-.023.02-.045.03-.067a1.19 1.19 0 0 1 .121-.195c.014-.02.03-.037.046-.055.048-.056.1-.108.159-.154l.023-.02a1.171 1.171 0 0 1 .712-.246h.025a1.19 1.19 0 0 1 1.16 1.217 1.188 1.188 0 0 1-1.183 1.169h-.025a1.182 1.182 0 0 1-1.103-.844 1.223 1.223 0 0 1-.042-.174zm-.109 2.398c1.89.537 2.947 1.246 2.914 2.89v.026c-.024 1.222-.647 2.08-1.637 2.519l.001.001c-.758.429-2.582.48-3.534.477a1.876 1.876 0 0 0 1.253-1.726c0-.038-.002-.075-.003-.112a5.735 5.735 0 0 0 1.154-.21v-.002c.445-.125.707-.398.714-.786v-.027c.011-.526-.305-.801-1.862-1.237-1.877-.524-3.084-1.074-3.047-2.947v-.026c.023-1.096.601-1.941 1.516-2.398l-.001-.003c.693-.42 1.915-.471 2.645-.46a1.872 1.872 0 0 0-.651 1.817c-.305.029-.6.09-.96.224-.32.14-.492.385-.497.672v.027c-.013.62.384.83 1.995 1.28z"/>
</svg>
