<?xml version="1.0" encoding="UTF-8"?>
<svg width="24px" height="24px" viewBox="0 0 24 24" version="1.1" xmlns="http://www.w3.org/2000/svg" xmlns:xlink="http://www.w3.org/1999/xlink">
    <!-- Generator: Sketch 52.4 (67378) - http://www.bohemiancoding.com/sketch -->
    <title>Shape</title>
    <desc>Created with Sketch.</desc>
    <g id="Symbols" stroke="none" stroke-width="1" fill="none" fill-rule="evenodd" opacity="0.5">
        <g id="footer" transform="translate(-156.000000, -285.000000)" fill="#FFFFFF" fill-rule="nonzero">
            <g id="Group-16">
                <g id="Group-2" transform="translate(156.000000, 284.000000)">
                    <path d="M12,1 C18.6275,1 24,6.3725 24,13 C24,19.6275 18.6275,25 12,25 C5.3725,25 0,19.6275 0,13 C0,6.3725 5.3725,1 12,1 Z M6.79416572,19.6077013 L10.3332308,14.9827246 L13.6289023,16.2997872 C14.1181329,16.4953005 14.67514,16.2777021 14.9022858,15.8023319 L18.9022858,7.43113843 C19.140397,6.93281974 18.9294571,6.33582538 18.4311384,6.09771421 C17.9328197,5.85960303 17.3358254,6.07054289 17.0977142,6.56886157 L13.5014735,14.0950681 L10.3710977,12.8440633 C9.95466401,12.6776421 9.47836173,12.8088072 9.20583428,13.1649558 L5.20583428,18.3922987 C4.87021015,18.8309044 4.95369313,19.4585416 5.39229874,19.7941657 C5.83090436,20.1297899 6.45854158,20.0463069 6.79416572,19.6077013 Z" id="Shape"></path>
                </g>
            </g>
        </g>
    </g>
</svg>