<?xml version="1.0" encoding="UTF-8"?>
<svg width="24px" height="24px" viewBox="0 0 24 24" version="1.1" xmlns="http://www.w3.org/2000/svg" xmlns:xlink="http://www.w3.org/1999/xlink">
    <!-- Generator: Sketch 52.4 (67378) - http://www.bohemiancoding.com/sketch -->
    <title>Shape</title>
    <desc>Created with Sketch.</desc>
    <g id="Symbols" stroke="none" stroke-width="1" fill="none" fill-rule="evenodd" opacity="0.4">
        <g id="footer" transform="translate(-1169.000000, -204.000000)" fill="#FFFFFF" fill-rule="nonzero">
            <g id="Group-16">
                <g id="Group-13" transform="translate(1169.000000, 153.000000)">
                    <g id="Group-12" transform="translate(0.000000, 49.000000)">
                        <g id="iconfinder_Bitcoin_2785521" transform="translate(0.000000, 2.000000)">
                            <path d="M11.0786789,12.3008975 L13.2663436,12.8870805 C14.2873013,13.1606453 14.7125559,14.004075 14.427759,14.9698643 C14.2388847,15.674753 13.7534697,16.2220771 13.1049849,16.3088413 C12.8601961,16.3474348 12.5376846,16.2870326 12.270339,16.2153975 L10.17988,15.6552607 L11.0786789,12.3008975 Z M14.9864965,8.60645622 C15.3588507,8.96675334 15.4473903,9.51152767 15.2976011,10.0705486 C15.0631221,10.945636 14.3898151,11.4165367 13.5147848,11.1820731 L11.5215316,10.6479825 L12.3096264,7.70677261 L14.0598057,8.17573174 C14.4486883,8.2799325 14.7759883,8.41978815 14.9864965,8.60645622 Z M12.0153993,17.944729 C11.7114428,19.0791102 11.5594645,19.6463009 11.5594645,19.6463009 C11.5594645,19.6463009 11.1786329,19.5442574 10.4169698,19.3401704 L10.8729047,17.6385985 L9.68186652,17.3194608 C9.37790998,18.453842 9.22593169,19.0210327 9.22593169,19.0210327 C9.22593169,19.0210327 8.84511998,18.9189945 8.08349638,18.7149181 L8.53943122,17.0133461 C7.01614469,16.6051827 6.25450134,16.401101 6.25450134,16.401101 C6.25450134,16.401101 6.39344066,15.8825724 6.67131926,14.8455154 L7.3762691,15.0344061 C7.74082051,15.1320873 8.08639577,14.912003 8.1775732,14.5717241 L10.0207915,7.69273976 C10.1184884,7.3281299 9.8984465,6.9826304 9.55816687,6.89145275 C9.08820031,6.76552559 8.85321703,6.70256201 8.85321703,6.70256201 C8.85321703,6.70256201 8.99216694,6.18399388 9.27006675,5.14685769 L11.5549966,5.75910281 C11.8589426,4.62476104 12.0109156,4.05759016 12.0109156,4.05759016 C12.0109156,4.05759016 12.3917274,4.15962838 13.1533509,4.36370478 L12.6974319,6.06521742 L13.8884701,6.38435513 C14.192416,5.25001337 14.344389,4.68284249 14.344389,4.68284249 C14.344389,4.68284249 14.7252206,4.784886 15.4868837,4.98897301 L15.0244611,6.71475738 C15.6012952,6.89539753 16.0435692,7.09207476 16.453337,7.41030451 C17.3700348,8.07273493 17.8209789,9.20958757 17.4822836,10.4736159 C17.1956964,11.5431737 16.4750263,12.2879229 15.4519218,12.5087552 C16.6051581,13.2607075 16.871165,14.5042832 16.5520122,15.6953777 C16.1174262,17.220188 14.7968582,18.0647838 13.4772725,18.1280675 C12.9521149,18.1436288 12.5015471,18.0749919 12.0153993,17.944729 Z M0.0716585405,12.0249352 C0.0716585405,18.6180987 5.43172407,23.9782733 12.0249659,23.9782733 C18.6181464,23.9782733 23.9782733,18.6180987 23.9782733,12.0249352 C23.9782733,5.43177174 18.6181464,0.0716585405 12.0249659,0.0716585405 C5.43172407,0.0716585405 0.0716585405,5.43177174 0.0716585405,12.0249352 Z" id="Shape" transform="translate(12.024966, 12.024966) rotate(-360.000000) translate(-12.024966, -12.024966) "></path>
                        </g>
                    </g>
                </g>
            </g>
        </g>
    </g>
</svg>