<?xml version="1.0" encoding="UTF-8"?>
<svg width="32px" height="26px" viewBox="0 0 32 26" version="1.1" xmlns="http://www.w3.org/2000/svg" xmlns:xlink="http://www.w3.org/1999/xlink">
    <!-- Generator: Sketch 52.4 (67378) - http://www.bohemiancoding.com/sketch -->
    <title>iconfinder_eye-off_2561429</title>
    <desc>Created with Sketch.</desc>
    <g id="✅--Done" stroke="none" stroke-width="1" fill="none" fill-rule="evenodd" stroke-linecap="round" stroke-linejoin="round">
        <g id="02-03-02-export-no-modal" transform="translate(-1052.000000, -442.000000)" stroke="#E72076" stroke-width="2">
            <g id="Group" transform="translate(1052.000000, 432.000000)">
                <g id="iconfinder_eye-off_2561429" transform="translate(1.000000, 11.000000)">
                    <path d="M23.0769231,20.2233633 C20.7482381,21.9796564 17.9126884,22.9526397 14.985015,23 C5.44909636,23 0,12.2169448 0,12.2169448 C1.69451898,9.09241393 4.04477629,6.36256454 6.89310689,4.21052632 M12.6923077,2.30820153 C13.6017309,2.10131665 14.532821,1.99789921 15.4668233,2.00003233 C24.7152085,2.00003233 30,12.2723388 30,12.2723388 C29.1980059,13.7305022 28.2415588,15.1033044 27.1462126,16.3684211 M17.3076923,15.1494237 C16.3110161,16.1740007 14.8099831,16.5957532 13.3934494,16.2492273 C11.9769158,15.9027013 10.8708063,14.8431649 10.5090485,13.4862748 C10.1472906,12.1293846 10.5875816,10.691553 11.6571951,9.73684211" id="Shape"></path>
                    <path d="M3,0 L28,24" id="Path"></path>
                </g>
            </g>
        </g>
    </g>
</svg>