<svg width="256" height="256" viewBox="0 0 256 256" fill="none" xmlns="http://www.w3.org/2000/svg">
<path d="M35 128C35 76.6375 76.6375 35 128 35C179.362 35 221 76.6375 221 128C221 179.362 179.362 221 128 221C76.6375 221 35 179.362 35 128Z" fill="none"/>
<path fill-rule="evenodd" clip-rule="evenodd" d="M128 212.281C167.351 212.281 200.367 185.005 209.375 148.227H181.336C173.206 169.898 152.393 185.311 128 185.311C103.607 185.311 82.7939 169.898 74.6641 148.227H46.625C55.6334 185.005 88.6494 212.281 128 212.281ZM128 43.7188C167.351 43.7188 200.367 70.9945 209.375 107.772H181.336C173.206 86.1019 152.393 70.6887 128 70.6887C103.607 70.6887 82.7939 86.1019 74.6641 107.772H46.625C55.6334 70.9945 88.6494 43.7188 128 43.7188ZM113.25 107.772C110.288 107.772 107.887 110.187 107.887 113.166V142.834C107.887 145.813 110.288 148.227 113.25 148.227H142.75C145.712 148.227 148.113 145.813 148.113 142.834V113.166C148.113 110.187 145.712 107.772 142.75 107.772H113.25Z" fill="#C6FF00"/>
</svg>
