<?xml version="1.0" encoding="UTF-8"?>
<svg width="1600px" height="284px" viewBox="0 0 1600 284" version="1.1" xmlns="http://www.w3.org/2000/svg" xmlns:xlink="http://www.w3.org/1999/xlink">
    <!-- Generator: Sketch 52.4 (67378) - http://www.bohemiancoding.com/sketch -->
    <title>Group 14</title>
    <desc>Created with Sketch.</desc>
    <defs>
        <rect id="path-1" x="0" y="0" width="1600" height="284"></rect>
    </defs>
    <g id="design" stroke="none" stroke-width="1" fill="none" fill-rule="evenodd">
        <g id="01-01-landing" transform="translate(0.000000, -944.000000)">
            <g id="Group-16" transform="translate(0.000000, 944.000000)">
                <g id="Group-14">
                    <mask id="mask-2" fill="white">
                        <use xlink:href="#path-1"></use>
                    </mask>
                    <use id="Mask" fill="#20323F" xlink:href="#path-1"></use>
                    <g opacity="0.08" mask="url(#mask-2)" id="Path" stroke="#FFFFFF">
                        <g transform="translate(132.000000, -36.000000)">
                            <path d="M209.12263,21.2106731 C203.730649,11.7405505 194.790329,4.80713801 184.27678,1.94217037 C173.763237,-0.922795743 162.541737,0.516466979 153.091346,5.94199635 C133.472977,17.2050266 126.685487,42.2322523 137.924693,61.8654091 C149.163886,81.4985414 174.181018,88.3157707 193.825579,77.098552 C213.470165,65.8813193 220.316013,40.869996 209.12263,21.2106731 Z"></path>
                            <path d="M280.104045,148.162228 C268.847387,128.514671 243.820191,121.683765 224.148984,132.889235 C204.500615,144.13013 197.678241,169.174018 208.909109,188.832704 C220.13992,208.491292 245.1729,215.323889 264.828323,204.095572 C284.48371,192.867275 291.32207,167.828005 280.104045,148.162228 Z M280.104045,148.162228 C280.103968,148.162094 280.103891,148.161959 280.103814,148.161825 L280.104275,148.162631 C280.104199,148.162497 280.104122,148.162363 280.104045,148.162228 Z"></path>
                            <path d="M354.103841,274.17769 C348.712055,264.728261 339.785607,257.809748 329.290489,254.945899 C318.795376,252.082053 307.592401,253.507759 298.148937,258.909019 C278.500608,270.147027 271.678268,295.184404 282.909082,314.837986 C294.139881,334.491544 319.172913,341.322415 338.82837,330.096939 C358.483853,318.871448 365.322136,293.838422 354.103841,274.17769 Z"></path>
                            <path d="M56.4649563,183.615445 L56.4643234,183.616554 C50.4349614,194.143902 51.3453592,207.265192 58.7708664,216.859898 C66.1964477,226.454701 78.6742988,230.6325 90.3839338,227.444445 C102.093508,224.256408 110.727795,214.330718 112.259292,202.297385 C113.790785,190.264083 107.917803,178.493843 97.3786899,172.476399 C90.4791796,168.513659 82.2846116,167.461092 74.6068488,169.551433 C66.9291176,171.641765 60.4006717,176.702778 56.4649563,183.615445 Z"></path>
                            <path d="M3.26066867,305.727881 C-0.909274285,312.926823 -0.314083172,321.931901 4.76708431,328.519504 C9.84826608,335.107126 18.4075261,337.970513 26.4303344,335.766645 C34.4531307,333.562781 40.3480264,326.728851 41.3501699,318.47016 C42.3523126,310.211476 38.262923,302.166243 31.0000197,298.107892 C21.224192,292.645373 8.87339155,296.038141 3.26066867,305.727881 Z"></path>
                        </g>
                    </g>
                </g>
            </g>
        </g>
    </g>
</svg>