<?xml version="1.0" encoding="UTF-8"?>
<svg width="25px" height="25px" viewBox="0 0 25 25" version="1.1" xmlns="http://www.w3.org/2000/svg" xmlns:xlink="http://www.w3.org/1999/xlink">
    <!-- Generator: Sketch 55.2 (78181) - https://sketchapp.com -->
    <title>Shape</title>
    <desc>Created with Sketch.</desc>
    <g id="[STK]-Staking" stroke="none" stroke-width="1" fill="none" fill-rule="evenodd">
        <g id="[STK-D]-01-announcement-banner" transform="translate(-180.000000, -146.000000)" stroke="#E72076" stroke-width="2">
            <g id="Group-12" transform="translate(156.000000, 130.000000)">
                <g id="iconfinder_star-empty_383218" transform="translate(24.000000, 16.000000)">
                    <path d="M12.2477865,2.80179298 L10.0642684,7.45336996 L9.2179714,9.25679174 L8.69041108,9.33737619 L7.30429421,9.54910454 L2.32261946,10.310445 L5.96079246,14.0392002 L7.31569088,15.4282501 L7.23453813,15.9261962 L6.99798119,17.3776886 L6.15000006,22.5768041 L10.5244601,20.1583894 L12.2476283,19.2061363 L12.7311998,19.4731479 L13.971347,20.1579149 L18.3456521,22.5762439 L17.4976512,17.3770073 L17.1799613,15.4276899 L17.5322404,15.0665313 L18.5349647,14.0385325 L22.1730135,10.3099046 L17.1909015,9.54855603 L15.277148,9.25623158 L15.0504293,8.77310389 L14.4308861,7.4528845 L12.2477865,2.80179298 Z" id="Shape"></path>
                </g>
            </g>
        </g>
    </g>
</svg>