<?xml version="1.0" encoding="UTF-8"?>
<svg width="82px" height="20px" viewBox="0 0 82 20" version="1.1" xmlns="http://www.w3.org/2000/svg" xmlns:xlink="http://www.w3.org/1999/xlink">
    <!-- Generator: Sketch 53.1 (72631) - https://sketchapp.com -->
    <title>ledger</title>
    <desc>Created with Sketch.</desc>
    <g id="✅--Done" stroke="none" stroke-width="1" fill="none" fill-rule="evenodd">
        <g id="01-04-key-file-mobile" transform="translate(-204.000000, -917.000000)" fill="#FFFFFF" fill-rule="nonzero">
            <g id="Group-11" transform="translate(40.000000, 262.000000)">
                <g id="Group-9" transform="translate(15.000000, 362.000000)">
                    <g id="Group-8" transform="translate(17.000000, 274.000000)">
                        <g id="ledger" transform="translate(132.000000, 19.000000)">
                            <path d="M14.1484776,6.51614327e-06 L6.4312838,0 L6.4312838,10.3502305 L16.84569,10.3502305 L16.8456835,2.6805916 C16.8472624,1.96917633 16.5636004,1.2864469 16.0574335,0.783399111 C15.5512666,0.280351325 14.864304,-0.00156270556 14.1484776,6.51614327e-06 Z M4.02463751,0 L2.6972124,6.51614327e-06 C1.98138605,-0.00156270556 1.29442341,0.280351325 0.788256515,0.783399111 C0.282089622,1.2864469 -0.00157239499,1.96917633 6.5565461e-06,2.6805916 L4.4408921e-16,3.99899494 L4.02463751,3.99899494 L4.02463751,0 Z M6.5565461e-06,6.39165286 L4.02463751,6.39165286 L4.02463751,10.3914832 L6.5565461e-06,10.3914832 L6.5565461e-06,6.39165286 Z M12.862561,16.7418833 L14.1899861,16.7418768 C14.9058125,16.743446 15.5927751,16.461532 16.098942,15.9584842 C16.6051089,15.4554364 16.8887709,14.772707 16.887192,14.0612917 L16.8871985,12.7832992 L12.862561,12.7832992 L12.862561,16.7418833 L12.862561,16.7418833 Z M6.4312838,12.7832992 L10.4559147,12.7832992 L10.4559147,16.7831295 L6.4312838,16.7831295 L6.4312838,12.7832992 Z M0,12.7832992 L6.5565461e-06,14.1025444 C-0.00157239499,14.8139597 0.282089622,15.4966891 0.788256515,15.9997369 C1.29442341,16.5027847 1.98138605,16.7846987 2.6972124,16.7831295 L4.02379039,16.783136 L4.02379039,12.7832992 L0,12.7832992 L0,12.7832992 Z M27.1355576,1.07173541 L25.5573873,1.07173541 L25.5573873,15.7105587 L33.8972087,15.7105587 L33.8972087,14.3088081 L27.1347105,14.3088081 L27.1355576,1.07173541 Z M38.9603995,4.94864946 C35.8896171,4.94864946 33.7320218,7.21586542 33.7320218,10.4739886 L33.7320218,10.8444212 C33.7743774,12.2470138 34.3961579,13.566259 35.4338706,14.5563244 C36.4292276,15.4630424 37.7151442,15.9993278 39.084925,15.9993278 L39.2924675,15.9993278 C40.7444181,15.9993278 42.1133518,15.4630424 43.1925729,14.5563244 L43.2340814,14.5142298 L42.5284368,13.3608373 L42.4454198,13.4012482 C41.5745883,14.1850499 40.4953671,14.6388298 39.333976,14.6388298 C37.4254318,14.6388298 35.4753791,13.4012482 35.3508536,10.6389995 L43.3170985,10.6389995 L43.3170985,10.5564941 C43.3170985,10.5564941 43.358607,10.0614614 43.358607,9.81394506 C43.358607,6.84543281 41.6160968,4.94780756 38.9603995,4.94780756 L38.9603995,4.94864946 Z M35.3923621,9.31891239 C35.723583,7.46338176 37.0933638,6.26789469 38.8773824,6.26789469 C40.2048075,6.26789469 41.6576053,7.05085453 41.7812837,9.31891239 L35.3923621,9.31891239 Z M52.48709,6.18538925 L52.48709,6.72167464 C51.8126106,5.60512231 50.6021292,4.91781777 49.2917821,4.90739673 L49.1672566,4.90739673 C46.3463724,4.90739673 44.3954725,7.13335998 44.3954725,10.3914832 C44.3954725,13.6900172 46.2625082,15.9168223 49.0427311,15.9168223 C51.2418348,15.9168223 52.2371919,14.5975771 52.5692599,14.020039 L52.5692599,15.6280533 L54.0627191,15.6280533 L54.0627191,1.07173541 L52.5277514,1.07173541 L52.5277514,6.18538925 L52.4862429,6.18538925 L52.48709,6.18538925 Z M49.2502736,14.5563244 C47.3002209,14.5563244 46.0143043,12.9062155 46.0143043,10.4327359 C46.0143043,8.04091988 47.3832379,6.34955824 49.2917821,6.34955824 C50.9097668,6.34955824 52.5277514,7.62923454 52.5277514,10.4327359 C52.5277514,13.4837536 50.8267498,14.5563244 49.2494265,14.5563244 L49.2502736,14.5563244 Z M63.1496937,6.39165286 L63.1496937,6.4741583 C62.8591341,5.97912563 61.9467941,4.90739673 59.7476903,4.90739673 C56.9674675,4.90739673 55.1419403,7.0104437 55.1419403,10.2264723 C55.1419403,13.4425009 57.0504845,15.6280533 59.8722158,15.6280533 C61.4071835,15.6280533 62.444049,15.0926098 63.1496937,13.9787863 L63.1496937,15.4217897 C63.1496937,17.4423312 61.8637771,18.5974074 59.5816563,18.5974074 C58.5986071,18.5900576 57.6315197,18.3496313 56.760772,17.8961111 L56.6769079,17.8548584 L56.0957888,19.1336928 L56.1788058,19.1749455 C57.2479641,19.7091227 58.4265363,19.9914354 59.6231648,20 C62.0713196,20 64.6846613,18.7624183 64.6846613,15.3392842 L64.6846613,5.1953239 L63.1496937,5.1953239 L63.1496937,6.39081097 L63.1496937,6.39165286 Z M60.0789113,14.2675553 C58.0458415,14.2675553 56.7184164,12.7007938 56.7184164,10.267725 C56.7184164,7.79340354 57.8806546,6.39165286 59.8722158,6.39165286 C62.0704725,6.39165286 63.1081852,7.66964537 63.1081852,10.267725 C63.1496937,12.8245519 62.0704725,14.2667134 60.0789113,14.2667134 L60.0789113,14.2675553 Z M70.9499045,4.94864946 C67.8799692,4.94864946 65.7638825,7.21586542 65.7638825,10.4327359 L65.7638825,10.8031685 C65.805391,12.2057611 66.4271715,13.5250063 67.4648842,14.5150717 C68.4602412,15.4217897 69.7470049,15.9580751 71.1159385,15.9580751 L71.3234811,15.9580751 C72.7754317,15.9580751 74.1443653,15.4217897 75.2235865,14.5150717 L75.265095,14.472977 L74.5179419,13.3195846 L74.4349249,13.3599954 C73.5640933,14.1437972 72.4848722,14.5975771 71.3234811,14.5975771 C69.4149369,14.5975771 67.4648842,13.3599954 67.3403586,10.5977468 L75.348112,10.5977468 L75.348112,10.5152413 C75.348112,10.5152413 75.3896205,10.0202087 75.3896205,9.77269234 C75.3896205,6.84543281 73.6471104,4.94864946 70.9507516,4.94864946 L70.9499045,4.94864946 Z M67.4233757,9.31891239 C67.7554437,7.46338176 69.1243773,6.26789469 70.908396,6.26789469 C72.2358211,6.26789469 73.6886189,7.05085453 73.8131444,9.31891239 L67.4233757,9.31891239 Z M81.8624063,5.15407118 C81.6548638,5.11281846 81.4888297,5.11281846 81.2812872,5.07156573 C79.8293366,5.07156573 78.6255899,5.97912563 78.0029623,7.50463448 L78.0029623,5.15407118 L76.4688417,5.15407118 L76.5111973,15.5868006 L76.5111973,15.669306 L78.0868264,15.669306 L78.0868264,11.2577904 C78.0868264,10.5977468 78.1706905,9.89645051 78.3773859,9.27765966 C78.875488,7.66964537 79.9953706,6.6391692 81.3236428,6.6391692 C81.4896768,6.6391692 81.6557109,6.6391692 81.8217449,6.68042192 L81.9047619,6.68042192 L81.9047619,5.15407118 L81.8624063,5.15407118 L81.8624063,5.15407118 Z" id="Shape"></path>
                        </g>
                    </g>
                </g>
            </g>
        </g>
    </g>
</svg>