<svg xmlns="http://www.w3.org/2000/svg" width="21" height="31" viewBox="0 0 21 31">
  <path fill="#E72076" d="M2.1,12 L2.1,25.093498 L10.5,28.7987611 L18.9,25.093498 L18.9,12 L2.1,12 Z M0,10 L21,10 L21,26.3712831 L10.5,31.0028621 L0,26.3712831 L0,10 Z M5.26852566,9.95584828 L5.26852566,6.94736842 C5.26852566,4.240165 7.64641104,2 10.5,2 C13.3548298,2 15.7359431,4.24132969 15.7359431,6.94736842 L15.7359431,9.95584828 L17.8359431,9.95584828 L17.8359431,6.94736842 C17.8359431,3.11044279 14.4868056,0 10.5,0 C6.51319447,0 3.16852566,3.11044279 3.16852566,6.94736842 L3.16852566,9.95584828 L5.26852566,9.95584828 Z"/>
</svg>
