<svg xmlns="http://www.w3.org/2000/svg" width="48" height="48" viewBox="0 0 48 48">
  <g fill="none" fill-rule="evenodd">
    <rect width="48" height="48"/>
    <path fill="#E72076" fill-rule="nonzero" d="M12,24.7324356 L12,22.8880798 L12,24.7324356 Z M12,22.3112884 L12.9985481,21.7336595 C13.6144747,21.3773652 14,20.7233354 14,20 C14,18.8954305 13.1045695,18 12,18 C10.8954305,18 10,18.8954305 10,20 C10,20.7233354 10.3855253,21.3773652 11.0014519,21.7336595 L12,22.3112884 L12,22.8880798 L12,22.3112884 Z M8,20 C8,17.790861 9.790861,16 12,16 C14.209139,16 16,17.790861 16,20 C16,21.4805647 15.1956027,22.7732524 14,23.4648712 L14,26 L10,26 L10,23.4648712 C8.80439726,22.7732524 8,21.4805647 8,20 Z M2,13 L2,30 L22,30 L22,13 L2,13 Z M4,11 L4,7.67599611 C4,3.43666052 7.64854282,0 11.9975626,0 C16.3465824,0 20,3.43666052 20,7.67599611 L20,11 L22,11 C23.1045695,11 24,11.8954305 24,13 L24,30 C24,31.1045695 23.1045695,32 22,32 L2,32 C0.8954305,32 1.3527075e-16,31.1045695 0,30 L0,13 C-1.3527075e-16,11.8954305 0.8954305,11 2,11 L4,11 Z M6,11 L18,11 L18,7.67599611 C18,4.58639136 15.2871831,2 11.9975626,2 C8.70922609,2 6,4.58513023 6,7.67599611 L6,11 Z" transform="translate(12 7)"/>
  </g>
</svg>
