<?xml version="1.0" encoding="UTF-8"?>
<svg xmlns="http://www.w3.org/2000/svg" xmlns:xlink="http://www.w3.org/1999/xlink" width="781px" height="250px" viewBox="0 0 781 250" version="1.1">
<g id="surface1">
<path style=" stroke:none;fill-rule:nonzero;fill:rgb(77.647059%,100%,0%);fill-opacity:1;" d="M 49.28125 109.375 C 57.082031 87.53125 77.949219 71.898438 102.46875 71.898438 C 126.984375 71.898438 147.851562 87.53125 155.652344 109.375 C 156.035156 110.449219 157.039062 111.1875 158.179688 111.1875 L 180.09375 111.1875 C 181.757812 111.1875 183 109.65625 182.59375 108.039062 C 173.535156 72.214844 141.09375 45.707031 102.46875 45.707031 C 63.839844 45.707031 31.398438 72.214844 22.339844 108.039062 C 21.933594 109.65625 23.175781 111.1875 24.839844 111.1875 L 46.753906 111.1875 C 47.894531 111.1875 48.898438 110.449219 49.28125 109.375 Z M 49.28125 109.375 "/>
<path style=" stroke:none;fill-rule:nonzero;fill:rgb(77.647059%,100%,0%);fill-opacity:1;" d="M 46.753906 145.566406 C 47.894531 145.566406 48.898438 146.308594 49.28125 147.382812 C 57.082031 169.226562 77.949219 184.859375 102.46875 184.859375 C 126.984375 184.859375 147.851562 169.226562 155.652344 147.382812 C 156.035156 146.308594 157.039062 145.566406 158.179688 145.566406 L 180.09375 145.566406 C 181.757812 145.566406 183 147.101562 182.59375 148.714844 C 173.535156 184.539062 141.09375 211.050781 102.46875 211.050781 C 63.839844 211.050781 31.398438 184.539062 22.339844 148.714844 C 21.933594 147.101562 23.175781 145.566406 24.839844 145.566406 Z M 46.753906 145.566406 "/>
<path style=" stroke:none;fill-rule:nonzero;fill:rgb(77.647059%,100%,0%);fill-opacity:1;" d="M 87.902344 111.1875 C 86.457031 111.1875 85.28125 112.363281 85.28125 113.808594 L 85.28125 142.949219 C 85.28125 144.394531 86.457031 145.566406 87.902344 145.566406 L 117.03125 145.566406 C 118.476562 145.566406 119.652344 144.394531 119.652344 142.949219 L 119.652344 113.808594 C 119.652344 112.363281 118.476562 111.1875 117.03125 111.1875 Z M 87.902344 111.1875 "/>
<path style=" stroke:none;fill-rule:evenodd;fill:rgb(100%,100%,100%);fill-opacity:1;" d="M 654 69.441406 L 758.738281 69.441406 L 758.738281 95.636719 L 719.460938 95.636719 L 719.460938 161.121094 L 758.738281 161.121094 L 758.738281 187.3125 L 654 187.3125 L 654 161.121094 L 693.277344 161.121094 L 693.277344 95.636719 L 654 95.636719 Z M 542.714844 148.023438 L 542.714844 187.3125 L 516.53125 187.3125 L 516.53125 121.828125 C 516.53125 92.898438 539.976562 69.441406 568.898438 69.441406 L 634.363281 69.441406 L 634.363281 95.636719 L 568.898438 95.636719 C 554.4375 95.636719 542.714844 107.363281 542.714844 121.828125 L 634.351562 121.828125 L 634.351562 148.023438 Z M 241.585938 69.445312 L 307.050781 69.445312 C 335.972656 69.445312 359.417969 92.898438 359.417969 121.832031 L 359.417969 187.3125 L 333.234375 187.3125 L 333.234375 121.832031 C 333.234375 107.363281 321.511719 95.636719 307.050781 95.636719 L 267.773438 95.636719 L 267.773438 187.3125 L 241.585938 187.3125 Z M 496.875 187.3125 L 431.414062 187.3125 C 402.492188 187.3125 379.042969 163.859375 379.042969 134.925781 L 379.042969 69.441406 L 405.230469 69.441406 L 405.230469 134.925781 C 405.230469 149.390625 416.953125 161.121094 431.414062 161.121094 L 470.691406 161.121094 L 470.691406 69.441406 L 496.875 69.441406 L 496.875 161.117188 L 470.699219 161.117188 L 470.699219 187.3125 Z M 496.875 187.3125 "/>
</g>
</svg>
