<?xml version="1.0" encoding="UTF-8"?>
<svg width="16px" height="16px" viewBox="0 0 16 16" version="1.1" xmlns="http://www.w3.org/2000/svg" xmlns:xlink="http://www.w3.org/1999/xlink">
    <!-- Generator: Sketch 52.4 (67378) - http://www.bohemiancoding.com/sketch -->
    <title>Group 7</title>
    <desc>Created with Sketch.</desc>
    <g id="✅--Done" stroke="none" stroke-width="1" fill="none" fill-rule="evenodd">
        <g id="02-01-dashboard" transform="translate(-349.000000, -349.000000)">
            <g id="Group-8" transform="translate(212.000000, 256.000000)">
                <g id="Group-7" transform="translate(137.000000, 93.000000)">
                    <circle id="Oval" fill="#E6E6E6" cx="8" cy="8" r="8"></circle>
                    <path d="M4.82762446,4.58019169 C5.54295807,3.6600639 6.57986367,3.2 7.93177856,3.2 C8.89649453,3.2 9.68401777,3.43309904 10.2943483,3.89929712 C10.8981161,4.37162939 11.2,5.00958466 11.2,5.81316294 C11.2,6.7884984 10.7537368,7.47552716 9.86777319,7.88651757 C9.7496447,7.94172524 9.57245197,8.00920128 9.3427577,8.08894569 C9.11306342,8.1686901 8.95555877,8.23616613 8.87024375,8.28523962 C8.69961372,8.38952077 8.48304483,8.67782748 8.48304483,9.1685623 L8.48304483,9.70837061 C8.48304483,9.81878594 8.42398059,9.87399361 8.31241479,9.86785942 L7.54457964,9.86785942 C7.42645115,9.86785942 7.36738691,9.81265176 7.36738691,9.70837061 L7.36738691,8.86798722 C7.36738691,8.32817891 7.49207809,7.97853035 7.85302624,7.70249201 C8.03021897,7.56140575 8.200849,7.45099042 8.36491634,7.37124601 C8.52898368,7.2915016 8.76524065,7.19948882 9.07368726,7.0829393 C9.73651932,6.8314377 10.0318405,6.50632588 10.0318405,5.83769968 C10.0318405,4.75194888 9.25087999,4.18146965 7.97115472,4.18146965 C7.00643876,4.18146965 6.21891552,4.5372524 5.6217104,5.24881789 C5.54952077,5.3285623 5.42482959,5.34083067 5.35263996,5.26108626 L4.85387524,4.78261981 C4.794811,4.71514377 4.78168561,4.64766773 4.82762446,4.58019169 Z M7.90552779,12.8 C7.63645735,12.8 7.40676307,12.7079872 7.21644495,12.5300958 C7.02612684,12.3522045 6.92768643,12.1313738 6.92768643,11.8798722 C6.92768643,11.640639 7.02612684,11.4259425 7.21644495,11.2480511 C7.40676307,11.0701597 7.63645735,10.978147 7.90552779,10.978147 C8.16147284,10.978147 8.39116712,11.0701597 8.58804793,11.2480511 C8.77836604,11.4259425 8.87680645,11.640639 8.87680645,11.8798722 C8.87680645,12.1313738 8.77836604,12.3460703 8.58804793,12.5239617 C8.39116712,12.7079872 8.16147284,12.8 7.90552779,12.8 Z" id="?" fill="#20323F"></path>
                </g>
            </g>
        </g>
    </g>
</svg>