<?xml version="1.0" encoding="UTF-8"?>
<svg width="18px" height="18px" viewBox="0 0 18 18" version="1.1" xmlns="http://www.w3.org/2000/svg" xmlns:xlink="http://www.w3.org/1999/xlink">
    <!-- Generator: Sketch 52.4 (67378) - http://www.bohemiancoding.com/sketch -->
    <title>Group 34</title>
    <desc>Created with Sketch.</desc>
    <g id="✅--Done" stroke="none" stroke-width="1" fill="none" fill-rule="evenodd">
        <g id="02-01-dashboard" transform="translate(-547.000000, -303.000000)" stroke="#606A71" stroke-width="2">
            <g id="Group-33" transform="translate(518.000000, 288.000000)">
                <g id="Group-32" transform="translate(23.000000, 11.000000)">
                    <g id="Group-34">
                        <g id="Group-31" transform="translate(14.575369, 13.329684) rotate(-32.000000) translate(-14.575369, -13.329684) translate(3.075369, 4.829684)">
                            <path d="M4.47434732,8.19469097 C4.47434732,12.612969 7.67313747,16.194691 11.6190451,16.194691 C14.225606,16.194691 16.506157,14.6317816 17.7540139,12.2972451" id="Path"></path>
                            <path d="M19.0935242,8.59157642 C19.0935242,4.17329842 15.8994996,0.59157642 11.9594705,0.59157642 C9.50679889,0.59157642 7.3432095,1.97952003 6.05922273,4.09320823" id="Path"></path>
                            <polyline id="Path-9" transform="translate(4.589424, 8.784697) rotate(-10.000000) translate(-4.589424, -8.784697) " points="8.08942406 10.3052135 4.58942406 7.26418107 1.08942406 10.3052135"></polyline>
                            <polyline id="Path-9" transform="translate(19.034274, 8.081069) rotate(-7.000000) translate(-19.034274, -8.081069) " points="22.5342738 6.5810685 19.0342738 9.5810685 15.5342738 6.5810685"></polyline>
                        </g>
                    </g>
                </g>
            </g>
        </g>
    </g>
</svg>