<?xml version="1.0" encoding="UTF-8"?>
<svg width="24px" height="28px" viewBox="0 0 24 28" version="1.1" xmlns="http://www.w3.org/2000/svg" xmlns:xlink="http://www.w3.org/1999/xlink">
    <!-- Generator: Sketch 52.4 (67378) - http://www.bohemiancoding.com/sketch -->
    <title>Group 2</title>
    <desc>Created with Sketch.</desc>
    <g id="design" stroke="none" stroke-width="1" fill="none" fill-rule="evenodd">
        <g id="01-01-02-landing-notice" transform="translate(-840.000000, -469.000000)" stroke="#E72076" stroke-width="2">
            <g id="Group-19" transform="translate(324.000000, 130.000000)">
                <g id="Group-14" transform="translate(504.000000, 328.000000)">
                    <g id="Group-2" transform="translate(12.000000, 11.000000)">
                        <path d="M1.44477701,3.29108338 C1.44200058,3.28952956 1.43922266,3.28797033 1.43644321,3.2864057 C1.44422443,3.29078597 1.45248323,3.29460575 1.46113898,3.29790823 Z M1.74419483,3.43873753 C1.63941753,3.68126958 1.53180293,4.06008368 1.43842899,4.55205579 C1.19560312,5.83146584 1.06491382,7.71539487 1.01943966,10.1541123 C0.99574386,11.4248857 0.995312538,12.5580215 1.00852313,14.5073865 C1.01589881,15.595749 1.01709218,15.8071655 1.01709218,16.2106603 C1.01709218,18.98644 2.58697432,20.5813527 6.92679982,23.1000514 C7.0554104,23.1746929 7.61838401,23.5003038 7.76834683,23.5873873 C9.83282212,24.7862288 11.0741716,25.6204716 11.9882084,26.5682216 C12.9033445,25.6199697 14.1471515,24.7854248 16.2152176,23.5869434 C16.3665366,23.4992513 16.9341713,23.1716312 17.0636519,23.0966389 C21.4095243,20.5796066 22.9829078,18.9842034 22.9829078,16.2106603 C22.9829078,15.8071655 22.9841012,15.595749 22.9914769,14.5073865 C23.0046875,12.5580215 23.0042561,11.4248857 22.9805603,10.1541123 C22.9350862,7.71539487 22.8043969,5.83146584 22.561571,4.55205579 C22.4682028,4.06011409 22.3605958,3.68131642 22.2558246,3.43878251 C21.271389,3.85299793 20.2230165,3.5406883 16.5658629,2.21714778 C16.3385609,2.13488617 16.1561321,2.06927257 15.980767,2.00685076 C14.0435612,1.31729559 12.8541331,1 12.0085461,1 C11.1617985,1 9.96970443,1.31779241 8.02355537,2.00930613 C7.84966597,2.07109323 7.66875623,2.13603106 7.44350657,2.2173777 C3.78046008,3.54024999 2.72896262,3.85278725 1.74419483,3.43873753 Z M12.0874465,27.8545101 L11.988077,27.9272551 L11.8887075,27.8545101 L11.8887075,27 L12.0874465,27 L12.0874465,27.8545101 Z" id="Shape"></path>
                    </g>
                </g>
            </g>
        </g>
    </g>
</svg>