<?xml version="1.0" encoding="UTF-8"?>
<svg width="24px" height="24px" viewBox="0 0 24 24" version="1.1" xmlns="http://www.w3.org/2000/svg" xmlns:xlink="http://www.w3.org/1999/xlink">
    <!-- Generator: Sketch 52.4 (67378) - http://www.bohemiancoding.com/sketch -->
    <title>Combined Shape</title>
    <desc>Created with Sketch.</desc>
    <g id="design" stroke="none" stroke-width="1" fill="none" fill-rule="evenodd" fill-opacity="0.4">
        <g id="01-01-landing" transform="translate(-489.000000, -1099.000000)" fill="#FFFFFF">
            <g id="Group-16" transform="translate(0.000000, 944.000000)">
                <g id="Group-11" transform="translate(489.000000, 153.000000)">
                    <path d="M12,26 C5.372583,26 0,20.627417 0,14 C0,7.372583 5.372583,2 12,2 C18.627417,2 24,7.372583 24,14 C24,20.627417 18.627417,26 12,26 Z M12.3930667,16.8677333 C12.4397333,16.9005333 12.4821333,16.9290667 12.5229333,16.9586667 C13.3781333,17.5904 14.2330667,18.2232 15.0888,18.8538667 C15.5997333,19.2306667 16.0357333,19.0685333 16.168,18.4477333 C16.7248,15.8330667 17.2792,13.2176 17.8330667,10.6024 C17.9032,10.2712 17.9901333,9.94106667 18.0224,9.6056 C18.0728,9.08106667 17.7,8.81706667 17.2149333,9.00453333 C14.664,9.98933333 12.1133333,10.9733333 9.56266667,11.9581333 C8.5576,12.3456 7.55093333,12.7296 6.5496,13.1264 C6.37733333,13.1946667 6.21146667,13.3018667 6.07253333,13.4248 C5.92213333,13.5581333 5.94666667,13.7434667 6.1144,13.8570667 C6.22293333,13.9309333 6.3496,13.9832 6.4752,14.0232 C7.29146667,14.2826667 8.10906667,14.5386667 8.92826667,14.7888 C9.0344,14.8216 9.084,14.8725333 9.1176,14.9773333 C9.46346667,16.0576 9.81626667,17.1341333 10.164,18.2133333 C10.2117333,18.3608 10.2986667,18.4290667 10.4541333,18.4373333 C10.6818667,18.4493333 10.8602667,18.3629333 11.0189333,18.2066667 C11.4728,17.7605333 11.9309333,17.3178667 12.3930667,16.8677333 Z M10.4722667,17.6618667 C10.2944,17.1170667 10.1165333,16.5722667 9.93866667,16.0272 C9.80506667,15.6176 9.67626667,15.2072 9.53466667,14.8005333 C9.49333333,14.6813333 9.5136,14.6234667 9.62213333,14.5552 C11.5426667,13.3488 13.4602667,12.1378667 15.3794667,10.9290667 C15.4696,10.8722667 15.5653333,10.8136 15.6664,10.7874667 C15.7405333,10.7682667 15.828,10.8010667 15.9096,10.8098667 C15.8728,10.8770667 15.8504,10.9597333 15.7968,11.0082667 C14.9304,11.7957333 14.0605333,12.5792 13.1909333,13.3634667 C12.4053333,14.0717333 11.6213333,14.7816 10.8325333,15.4869333 C10.7330667,15.576 10.6877333,15.6698667 10.6770667,15.8021333 C10.6293333,16.396 10.5712,16.9885333 10.5162667,17.5813333 C10.5141333,17.6056 10.5064,17.6296 10.5010667,17.6541333 C10.4914667,17.6565333 10.4818667,17.6592 10.4722667,17.6618667 Z" id="Combined-Shape"></path>
                </g>
            </g>
        </g>
    </g>
</svg>