<?xml version="1.0" encoding="UTF-8"?>
<svg width="24px" height="24px" viewBox="0 0 24 24" version="1.1" xmlns="http://www.w3.org/2000/svg" xmlns:xlink="http://www.w3.org/1999/xlink">
    <!-- Generator: Sketch 52.4 (67378) - http://www.bohemiancoding.com/sketch -->
    <title>Group</title>
    <desc>Created with Sketch.</desc>
    <g id="design" stroke="none" stroke-width="1" fill="none" fill-rule="evenodd" opacity="0.5">
        <g id="01-01-landing" transform="translate(-156.000000, -1099.000000)" fill="#FFFFFF" fill-rule="nonzero">
            <g id="Group-16" transform="translate(0.000000, 944.000000)">
                <g id="Group-11" transform="translate(156.000000, 153.000000)">
                    <g id="button-email" transform="translate(0.000000, 2.000000)">
                        <g id="Group">
                            <path d="M12,0 C5.37159375,0 0,5.373 0,12 C0,18.627 5.37159375,24 12,24 C18.627,24 24,18.627 24,12 C24,5.373 18.627,0 12,0 Z M17.65575,12.8539687 C17.4257813,13.4164687 17.1195937,13.888125 16.7387813,14.2719375 C16.3579688,14.6513437 15.9199688,14.9414062 15.4306875,15.1303125 C14.9429063,15.325125 14.439,15.420375 13.923375,15.420375 C13.6171875,15.420375 13.3725938,15.326625 13.1895,15.140625 C13.0064063,14.953125 12.9053438,14.7304687 12.8819063,14.4726562 C12.6358125,14.811 12.3574688,15.0497812 12.0542813,15.1992187 C11.7451875,15.34275 11.3878125,15.420375 10.9776563,15.420375 C10.59975,15.420375 10.2613125,15.3485625 9.96103125,15.2079375 C9.66215625,15.0688125 9.41025,14.8813125 9.20221875,14.6483437 C8.99859375,14.4227812 8.8389375,14.1561562 8.72465625,13.8646875 C8.61328125,13.5717187 8.5576875,13.2758437 8.5576875,12.9725625 C8.5576875,12.4745625 8.6514375,11.9764687 8.833125,11.46675 C9.01621875,10.9628437 9.26821875,10.5043125 9.5919375,10.0941562 C9.91425,9.684 10.3052813,9.3470625 10.7638125,9.08784375 C11.22375,8.83003125 11.7305625,8.701125 12.2814375,8.701125 C12.5524688,8.701125 12.7941563,8.7465 13.0050938,8.8359375 C13.2160313,8.925375 13.3947188,9.03515625 13.5441563,9.1640625 C13.6905938,9.29296875 13.8136875,9.42628125 13.9133438,9.5625 C14.0115,9.6973125 14.0832188,9.8379375 14.1184688,9.939 L14.4726563,9 L15.5492813,9 L14.169375,13.5497812 C14.1092812,13.7549062 14.0829375,13.9071562 14.0829375,14.02875 C14.0829375,14.3085 14.1957187,14.4448125 14.436,14.4448125 C14.575125,14.4448125 14.7831562,14.4023437 15.0615,14.3144062 C15.3354375,14.2294687 15.6151875,14.061 15.8964375,13.8060937 C16.1791875,13.5570937 16.4252813,13.2069375 16.640625,12.761625 C16.8515625,12.3163125 16.9599375,11.728875 16.9599375,10.9965 C16.9599375,10.4003437 16.8369375,9.855375 16.59075,9.357375 C16.3373438,8.8651875 16.0063125,8.4375 15.58875,8.0844375 C15.1712813,7.72846875 14.6937188,7.453125 14.15325,7.2583125 C13.6141875,7.06059375 13.0516875,6.9609375 12.4759688,6.9609375 C11.71275,6.9609375 11.0023125,7.09575 10.3504688,7.359375 C9.697125,7.623 9.1273125,7.9921875 8.63953125,8.46534375 C8.15025,8.93559375 7.7694375,9.49809375 7.49109375,10.1440312 C7.21565625,10.7914687 7.07653125,11.4901875 7.07653125,12.2460937 C7.07653125,12.9638437 7.21865625,13.6200937 7.510125,14.2119375 C7.7986875,14.8007812 8.17959375,15.3046875 8.6570625,15.7236562 C9.133125,16.1382187 9.6795,16.4560312 10.2976875,16.6845937 C10.915875,16.9101562 11.5575,17.0244375 12.228375,17.0244375 C13.135125,17.0244375 13.9335,16.8002812 14.6205,16.4517187 C15.3075938,16.1000625 15.858375,15 16.265625,15 L17.34375,15 C17.1460313,15 16.8617813,15.9711562 16.4926875,16.3330312 C16.1176875,16.6948125 15.6973125,17.015625 15.21975,17.2588125 C14.7436875,17.499 14.2280625,17.6953125 13.6670625,17.8125 C13.1074688,17.9296875 12.5391563,17.9941875 11.9649375,17.9941875 C11.1988125,17.9941875 10.457625,17.8564687 9.74128125,17.5752187 C9.02353125,17.2939687 8.38771875,16.8999375 7.83703125,16.3945312 C7.28334375,15.889125 6.83803125,15.2885625 6.50259375,14.5883437 C6.1700625,13.8940312 6.0001875,13.1279062 6.0001875,12.2929687 C6.0001875,11.3262187 6.17746875,10.454625 6.5304375,9.6796875 C6.882,8.90184375 7.3565625,8.2426875 7.9513125,7.69771875 C8.5460625,7.14984375 9.2315625,6.73096875 10.0153125,6.43940625 C10.7989688,6.1464375 11.6222813,5.99990625 12.4952813,5.99990625 C13.1999063,5.99990625 13.8854063,6.1215 14.5489688,6.3631875 C15.2125313,6.603375 15.7999688,6.9433125 16.3125938,7.37540625 C16.8253125,7.8105 17.2324688,8.326125 17.5386563,8.92959375 C17.8448438,9.52875 18.0000938,10.1894062 18.0000938,10.9115625 C18,11.642625 17.8813125,12.2885625 17.65575,12.8539687 Z M12.3002812,9.6973125 C11.982375,9.6973125 11.6689687,9.796875 11.3554687,10.0005 C11.0449687,10.202625 10.7637187,10.4590312 10.5175312,10.768125 C10.2714375,11.078625 10.0722187,11.4141562 9.92578125,11.7788437 C9.77784375,12.1465312 9.704625,12.4921875 9.704625,12.8189062 C9.704625,13.0210312 9.73246875,13.22025 9.78375,13.4180625 C9.8379375,13.6172812 9.91996875,13.7930625 10.03425,13.9483125 C10.144125,14.1079687 10.2876562,14.235375 10.4649375,14.330625 C10.6407187,14.425875 10.8545625,14.47275 11.1006562,14.47275 C11.5459687,14.47275 11.9766562,14.3233125 12.3868125,14.0274375 C12.7984687,13.7256563 13.1016562,13.300875 13.2876562,12.7500937 C13.3829062,12.458625 13.456125,12.2168437 13.5074062,12.0250312 C13.5586875,11.834625 13.6040625,11.6792812 13.6304062,11.5606875 C13.6640625,11.4435 13.6787812,11.3541562 13.6816875,11.2911562 C13.6905,11.2281562 13.6919062,11.1754687 13.6919062,11.1315 C13.6919062,10.7038125 13.5570937,10.3580625 13.2876562,10.0944375 C13.016625,9.827625 12.687,9.6973125 12.3002812,9.6973125 Z" id="Shape"></path>
                        </g>
                    </g>
                </g>
            </g>
        </g>
    </g>
</svg>