<?xml version="1.0" encoding="UTF-8"?>
<svg width="24px" height="24px" viewBox="0 0 24 24" version="1.1" xmlns="http://www.w3.org/2000/svg" xmlns:xlink="http://www.w3.org/1999/xlink">
    <!-- Generator: Sketch 52.4 (67378) - http://www.bohemiancoding.com/sketch -->
    <title>Shape</title>
    <desc>Created with Sketch.</desc>
    <g id="design" stroke="none" stroke-width="1" fill="none" fill-rule="evenodd" opacity="0.4">
        <g id="01-01-landing" transform="translate(-489.000000, -1148.000000)" fill="#FFFFFF" fill-rule="nonzero">
            <g id="Group-16" transform="translate(0.000000, 944.000000)">
                <g id="Group-11" transform="translate(489.000000, 153.000000)">
                    <path d="M12,51 C5.3725,51 0,56.3725 0,63 C0,69.6275 5.3725,75 12,75 C18.6275,75 24,69.6275 24,63 C24,56.3725 18.6275,51 12,51 Z M16.88125,60.83 C16.88625,60.9325 16.8875,61.035 16.8875,61.135 C16.8875,64.26 14.51125,67.86125 10.16375,67.86125 C8.82875,67.86125 7.58625,67.47125 6.54125,66.79875 C6.725,66.82125 6.91375,66.83 7.105,66.83 C8.2125,66.83 9.23125,66.45375 10.04,65.81875 C9.00625,65.79875 8.13375,65.11625 7.8325,64.17875 C7.97625,64.205 8.12375,64.22 8.27625,64.22 C8.49125,64.22 8.70125,64.19125 8.89875,64.1375 C7.8175,63.92 7.0025,62.965 7.0025,61.82 L7.0025,61.79125 C7.32125,61.9675 7.68625,62.075 8.07375,62.0875 C7.43875,61.6625 7.0225,60.94 7.0225,60.11875 C7.0225,59.68625 7.13875,59.27875 7.3425,58.93 C8.50875,60.36 10.24875,61.3 12.21375,61.40125 C12.1725,61.2275 12.1525,61.0475 12.1525,60.86125 C12.1525,59.5575 13.21,58.4975 14.51625,58.4975 C15.195,58.4975 15.81,58.785 16.24125,59.245 C16.78,59.1375 17.285,58.9425 17.74125,58.67125 C17.565,59.2225 17.19125,59.68625 16.7025,59.98 C17.18125,59.92125 17.63625,59.795 18.06,59.60625 C17.74375,60.08 17.3425,60.4975 16.88125,60.83 Z" id="Shape"></path>
                </g>
            </g>
        </g>
    </g>
</svg>