<?xml version="1.0" encoding="UTF-8"?>
<svg width="24px" height="24px" viewBox="0 0 24 24" version="1.1" xmlns="http://www.w3.org/2000/svg" xmlns:xlink="http://www.w3.org/1999/xlink">
    <!-- Generator: Sketch 52.4 (67378) - http://www.bohemiancoding.com/sketch -->
    <title>Shape</title>
    <desc>Created with Sketch.</desc>
    <g id="design" stroke="none" stroke-width="1" fill="none" fill-rule="evenodd" opacity="0.5">
        <g id="01-01-landing" transform="translate(-156.000000, -1148.000000)" fill="#FFFFFF" fill-rule="nonzero">
            <g id="Group-16" transform="translate(0.000000, 944.000000)">
                <g id="Group-11" transform="translate(156.000000, 153.000000)">
                    <path d="M12.01875,62.93625 C12.01875,62.93625 12.00625,62.93625 12,62.93625 L11.98125,62.93625 C10.4925,62.93625 9.18125,62.5575 8.405,63.27125 C7.94125,63.69875 7.74625,64.21375 7.74625,64.7675 C7.74625,67.0825 9.6,67.3675 11.9825,67.3675 L12.01875,67.3675 C14.4,67.3675 16.255,67.08125 16.255,64.7675 C16.255,64.21375 16.06,63.6975 15.59625,63.27125 C14.81875,62.5575 13.5075,62.93625 12.01875,62.93625 Z M9.99125,66.1 C9.5375,66.1 9.17125,65.59 9.17125,64.9625 C9.17125,64.335 9.5375,63.8275 9.99125,63.8275 C10.445,63.8275 10.8125,64.335 10.8125,64.9625 C10.81375,65.59 10.44625,66.1 9.99125,66.1 Z M14.0075,66.1 C13.55375,66.1 13.18625,65.59 13.18625,64.9625 C13.18625,64.335 13.55375,63.8275 14.0075,63.8275 C14.46,63.8275 14.8275,64.335 14.8275,64.9625 C14.82875,65.59 14.46125,66.1 14.0075,66.1 Z M12,51 C5.3725,51 0,56.3725 0,63 C0,69.6275 5.3725,75 12,75 C18.6275,75 24,69.6275 24,63 C24,56.3725 18.6275,51 12,51 Z M13.095,67.92375 C12.88,67.92375 12.4525,67.92375 12,67.92625 C11.5475,67.92375 11.12,67.92375 10.905,67.92375 C9.955,67.92375 6.19,67.85 6.19,63.3125 C6.19,62.27 6.5475,61.50625 7.13375,60.86875 C7.04125,60.63875 7.03625,59.32875 7.53375,58.07375 C7.53375,58.07375 8.67875,58.19875 10.41,59.3875 C10.77125,59.28625 11.38625,59.235 12,59.235 C12.61375,59.235 13.2275,59.28625 13.59125,59.38625 C15.3225,58.1975 16.4675,58.0725 16.4675,58.0725 C16.965,59.3275 16.96125,60.63875 16.8675,60.8675 C17.45375,61.505 17.81125,62.26875 17.81125,63.31125 C17.81,67.85125 14.045,67.92375 13.095,67.92375 Z" id="Shape"></path>
                </g>
            </g>
        </g>
    </g>
</svg>