<?xml version="1.0" encoding="utf-8"?>
<svg viewBox="0.824 50.555 498.973 449.075" xmlns="http://www.w3.org/2000/svg">
  <g transform="matrix(0.974556, 0, 0, 0.974556, 0.823814, 25.60671)" style="">
    <path d="M43.7,171.7L128,87.4l84.3,84.3c10,10,26.2,10,36.2,0s10-26.2,0-36.2L146.1,33.1c-10-10-26.2-10-36.2,0L7.5,135.5 c-10,10-10,26.2,0,36.2C17.5,181.7,33.7,181.7,43.7,171.7L43.7,171.7z" style="fill: rgb(96, 106, 113);"/>
    <path d="M102.4,51.2v230.4c0,14.1,11.5,25.6,25.6,25.6c14.1,0,25.6-11.5,25.6-25.6V51.2c0-14.1-11.5-25.6-25.6-25.6 C113.9,25.6,102.4,37.1,102.4,51.2" style="fill: rgb(96, 106, 113);"/>
    <path d="M263.5,376.5l102.4,102.4c4.8,4.8,11.4,7.5,18.1,7.5s13.3-2.7,18.1-7.5l102.4-102.4c10-10,10-26.2,0-36.2s-26.2-10-36.2,0 L384,424.6l-84.3-84.3c-10-10-26.2-10-36.2,0C253.5,350.3,253.5,366.5,263.5,376.5L263.5,376.5z" style="fill: rgb(96, 106, 113);"/>
    <path d="M358.4,204.8v256c0,14.1,11.5,25.6,25.6,25.6s25.6-11.5,25.6-25.6v-256c0-14.1-11.5-25.6-25.6-25.6 S358.4,190.7,358.4,204.8" style="fill: rgb(96, 106, 113);"/>
  </g>
</svg>