<svg xmlns="http://www.w3.org/2000/svg" width="14" height="16" viewBox="0 0 14 16">
  <path fill="none" stroke="#E72076" d="M194.888403,365.821005 C194.886481,365.819953 194.884557,365.818897 194.882633,365.817836 C194.887864,365.82072 194.894976,365.822291 194.903171,365.82295 Z M194.975943,365.865773 C194.900016,366.00394 194.822345,366.251701 194.756853,366.589728 C194.614371,367.325119 194.537939,368.404435 194.511351,369.801212 C194.497515,370.528033 194.497264,371.175934 194.504973,372.290349 C194.509274,372.912087 194.50997,373.032868 194.50997,373.263234 C194.50997,374.880698 195.441802,375.808067 197.994942,377.25959 C198.070043,377.302286 198.398431,377.488342 198.485826,377.538057 C199.732387,378.247162 200.460144,378.730849 200.993101,379.293724 C201.526637,378.730578 202.255837,378.246707 203.50452,377.53784 C203.592705,377.487779 203.923813,377.300574 203.999421,377.257677 C206.556129,375.807109 207.49003,374.879465 207.49003,373.263234 C207.49003,373.032868 207.490726,372.912087 207.495027,372.290349 C207.502736,371.175934 207.502485,370.528033 207.488649,369.801212 C207.462061,368.404435 207.385629,367.325119 207.243147,366.589728 C207.177656,366.251708 207.099987,366.003949 207.024061,365.865781 C206.454185,366.13603 205.879901,365.975518 203.69486,365.20088 C203.523814,365.140325 203.455575,365.116282 203.353107,365.080553 C202.212928,364.682985 201.512692,364.5 201.004985,364.5 C200.496612,364.5 199.794863,364.683257 198.649462,365.081939 C198.547859,365.117305 198.480228,365.141085 198.310663,365.200991 C196.122055,365.975254 195.545891,366.135937 194.975943,365.865773 Z M201.05101,379.913363 L200.993045,379.956681 L200.935079,379.913363 L200.935079,379.5 L201.05101,379.5 L201.05101,379.913363 Z" transform="translate(-194 -364)"/>
</svg>
