<svg xmlns="http://www.w3.org/2000/svg" width="12" height="16" viewBox="0 0 12 16">
  <g fill="none" fill-rule="evenodd">
    <rect width="12" height="16"/>
    <path fill="#9CA2A6" d="M7.92857143,1.00486666 C6.02380952,1.00486666 4.99745078,1.67153333 4.99745078,3.00486666 L4.99745078,6.00704327 L5.99739784,6.00704327 L5.99739784,7 L4.99745078,7 L4.99745078,10.9994405 C4.99745078,12.3327738 5.94983173,12.9994405 7.85459364,12.9994405 L8.42602221,12.9994405 L8.5,14 L7.92857143,14 C6.30952381,14 5.16666667,13.5654762 4.5,12.6964286 C3.83333333,13.5654762 2.69047619,14 1.07142857,14 L0.5,14 L0.569572696,12.9994405 L1.14100127,12.9994405 C3.04576317,12.9994405 3.99814412,12.3327738 3.99814412,10.9994405 L3.99814412,7 L3.01346574,7 L3.01346574,6.00704327 L3.99814412,6.00704327 L3.99814412,3.00486666 C3.99814412,1.67153333 3.04576317,1.00486666 1.14100127,1.00486666 L0.569572696,1.00486666 L0.5,9.76996262e-15 L1.07142857,9.76996262e-15 C2.69047619,9.76996262e-15 3.83333333,0.43452381 4.5,1.30357143 C5.16666667,0.43452381 6.30952381,9.76996262e-15 7.92857143,9.76996262e-15 L8.5,9.76996262e-15 L8.5,1.00486666 L7.92857143,1.00486666 Z" transform="translate(2 1)"/>
  </g>
</svg>
