<?xml version="1.0" encoding="UTF-8"?>
<svg width="79px" height="23px" viewBox="0 0 79 23" version="1.1" xmlns="http://www.w3.org/2000/svg" xmlns:xlink="http://www.w3.org/1999/xlink">
    <!-- Generator: Sketch 52.4 (67378) - http://www.bohemiancoding.com/sketch -->
    <title>Group 4</title>
    <desc>Created with Sketch.</desc>
    <g id="design" stroke="none" stroke-width="1" fill="none" fill-rule="evenodd">
        <g id="01-03-hw-wallet" transform="translate(-387.000000, -520.000000)" fill="#FFFFFF">
            <g id="Group-5" transform="translate(252.000000, 440.000000)">
                <g id="Group-8" transform="translate(0.000000, 64.000000)">
                    <g id="Group-4" transform="translate(134.928556, 16.729347)">
                        <path d="M7.71686949,0.0899075145 C4.68020228,0.0899075145 2.21818597,2.51919075 2.21818597,5.51576879 L2.21818597,7.54447399 C1.15252365,7.73255491 0.0770668842,7.99235838 0.0770668842,8.32439306 L0.0770668842,18.9538266 C0.0770668842,18.9538266 0.0770668842,19.2519075 0.406083197,19.3809827 C1.62098206,19.8579884 6.39075204,21.5261734 7.48541109,21.908185 C7.62962153,21.9585434 7.66003589,21.9571445 7.71003915,21.9571445 C7.7626199,21.9571445 7.7898124,21.9589249 7.93286297,21.908948 C9.02546003,21.5278266 13.8117259,19.8554451 15.0190212,19.3837803 C15.3325726,19.2613179 15.3415938,18.9581503 15.3415938,18.9581503 L15.3415938,8.32490173 C15.3415938,7.99299422 14.2810865,7.73255491 13.2152953,7.54434682 L13.2152953,5.51564162 C13.2154241,2.51919075 10.7535367,0.0899075145 7.71686949,0.0899075145 Z M7.71686949,2.68298266 C9.50306852,2.68298266 10.5897374,3.75322543 10.5897374,5.51576879 L10.5897374,7.28314451 C8.57298206,7.13817341 6.85921044,7.13817341 4.84219739,7.28314451 L4.84219739,5.51576879 C4.84219739,3.75309827 5.93041272,2.68298266 7.71686949,2.68298266 Z M7.7097814,9.89236994 C10.2085269,9.89631214 12.3090506,10.0799422 12.3090506,10.4309249 C12.3090506,10.4309249 12.3090506,16.9572948 12.3090506,17.053815 C12.3090506,17.1504624 12.2935856,17.1667399 12.2006672,17.2014566 C12.1078777,17.2363006 7.92861011,18.726578 7.92861011,18.726578 C7.92861011,18.726578 7.7570783,18.7827861 7.70991028,18.7827861 C7.65642741,18.7827861 7.48476672,18.724289 7.48476672,18.724289 C7.48476672,18.724289 3.30730343,17.2354104 3.21348287,17.2004393 C3.11953344,17.1655954 3.10741925,17.1475376 3.10741925,17.0501272 C3.10741925,16.9427977 3.10741925,10.4306705 3.10741925,10.4306705 C3.10741925,10.0701503 5.21116476,9.88842775 7.7097814,9.89236994 Z" id="path7" fill-rule="nonzero"></path>
                        <polygon id="path13" points="22.4250034 17.1472229 22.4250034 9.89076088 19.744414 9.89076088 19.744414 7.28979131 28.1166524 7.28979131 28.1166524 9.89076088 25.4504741 9.89076088 25.4504741 17.1472229"></polygon>
                        <path d="M34.9014517,17.1472229 L33.5237743,14.0438044 L32.4303776,14.0438044 L32.4303776,17.1472229 L29.4051533,17.1472229 L29.4051533,7.28979131 L34.7367709,7.28979131 C37.0729718,7.28979131 38.3314188,8.82667263 38.3314188,10.6739687 C38.3314188,12.3739576 37.3278144,13.2750598 36.534218,13.6593713 L38.3465689,17.1471014 L34.9015749,17.1471014 L34.9015749,17.1472229 L34.9014517,17.1472229 Z M35.2608672,10.6590192 C35.2608672,10.127279 34.7816055,9.8905178 34.2722898,9.8905178 L32.4300081,9.8905178 L32.4300081,11.4422271 L34.2722898,11.4422271 C34.7816055,11.4421055 35.2608672,11.2061952 35.2608672,10.6590192 Z" id="path15" fill-rule="nonzero"></path>
                        <polygon id="path17" points="39.9157786 17.1472229 39.9157786 7.28979131 47.4941742 7.28979131 47.4941742 9.89076088 42.941126 9.89076088 42.941126 10.866246 47.3894782 10.866246 47.3894782 13.4675802 42.941126 13.4675802 42.941126 14.5460103 47.4941742 14.5460103 47.4941742 17.1472229"></polygon>
                        <polygon id="path19" points="49.0692961 17.149046 49.0692961 14.7845945 52.873213 9.89270553 49.0692961 9.89270553 49.0692961 7.29173596 56.8721109 7.29173596 56.8721109 9.64148104 53.0529208 14.5480764 56.976807 14.5480764 56.976807 17.149046 49.0692961 17.149046 49.0692961 17.149046"></polygon>
                        <path d="M57.717809,12.2279873 C57.717809,9.19810081 60.0988444,7.1291146 63.1842998,7.1291146 C66.2692625,7.1291146 68.6510369,9.19810081 68.6510369,12.2279873 C68.6510369,15.2573876 66.2692625,17.3263738 63.1842998,17.3263738 C60.0988444,17.3263738 57.717809,15.2573876 57.717809,12.2279873 Z M65.5807317,12.2279873 C65.5807317,10.8532412 64.6372352,9.75974008 63.1842998,9.75974008 C61.7316108,9.75974008 60.7877447,10.8533627 60.7877447,12.2279873 C60.7877447,13.6022472 61.7313644,14.6956268 63.1842998,14.6956268 C64.6369888,14.6956268 65.5807317,13.6020041 65.5807317,12.2279873 Z" id="path21" fill-rule="nonzero"></path>
                        <path d="M75.4359594,17.149046 L74.0586516,14.0456275 L72.9650085,14.0456275 L72.9650085,17.149046 L69.9395379,17.149046 L69.9395379,7.29173596 L75.271525,7.29173596 C77.6082185,7.29173596 78.866296,8.82861728 78.866296,10.6757918 C78.866296,12.3757807 77.8625684,13.2768829 77.0687257,13.6614375 L78.8809535,17.1491676 L75.4359594,17.1491676 L75.4359594,17.149046 Z M75.7956213,10.6609639 C75.7956213,10.1291021 75.3164827,9.89246245 74.8070438,9.89246245 L72.9647622,9.89246245 L72.9647622,11.4441718 L74.8070438,11.4441717 C75.3161132,11.4442933 75.7956213,11.2081398 75.7956213,10.6609639 Z" id="path23" fill-rule="nonzero"></path>
                    </g>
                </g>
            </g>
        </g>
    </g>
</svg>