<?xml version="1.0" encoding="UTF-8"?>
<svg width="156px" height="23px" viewBox="0 0 156 23" version="1.1" xmlns="http://www.w3.org/2000/svg" xmlns:xlink="http://www.w3.org/1999/xlink">
    <!-- Generator: Sketch 52.4 (67378) - http://www.bohemiancoding.com/sketch -->
    <title>vacuum-logo-dark</title>
    <desc>Created with Sketch.</desc>
    <g id="design" stroke="none" stroke-width="1" fill="none" fill-rule="evenodd">
        <g id="01-01-landing" transform="translate(-156.000000, -1026.000000)">
            <g id="Group-16" transform="translate(0.000000, 944.000000)">
                <g id="Group-15" transform="translate(156.000000, 56.000000)">
                    <g id="vacuum-logo-dark" transform="translate(0.000000, 26.000000)">
                        <path d="M13.117,17.33625 L9.51238889,11.11475 C8.93316667,12.2769688 8.49116667,13.9645938 8.476,16.465125 L11.5793889,21.8219688 C11.7483317,22.1131795 12.0605032,22.2926234 12.3983889,22.29275 L13.8363333,22.29275 C14.1736111,22.29275 14.4856111,22.1145 14.6546111,21.8226875 L21.4398889,10.1106562 C21.4993408,10.0081793 21.4992291,9.88189577 21.4395959,9.77952317 C21.3799628,9.67715058 21.2699016,9.61429945 21.151,9.61471875 L17.9934444,9.61471875 C17.7438546,9.61446116 17.5132215,9.74718486 17.3889444,9.96259375 L13.117,17.33625 Z" id="Path" fill="#FFFFFF"></path>
                        <path d="M27.2971111,0 C20.2070556,12.2374375 7.38544444,0 7.38544444,14.5827187 L0.195,2.1720625 C-0.065061009,1.72438262 -0.0654095037,1.17264258 0.194085765,0.724637677 C0.453581034,0.276632777 0.933505577,0.0004100567 1.45311111,0 L27.2971111,0 Z" id="Path" fill="#E72076"></path>
                        <path d="M31.2736667,18.770875 C31.9525556,18.1419687 32.2855,17.2169375 32.2855,16.0187812 C32.2855,14.8213437 31.9402778,13.8840937 31.2621111,13.20775 C30.5832222,12.532125 29.7382222,12.187125 28.7509444,12.187125 C27.7745,12.187125 26.9533333,12.5199062 26.299,13.1840312 C25.6446667,13.8481562 25.311,14.7731875 25.311,15.947625 C25.311,17.1335625 25.6446667,18.0593125 26.3112778,18.7227187 C26.9771667,19.3875625 27.8098889,19.719625 28.7986111,19.719625 C29.7743333,19.719625 30.5955,19.3990625 31.2736667,18.770875 Z M35.2372222,9.614 C35.5470556,9.614 35.7016111,9.7678125 35.7016111,10.0761563 L35.7016111,21.8305937 C35.7016111,22.1389375 35.5470556,22.2934687 35.2372222,22.2934687 L32.8683333,22.2934687 C32.643,22.2934687 32.4884444,22.1389375 32.4046667,21.8305937 L32.214,20.2766562 C31.0476111,21.818375 29.5959444,22.5895937 27.8698333,22.5895937 C26.2275,22.5895937 24.8235,21.9844062 23.6686667,20.7869687 C22.5138333,19.5888125 21.931,17.9759375 21.931,15.947625 C21.931,13.9193125 22.5138333,12.3064375 23.6809444,11.0960625 C24.8350556,9.898625 26.2159444,9.29415625 27.7990556,9.29415625 C29.5006111,9.29415625 30.9883889,10.0172187 32.2378333,11.4647812 L32.4046667,10.0761562 C32.4523333,9.7678125 32.6068889,9.614 32.8690556,9.614 L35.2372222,9.614 Z M39.9533333,20.6446563 C38.7277222,19.363125 38.1203333,17.7861875 38.1203333,15.9239063 C38.1203333,14.0860625 38.7392778,12.5199063 39.9648889,11.2390938 C41.1912222,9.95828125 42.7505,9.31715625 44.6665556,9.31715625 C45.7022222,9.31715625 46.6541111,9.51840625 47.5229444,9.92234375 C48.3917778,10.3377813 49.0822222,10.8595938 49.5935556,11.5115 C49.7957778,11.7609063 49.7596667,11.974375 49.4982222,12.164125 L47.9158333,13.3500625 C47.6897778,13.5045938 47.4752778,13.4801563 47.2846111,13.2789063 C46.5587778,12.555125 45.7137778,12.1878438 44.7734444,12.1878438 C43.7623333,12.1878438 42.9527222,12.543625 42.3222222,13.2674063 C41.691,13.9904688 41.3818889,14.8802813 41.3818889,15.947625 C41.3818889,17.0271875 41.691,17.917 42.3222222,18.6285625 C42.9527222,19.340125 43.7738889,19.6959063 44.7972778,19.6959063 C45.4162222,19.6959063 45.8921667,19.529875 46.2973333,19.3760625 C46.5349444,19.2804688 46.8447778,19.067 46.9516667,18.972125 C47.0108889,18.9361875 47.0939444,18.86575 47.2015556,18.770875 L47.3799444,18.6285625 C47.606,18.4503125 47.8327778,18.4265938 48.035,18.581125 L49.5935556,19.6951875 C49.8196111,19.8734375 49.868,20.0869063 49.7127222,20.3240938 C49.2245,20.9767188 48.5225,21.5100313 47.606,21.9254688 C46.6902222,22.3524063 45.7022222,22.5665938 44.6427222,22.5665938 C42.7382222,22.5665938 41.1796667,21.9254688 39.9533333,20.6446563 Z M63.8545556,9.614 C64.1643889,9.614 64.3189444,9.7678125 64.3189444,10.0761563 L64.3189444,21.8305937 C64.3189444,22.1396562 64.1643889,22.2934687 63.8545556,22.2934687 L61.3910556,22.2934687 C61.1288889,22.2934687 60.9743333,22.1389375 60.9266667,21.8305937 L60.7605556,20.5972187 C59.5580556,21.9254687 58.0702778,22.5895937 56.3210556,22.5895937 C53.2617222,22.5895937 51.6193889,20.4549062 51.6193889,16.516875 L51.6193889,10.076875 C51.6193889,9.7678125 51.7739444,9.614 52.0830556,9.614 L54.7372222,9.614 C55.0477778,9.614 55.2016111,9.7678125 55.2016111,10.0761562 L55.2016111,16.516875 C55.2016111,18.3317187 56.1542222,19.3990625 57.7842778,19.3990625 C59.4627222,19.3990625 60.6298333,18.224625 60.7367222,15.757875 L60.7367222,10.076875 C60.7367222,9.76853125 60.8912778,9.61471875 61.2003889,9.61471875 L63.8545556,9.61471875 L63.8545556,9.614 Z M79.5441111,9.614 C79.8532222,9.614 80.0077778,9.7678125 80.0077778,10.0761563 L80.0077778,21.8305937 C80.0077778,22.1396562 79.8532222,22.2934687 79.5441111,22.2934687 L77.0798889,22.2934687 C76.8184444,22.2934687 76.6631667,22.1389375 76.6162222,21.8305937 L76.4493889,20.5972187 C75.2468889,21.9254687 73.7591111,22.5895937 72.0098889,22.5895937 C68.9512778,22.5895937 67.3089444,20.4549062 67.3089444,16.516875 L67.3089444,10.076875 C67.3089444,9.7678125 67.4635,9.614 67.7726111,9.614 L70.4267778,9.614 C70.7373333,9.614 70.8911667,9.7678125 70.8911667,10.0761562 L70.8911667,16.516875 C70.8911667,18.3317187 71.8430556,19.3990625 73.4738333,19.3990625 C75.1515556,19.3990625 76.3186667,18.224625 76.4255556,15.757875 L76.4255556,10.076875 C76.4255556,9.76853125 76.5801111,9.61471875 76.8899444,9.61471875 L79.5441111,9.61471875 L79.5441111,9.614 Z M103.695222,10.93075 C104.587889,12.0095938 105.028444,13.492375 105.028444,15.3661563 L105.028444,21.8305938 C105.028444,22.1396563 104.873889,22.2934688 104.564056,22.2934688 L101.909889,22.2934688 C101.600778,22.2934688 101.446222,22.1389375 101.446222,21.8305938 L101.446222,15.366875 C101.446222,13.55275 100.505889,12.5084063 98.8873889,12.5084063 C97.1612778,12.5084063 96.0071667,13.659125 95.9118333,16.125875 L95.9118333,21.8313125 C95.9118333,22.140375 95.7572778,22.2941875 95.4474444,22.2941875 L92.8647778,22.2941875 C92.5549444,22.2941875 92.4003889,22.1396562 92.4003889,21.8313125 L92.4003889,15.366875 C92.4003889,13.55275 91.4485,12.5084063 89.8177222,12.5084063 C88.0923333,12.5084063 86.9375,13.659125 86.8421667,16.125875 L86.8421667,21.8313125 C86.8421667,22.140375 86.6876111,22.2941875 86.3777778,22.2941875 L83.7236111,22.2941875 C83.4145,22.2941875 83.2599444,22.1396562 83.2599444,21.8313125 L83.2599444,10.076875 C83.2599444,9.76853125 83.4145,9.61471875 83.7236111,9.61471875 L86.2116667,9.61471875 C86.4377222,9.61471875 86.5922778,9.76853125 86.6760556,10.076875 L86.8190556,11.2865312 C87.9731667,9.9705 89.3540556,9.317875 90.9848333,9.317875 C92.9716667,9.317875 94.3886667,10.1954687 95.2336667,11.951375 C96.4354444,10.1954688 98.0308333,9.317875 100.029944,9.317875 C101.576944,9.317875 102.803278,9.85190625 103.695222,10.9314688 L103.695222,10.93075 Z M108.484278,22.2941875 C108.2705,22.2941875 108.162889,22.1870937 108.175167,21.973625 L108.175167,4.97590625 C108.175167,4.76315625 108.282056,4.6560625 108.484278,4.6560625 L110.221944,4.6560625 C110.436444,4.6560625 110.543333,4.76315625 110.531778,4.97590625 L110.531778,21.9729062 C110.531778,22.186375 110.424889,22.2934688 110.221222,22.2934688 L108.484278,22.2934688 L108.484278,22.2941875 Z M123.243611,19.4594375 C124.088611,18.676 124.516889,17.6086562 124.516889,16.2444688 C124.516889,14.8687813 124.089333,13.7302813 123.219778,12.8289688 C122.350944,11.9391563 121.279889,11.4885 120.006611,11.4885 C118.781,11.4885 117.756889,11.9154375 116.935722,12.7578125 C116.114556,13.6116875 115.697833,14.7149688 115.697833,16.0784375 C115.697833,17.442625 116.114556,18.5344063 116.948,19.3760625 C117.780722,20.2184375 118.828667,20.645375 120.101222,20.645375 C121.339833,20.645375 122.387056,20.2536562 123.243611,19.4594375 Z M126.445222,9.8281875 C126.659722,9.8281875 126.766611,9.93528125 126.755778,10.14875 L126.755778,21.9721875 C126.755778,22.1856563 126.647444,22.2920312 126.445222,22.2920312 L125.076611,22.2920312 C124.922056,22.2920312 124.815167,22.1856563 124.755222,21.9721875 L124.588389,20.1573437 C123.338944,21.7824375 121.672778,22.588875 119.613722,22.588875 C117.839944,22.588875 116.363722,21.9844062 115.174222,20.7740313 C113.972444,19.564375 113.376611,17.9989375 113.376611,16.077 C113.376611,14.1320625 113.972444,12.555125 115.174222,11.33325 C116.364444,10.122875 117.816833,9.51840625 119.542222,9.51840625 C121.589,9.51840625 123.410444,10.4556563 124.588389,12.0210937 L124.755222,10.1473125 C124.791333,9.93384375 124.8975,9.82675 125.076611,9.82675 L126.445222,9.82675 L126.445222,9.8281875 Z M140.326333,19.3760625 C141.159056,18.5344063 141.575778,17.442625 141.575778,16.0784375 C141.575778,14.7149688 141.159056,13.6116875 140.337167,12.7578125 C139.505167,11.9154375 138.481056,11.4885 137.254722,11.4885 C135.982167,11.4885 134.921944,11.939875 134.053111,12.8289687 C133.185,13.7302813 132.744444,14.8687813 132.744444,16.2444687 C132.744444,17.609375 133.172722,18.6767187 134.03,19.4594375 C134.875,20.254375 135.922222,20.645375 137.160111,20.645375 C138.433389,20.645375 139.480611,20.2184375 140.325611,19.3760625 L140.326333,19.3760625 Z M142.099389,11.3339688 C143.289611,12.5558437 143.884722,14.1335 143.884722,16.0784375 C143.884722,18.011875 143.289611,19.57875 142.099389,20.7754688 C140.897611,21.985125 139.421389,22.5903125 137.647611,22.5903125 C135.5055,22.5903125 133.816222,21.7249375 132.577611,20.0049687 L132.387667,21.973625 C132.339278,22.1870937 132.232389,22.2934687 132.066278,22.2934687 L130.697667,22.2934687 C130.483167,22.2934687 130.376278,22.1870937 130.387833,21.973625 L130.387833,4.97590625 C130.387833,4.76315625 130.494722,4.6560625 130.697667,4.6560625 L132.434611,4.6560625 C132.649111,4.6560625 132.756,4.76315625 132.745167,4.97590625 L132.745167,11.9269375 C134.03,10.3255625 135.684611,9.519125 137.719833,9.519125 C139.445222,9.519125 140.897611,10.1243125 142.099389,11.33325 L142.099389,11.3339688 Z M147.921944,22.0440625 C147.053111,21.6882813 146.387222,21.226125 145.935111,20.6446563 C145.792111,20.501625 145.779833,20.3478125 145.910556,20.1817813 L146.541778,19.2330313 C146.6725,19.0317813 146.827056,19.0195625 147.03,19.1855938 C147.826611,20.1580625 149.088333,20.6446563 150.838278,20.6446563 C152.7305,20.6446563 153.670833,19.9920313 153.659278,18.6997188 C153.659278,18.0470938 153.456333,17.655375 152.825833,17.35925 C152.53543,17.2303813 152.237307,17.1194828 151.933167,17.0271875 C151.658722,16.9553125 151.218889,16.8611563 150.612222,16.7303438 C150.039199,16.6170111 149.471464,16.4786377 148.910667,16.315625 C148.431761,16.1688689 147.969087,15.9740445 147.529778,15.7341563 C146.553333,15.2123438 146.053556,14.3814688 146.053556,13.20775 C146.053556,12.08075 146.494111,11.1794375 147.386778,10.5153125 C148.267889,9.8511875 149.433556,9.519125 150.885944,9.519125 C152.563667,9.519125 154.052167,10.0409375 155.373111,11.0967813 C155.575333,11.2031563 155.599167,11.3576875 155.444611,11.5589375 L154.801833,12.4609688 C154.694222,12.6385 154.539667,12.6737188 154.349,12.555125 C153.433222,11.8435625 152.326778,11.4877813 151.005111,11.4877813 C149.183667,11.4877813 148.279444,12.0340313 148.279444,13.1365938 C148.279444,13.5045938 148.422444,13.8122188 148.707722,14.061625 C148.982167,14.3110313 149.290556,14.4885625 149.624222,14.5834375 C149.957167,14.69125 150.422278,14.7969063 151.005111,14.904 C151.112,14.9162188 151.207333,14.9399375 151.279556,14.9629375 C152.790444,15.272 153.933,15.6867188 154.718056,16.2085313 C155.491556,16.7425625 155.884444,17.5612188 155.884444,18.6752813 C155.884444,19.8612188 155.443889,20.8106875 154.575056,21.52225 C153.695389,22.2338125 152.469056,22.5895938 150.885944,22.5895938 C149.778778,22.5895938 148.790778,22.4120625 147.921944,22.0440625 Z" id="Shape" fill="#FFFFFF" fill-rule="nonzero"></path>
                    </g>
                </g>
            </g>
        </g>
    </g>
</svg>