<svg xmlns="http://www.w3.org/2000/svg" width="216" height="32" viewBox="0 0 216 32"><g fill="none" fill-rule="evenodd"><path fill="#20323f" d="M18.162 24.12l-4.991-8.656c-.802 1.617-1.414 3.965-1.435 7.444l4.297 7.453a1.31 1.31 0 0 0 1.134.655h1.991c.467 0 .899-.248 1.133-.654l9.395-16.295a.46.46 0 0 0-.4-.69h-4.372a.964.964 0 0 0-.837.484L18.162 24.12z"></path><path fill="#e72076" d="M37.796 0c-9.817 17.026-27.57 0-27.57 20.289L.27 3.022A2.014 2.014 0 0 1 2.012 0h35.784z"></path><path fill="#20323f" d="M43.302 26.116c.94-.875 1.401-2.162 1.401-3.829 0-1.666-.478-2.97-1.417-3.911-.94-.94-2.11-1.42-3.477-1.42-1.352 0-2.489.463-3.395 1.387-.906.924-1.368 2.211-1.368 3.845 0 1.65.462 2.938 1.385 3.861.922.925 2.075 1.387 3.444 1.387 1.351 0 2.488-.446 3.427-1.32zm5.488-12.74c.429 0 .643.214.643.643v16.354c0 .429-.214.644-.643.644h-3.28c-.312 0-.526-.215-.642-.644l-.264-2.162c-1.615 2.145-3.625 3.218-6.015 3.218-2.274 0-4.218-.842-5.817-2.508-1.599-1.667-2.406-3.911-2.406-6.733 0-2.822.807-5.066 2.423-6.75 1.598-1.666 3.51-2.507 5.702-2.507 2.356 0 4.416 1.006 6.146 3.02l.231-1.932c.066-.429.28-.643.643-.643h3.279zm6.53 15.347c-1.697-1.783-2.538-3.977-2.538-6.568 0-2.557.857-4.736 2.554-6.518 1.698-1.782 3.857-2.674 6.51-2.674 1.434 0 2.752.28 3.955.842 1.203.578 2.159 1.304 2.867 2.211.28.347.23.644-.132.908l-2.191 1.65c-.313.215-.61.181-.874-.099-1.005-1.007-2.175-1.518-3.477-1.518-1.4 0-2.521.495-3.394 1.502-.874 1.006-1.302 2.244-1.302 3.729 0 1.502.428 2.74 1.302 3.73.873.99 2.01 1.485 3.427 1.485.857 0 1.516-.231 2.077-.445.329-.133.758-.43.906-.562.082-.05.197-.148.346-.28l.247-.198c.313-.248.627-.281.907-.066l2.158 1.55c.313.248.38.545.165.875-.676.908-1.648 1.65-2.917 2.228-1.268.594-2.636.892-4.103.892-2.637 0-4.795-.892-6.493-2.674m33.094-15.347c.429 0 .643.214.643.643v16.354c0 .43-.214.644-.643.644h-3.411c-.363 0-.577-.215-.643-.644l-.23-1.716c-1.665 1.848-3.725 2.772-6.147 2.772-4.236 0-6.51-2.97-6.51-8.449v-8.96c0-.43.214-.644.642-.644h3.675c.43 0 .643.214.643.643v8.961c0 2.525 1.319 4.01 3.576 4.01 2.324 0 3.94-1.634 4.088-5.066V14.02c0-.429.214-.643.642-.643h3.675zm21.724 0c.428 0 .642.214.642.643v16.354c0 .43-.214.644-.642.644h-3.412c-.362 0-.577-.215-.642-.644l-.231-1.716c-1.665 1.848-3.725 2.772-6.147 2.772-4.235 0-6.509-2.97-6.509-8.449v-8.96c0-.43.214-.644.642-.644h3.675c.43 0 .643.214.643.643v8.961c0 2.525 1.318 4.01 3.576 4.01 2.323 0 3.939-1.634 4.087-5.066V14.02c0-.429.214-.643.643-.643h3.675zm33.44 1.832c1.236 1.501 1.846 3.564 1.846 6.171v8.994c0 .43-.214.644-.643.644h-3.675c-.428 0-.642-.215-.642-.644V21.38c0-2.524-1.302-3.977-3.543-3.977-2.39 0-3.988 1.601-4.12 5.033v7.938c0 .43-.214.644-.643.644h-3.576c-.429 0-.643-.215-.643-.644V21.38c0-2.524-1.318-3.977-3.576-3.977-2.389 0-3.988 1.601-4.12 5.033v7.938c0 .43-.214.644-.643.644h-3.675c-.428 0-.642-.215-.642-.644V14.02c0-.429.214-.643.642-.643h3.445c.313 0 .527.214.643.643l.198 1.683c1.598-1.831 3.51-2.739 5.768-2.739 2.751 0 4.713 1.221 5.883 3.664 1.664-2.443 3.873-3.664 6.641-3.664 2.142 0 3.84.743 5.075 2.245m6.631 15.809c-.296 0-.445-.149-.428-.446V6.923c0-.296.148-.445.428-.445h2.406c.297 0 .445.149.429.445v23.648c0 .297-.148.446-.43.446h-2.405zm20.436-3.944c1.17-1.09 1.763-2.575 1.763-4.473 0-1.914-.592-3.498-1.796-4.752-1.203-1.238-2.686-1.865-4.449-1.865-1.697 0-3.115.594-4.252 1.766-1.137 1.188-1.714 2.723-1.714 4.62 0 1.898.577 3.417 1.731 4.588 1.153 1.172 2.604 1.766 4.366 1.766 1.715 0 3.165-.545 4.351-1.65zm4.433-13.4c.297 0 .445.149.43.446v16.45c0 .297-.15.445-.43.445h-1.895c-.214 0-.362-.148-.445-.445l-.231-2.525c-1.73 2.261-4.037 3.383-6.888 3.383-2.456 0-4.5-.841-6.147-2.525-1.664-1.683-2.489-3.861-2.489-6.535 0-2.706.825-4.9 2.489-6.6 1.648-1.684 3.659-2.525 6.048-2.525 2.834 0 5.356 1.304 6.987 3.482l.231-2.607c.05-.297.197-.446.445-.446h1.895zm19.22 13.284c1.153-1.171 1.73-2.69 1.73-4.588 0-1.897-.577-3.432-1.715-4.62-1.152-1.172-2.57-1.766-4.268-1.766-1.762 0-3.23.628-4.433 1.865-1.202 1.254-1.812 2.838-1.812 4.752 0 1.899.593 3.384 1.78 4.473 1.17 1.106 2.62 1.65 4.334 1.65 1.763 0 3.213-.594 4.383-1.766m2.456-11.189c1.648 1.7 2.472 3.895 2.472 6.601 0 2.69-.824 4.87-2.472 6.535-1.664 1.683-3.708 2.525-6.164 2.525-2.966 0-5.305-1.204-7.02-3.597l-.263 2.739c-.067.297-.215.445-.445.445h-1.895c-.297 0-.445-.148-.429-.445V6.923c0-.296.148-.445.429-.445h2.405c.297 0 .445.149.43.445v9.671c1.779-2.228 4.07-3.35 6.888-3.35 2.389 0 4.4.842 6.064 2.524m8.062 14.902c-1.203-.495-2.125-1.138-2.751-1.947-.198-.199-.215-.413-.034-.644l.874-1.32c.181-.28.395-.297.676-.066 1.103 1.353 2.85 2.03 5.273 2.03 2.62 0 3.922-.908 3.906-2.706 0-.908-.281-1.453-1.154-1.865a10.694 10.694 0 0 0-1.236-.462c-.38-.1-.989-.231-1.829-.413a27.573 27.573 0 0 1-2.356-.577 10.238 10.238 0 0 1-1.912-.809c-1.352-.726-2.044-1.882-2.044-3.515 0-1.568.61-2.822 1.846-3.746 1.22-.924 2.834-1.386 4.845-1.386 2.323 0 4.384.726 6.213 2.195.28.148.313.363.099.643l-.89 1.255c-.149.247-.363.296-.627.131-1.268-.99-2.8-1.485-4.63-1.485-2.522 0-3.774.76-3.774 2.294 0 .512.198.94.593 1.287.38.347.807.594 1.269.726.461.15 1.105.297 1.912.446.148.017.28.05.38.082 2.092.43 3.674 1.007 4.761 1.733 1.071.743 1.615 1.882 1.615 3.432 0 1.65-.61 2.971-1.813 3.961-1.218.99-2.916 1.485-5.108 1.485-1.533 0-2.901-.247-4.104-.759"></path></g></svg>
