<svg width="125" height="88" viewBox="0 0 125 88" fill="none" xmlns="http://www.w3.org/2000/svg">
<g transform="translate(0,24)">
<path d="M18.7697 3.0999C19.7582 4.81178 19.1719 7.00032 17.4597 7.98825C15.7476 8.97767 13.5591 8.3914 12.5711 6.67918C11.5817 4.96706 12.1686 2.77818 13.881 1.78934C15.5923 0.801172 17.7821 1.38826 18.7697 3.0999Z" fill="#757575"/>
<path d="M24.9757 13.8526C25.9642 15.5645 25.3779 17.753 23.6657 18.7409C21.9536 19.7303 19.7647 19.1435 18.7771 17.4319C17.7877 15.7197 18.3745 13.5309 20.087 12.542C21.7983 11.5539 23.9877 12.1404 24.9757 13.8526Z" fill="#757575"/>
<path d="M31.1836 24.6007C32.1716 26.3121 31.5857 28.5017 29.8733 29.4894C28.1613 30.4777 25.9723 29.8915 24.984 28.1795C23.9957 26.4675 24.5823 24.279 26.2943 23.2907C28.0059 22.3019 30.1953 22.8887 31.1836 24.6007Z" fill="#757575"/>
<path d="M5.68367 16.9504C4.96095 18.2022 5.39029 19.8027 6.64172 20.526C7.89349 21.2487 9.49457 20.8197 10.2173 19.5679C10.9403 18.3156 10.511 16.7151 9.25923 15.9923C8.00688 15.2693 6.40613 15.6977 5.68367 16.9504Z" fill="#757575"/>
<path d="M1.09495 27.2888C0.601378 28.1447 0.894545 29.2395 1.75016 29.7336C2.60668 30.2276 3.70085 29.9341 4.19468 29.079C4.6895 28.2223 4.396 27.1281 3.54038 26.6339C2.68419 26.1394 1.58944 26.4326 1.09495 27.2888Z" fill="#757575"/>
<path d="M39.3537 28.9956C38.711 28.3436 38.387 27.5409 38.387 26.5788C38.387 25.6354 38.7064 24.8327 39.3444 24.176C39.9831 23.52 40.7672 23.1913 41.6925 23.1913C42.7866 23.1913 43.6807 23.556 44.374 24.2814C44.4334 24.3587 44.428 24.4267 44.3554 24.486L43.5987 25.1341C43.5306 25.1927 43.462 25.1927 43.3933 25.1247C42.9693 24.6687 42.4132 24.4407 41.7199 24.4407C41.1685 24.4407 40.7031 24.646 40.3251 25.0561C39.9464 25.4714 39.7591 25.9728 39.7591 26.5702C39.7591 27.1762 39.9464 27.6822 40.3251 28.0929C40.7031 28.5036 41.1685 28.7083 41.7292 28.7083C42.1032 28.7083 42.3992 28.6583 42.6179 28.5576C42.8373 28.4623 43.0833 28.2889 43.3566 28.0476C43.416 27.9882 43.48 27.9789 43.544 28.0289L44.3194 28.6449C44.4014 28.7223 44.4147 28.7863 44.3554 28.841C43.6307 29.593 42.7639 29.9717 41.7472 29.9717C40.7945 29.9717 39.9964 29.6477 39.3537 28.9956Z" fill="#757575"/>
<path d="M48.6091 28.4858C48.8691 28.2444 48.9964 27.8884 48.9964 27.4284C48.9964 26.9677 48.8638 26.607 48.6044 26.347C48.3444 26.087 48.0211 25.955 47.6424 25.955C47.2683 25.955 46.9537 26.083 46.703 26.3383C46.4523 26.5937 46.3243 26.949 46.3243 27.4004C46.3243 27.8564 46.4523 28.2118 46.7076 28.4678C46.963 28.7231 47.2817 28.8505 47.6604 28.8505C48.0344 28.8505 48.3491 28.7271 48.6091 28.4858ZM50.1272 24.9656C50.2458 24.9656 50.3052 25.0249 50.3052 25.1436V29.6625C50.3052 29.7805 50.2458 29.8399 50.1272 29.8399H49.2198C49.1331 29.8399 49.0738 29.7805 49.0418 29.6625L48.9691 29.0645C48.5224 29.6579 47.9657 29.9539 47.3043 29.9539C46.6756 29.9539 46.1376 29.7219 45.6949 29.2612C45.2529 28.8005 45.0295 28.1804 45.0295 27.4004C45.0295 26.621 45.2529 26.0003 45.6996 25.5356C46.1423 25.0749 46.671 24.8429 47.277 24.8429C47.929 24.8429 48.4991 25.1209 48.9784 25.6769L49.0418 25.1436C49.0604 25.0249 49.1198 24.9656 49.2198 24.9656H50.1272Z" fill="#757575"/>
<path d="M55.0621 25.1625L54.4467 26.1886C54.41 26.2432 54.3647 26.2706 54.3054 26.2752C54.2687 26.2752 54.132 26.2339 54 26.2339C53.3386 26.2339 53.0286 26.6306 52.9239 27.452V29.6628C52.9239 29.7814 52.8646 29.8408 52.7459 29.8408H51.7472C51.6292 29.8408 51.5699 29.7814 51.5699 29.6628L51.5605 25.1445C51.5605 25.0258 51.6192 24.9665 51.7379 24.9665H52.6913C52.7779 24.9665 52.8373 25.0258 52.8686 25.1445L52.9326 25.6959C53.266 25.1672 53.74 24.8892 54.3554 24.8618C54.5967 24.8665 54.8027 24.8845 54.9707 24.9212C55.1081 24.9618 55.1394 25.0438 55.0621 25.1625Z" fill="#757575"/>
<path d="M58.7571 28.4853C59.0171 28.2439 59.1451 27.8879 59.1451 27.4279C59.1451 26.9672 59.0124 26.6065 58.7524 26.3465C58.4924 26.0865 58.1691 25.9545 57.7904 25.9545C57.4164 25.9545 57.1023 26.0825 56.851 26.3378C56.6003 26.5932 56.473 26.9485 56.473 27.3999C56.473 27.8559 56.6003 28.2113 56.8557 28.4673C57.111 28.7226 57.4304 28.85 57.809 28.85C58.1824 28.85 58.4971 28.7266 58.7571 28.4853ZM60.2939 23.059C60.4119 23.059 60.4712 23.1183 60.4712 23.237V29.662C60.4712 29.78 60.4119 29.8394 60.2939 29.8394H59.3958C59.2951 29.8394 59.2358 29.78 59.2171 29.662L59.1351 29.0373C58.6931 29.648 58.1324 29.9534 57.453 29.9534C56.8236 29.9534 56.2856 29.7214 55.8429 29.2607C55.4016 28.8 55.1776 28.1799 55.1776 27.3999C55.1776 26.6205 55.4016 25.9998 55.8483 25.5351C56.2903 25.0744 56.8103 24.8424 57.4077 24.8424C58.0497 24.8424 58.6111 25.1111 59.0991 25.6538V23.237C59.0991 23.1183 59.1585 23.059 59.2771 23.059H60.2939Z" fill="#757575"/>
<path d="M65.0179 28.4858C65.2779 28.2444 65.4052 27.8884 65.4052 27.4284C65.4052 26.9677 65.2732 26.607 65.0132 26.347C64.7532 26.087 64.4292 25.955 64.0511 25.955C63.6771 25.955 63.3624 26.083 63.1118 26.3383C62.8611 26.5937 62.7331 26.949 62.7331 27.4004C62.7331 27.8564 62.8611 28.2118 63.1158 28.4678C63.3711 28.7231 63.6911 28.8505 64.0691 28.8505C64.4432 28.8505 64.7572 28.7271 65.0179 28.4858ZM66.536 24.9656C66.6546 24.9656 66.714 25.0249 66.714 25.1436V29.6625C66.714 29.7805 66.6546 29.8399 66.536 29.8399H65.6286C65.5419 29.8399 65.4826 29.7805 65.4506 29.6625L65.3779 29.0645C64.9312 29.6579 64.3745 29.9539 63.7138 29.9539C63.0844 29.9539 62.5464 29.7219 62.1037 29.2612C61.6617 28.8005 61.4383 28.1804 61.4383 27.4004C61.4383 26.621 61.6617 26.0003 62.1084 25.5356C62.5511 25.0749 63.0798 24.8429 63.6858 24.8429C64.3378 24.8429 64.9085 25.1209 65.3872 25.6769L65.4506 25.1436C65.4692 25.0249 65.5286 24.9656 65.6286 24.9656H66.536Z" fill="#757575"/>
<path d="M72.3463 25.4572C72.6883 25.8632 72.861 26.4379 72.861 27.1766V29.6614C72.861 29.7801 72.8023 29.8394 72.6836 29.8394H71.6662C71.5482 29.8394 71.4889 29.7801 71.4889 29.6614V27.1766C71.4889 26.4786 71.1335 26.0772 70.5082 26.0772C69.8334 26.0772 69.3774 26.5199 69.3414 27.4686V29.6614C69.3414 29.7801 69.2821 29.8394 69.1641 29.8394H68.1467C68.028 29.8394 67.9693 29.7801 67.9693 29.6614V25.1425C67.9693 25.0245 68.028 24.9651 68.1467 24.9651H69.1001C69.1867 24.9651 69.2461 25.0245 69.2767 25.1425L69.3321 25.6078C69.7748 25.1018 70.3168 24.8505 70.9602 24.8505C71.5389 24.8505 71.9996 25.0518 72.3463 25.4572Z" fill="#757575"/>
<path d="M76.2298 28.8227C76.6038 28.8227 76.9278 28.6947 77.1965 28.4393C77.4659 28.184 77.6025 27.8333 77.6025 27.3906C77.6025 26.9486 77.4699 26.6019 77.2012 26.3506C76.9325 26.1005 76.6085 25.9725 76.2298 25.9725C75.8558 25.9725 75.5371 26.1005 75.2677 26.3506C74.9984 26.6019 74.8664 26.9486 74.8664 27.3906C74.8664 27.8373 74.9984 28.1887 75.2677 28.4393C75.5371 28.6947 75.8558 28.8227 76.2298 28.8227ZM74.397 29.2327C73.9277 28.7587 73.6896 28.1427 73.6896 27.3906C73.6896 26.6426 73.9277 26.0319 74.397 25.5578C74.8664 25.0878 75.4777 24.8505 76.2298 24.8505C76.9825 24.8505 77.5932 25.0878 78.0679 25.5625C78.5419 26.0365 78.7786 26.6472 78.7786 27.3906C78.7786 28.1387 78.5419 28.7494 78.0679 29.2281C77.5885 29.7068 76.9778 29.9441 76.2298 29.9441C75.4777 29.9441 74.8664 29.7068 74.397 29.2327Z" fill="#757575"/>
<path d="M91.2512 23.3009C91.3932 23.3009 91.4479 23.4102 91.4112 23.5062L89.4044 29.6886C89.3731 29.7886 89.3044 29.8393 89.1998 29.8393H88.3204C88.233 29.8393 88.1644 29.7933 88.1237 29.698L86.751 26.0091L85.3782 29.698C85.3375 29.7933 85.2689 29.8393 85.1829 29.8393H84.3075C84.2028 29.8393 84.1341 29.7886 84.1015 29.6886L82.1093 23.5062C82.0727 23.3969 82.1367 23.3009 82.26 23.3009H83.2767C83.3814 23.3009 83.4454 23.3462 83.4634 23.4422L84.7815 27.6918L86.2676 23.6836C86.3043 23.5836 86.3729 23.5336 86.4729 23.5376H87.061C87.157 23.5376 87.221 23.5883 87.2576 23.6836L88.7031 27.7372L90.0478 23.4422C90.0705 23.3462 90.1392 23.3009 90.2438 23.3009H91.2512Z" fill="#757575"/>
<path d="M95.1929 28.4858C95.4529 28.2444 95.5809 27.8884 95.5809 27.4284C95.5809 26.9677 95.4482 26.607 95.1882 26.347C94.9289 26.087 94.6049 25.955 94.2268 25.955C93.8521 25.955 93.5381 26.083 93.2874 26.3383C93.0368 26.5937 92.9088 26.949 92.9088 27.4004C92.9088 27.8564 93.0368 28.2118 93.2914 28.4678C93.5468 28.7231 93.8662 28.8505 94.2448 28.8505C94.6189 28.8505 94.9329 28.7271 95.1929 28.4858ZM96.711 24.9656C96.8297 24.9656 96.889 25.0249 96.889 25.1436V29.6625C96.889 29.7805 96.8297 29.8399 96.711 29.8399H95.8043C95.7169 29.8399 95.6576 29.7805 95.6263 29.6625L95.5529 29.0645C95.1062 29.6579 94.5502 29.9539 93.8888 29.9539C93.2601 29.9539 92.7214 29.7219 92.2794 29.2612C91.8374 28.8005 91.614 28.1804 91.614 27.4004C91.614 26.621 91.8374 26.0003 92.2841 25.5356C92.7267 25.0749 93.2554 24.8429 93.8615 24.8429C94.5135 24.8429 95.0836 25.1209 95.5629 25.6769L95.6263 25.1436C95.6449 25.0249 95.7043 24.9656 95.8043 24.9656H96.711Z" fill="#757575"/>
<path d="M98.3299 29.8394C98.2119 29.8394 98.1526 29.78 98.1526 29.6614V23.237C98.1526 23.1183 98.2119 23.059 98.3299 23.059H99.356C99.4747 23.059 99.534 23.1183 99.534 23.237V29.6614C99.534 29.78 99.4747 29.8394 99.356 29.8394H98.3299Z" fill="#757575"/>
<path d="M100.982 29.8394C100.863 29.8394 100.804 29.78 100.804 29.6614V23.237C100.804 23.1183 100.863 23.059 100.982 23.059H102.008C102.127 23.059 102.186 23.1183 102.186 23.237V29.6614C102.186 29.78 102.127 29.8394 102.008 29.8394H100.982Z" fill="#757575"/>
<path d="M104.372 26.9264H106.806C106.72 26.2283 106.282 25.855 105.622 25.855C104.946 25.855 104.468 26.2376 104.372 26.9264ZM107.304 25.5449C107.75 26.0143 107.974 26.625 107.974 27.3824C107.974 27.4691 107.97 27.5371 107.965 27.5871C107.946 27.7017 107.883 27.7564 107.769 27.7564H104.39C104.513 28.5358 104.992 28.9231 105.827 28.9231C106.36 28.9231 106.798 28.7138 107.135 28.2991C107.222 28.2118 107.308 28.2071 107.386 28.2891L107.819 28.7091C107.901 28.8051 107.892 28.9005 107.792 29.0005C107.268 29.6298 106.579 29.9445 105.717 29.9445C104.951 29.9445 104.331 29.7072 103.852 29.2378C103.373 28.7685 103.132 28.1624 103.132 27.423C103.132 26.6983 103.355 26.087 103.802 25.5903C104.249 25.0929 104.842 24.8429 105.576 24.8429C106.278 24.8429 106.852 25.0749 107.304 25.5449Z" fill="#757575"/>
<path d="M112.135 29.4559C112.171 29.5566 112.144 29.6339 112.048 29.6886C111.706 29.8572 111.315 29.9393 110.871 29.9439C109.673 29.9439 109.194 29.2779 109.194 27.9605V26.0677H108.606C108.487 26.0677 108.427 26.009 108.427 25.8903V25.1423C108.427 25.0243 108.487 24.9649 108.606 24.9649H109.194V23.8795C109.194 23.7609 109.253 23.7015 109.371 23.7015H110.379C110.498 23.7015 110.557 23.7609 110.557 23.8795V24.9649H111.807C111.925 24.9649 111.984 25.0243 111.984 25.1423V25.8903C111.984 26.009 111.925 26.0677 111.807 26.0677H110.557V28.0831C110.557 28.6532 110.785 28.8405 111.246 28.8405C111.387 28.8405 111.529 28.8132 111.665 28.7632C111.784 28.7312 111.861 28.7672 111.902 28.8679L112.135 29.4559Z" fill="#757575"/>
<path d="M45.9856 7.744L43.9088 13.1557H47.9244L45.9856 7.744ZM53.2507 17.8213C53.3887 18.1513 53.2827 18.322 52.92 18.322H50.3212C50.0865 18.322 49.9378 18.2153 49.8631 18.0126L48.8404 15.5098H42.9494L41.842 18.0126C41.7566 18.2153 41.5966 18.322 41.362 18.322H38.7418C38.4118 18.322 38.3158 18.13 38.4331 17.8213L44.8462 3.35507C44.9308 3.15306 45.0802 3.04639 45.3042 3.04639H46.7743C47.0083 3.04639 47.157 3.15306 47.2316 3.35507L53.2507 17.8213Z" fill="#757575"/>
<path d="M62.9101 15.1556C63.5175 14.5909 63.8155 13.7602 63.8155 12.6841C63.8155 11.6087 63.5075 10.7667 62.8994 10.16C62.2927 9.55258 61.536 9.2439 60.652 9.2439C59.7786 9.2439 59.0439 9.54192 58.4578 10.1386C57.8718 10.7353 57.5738 11.566 57.5738 12.6208C57.5738 13.6855 57.8718 14.5169 58.4685 15.1136C59.0645 15.7096 59.8106 16.0076 60.6946 16.0076C61.568 16.0076 62.3034 15.7203 62.9101 15.1556ZM66.5003 2.47949C66.7777 2.47949 66.9157 2.61817 66.9157 2.89485V17.9044C66.9157 18.1811 66.7777 18.3198 66.5003 18.3198H64.4015C64.1675 18.3198 64.0288 18.1811 63.9862 17.9044L63.7941 16.445C62.7607 17.8724 61.4513 18.5858 59.8639 18.5858C58.3938 18.5858 57.1364 18.0424 56.1037 16.9664C55.0703 15.891 54.5482 14.4422 54.5482 12.6208C54.5482 10.7987 55.0703 9.3499 56.1143 8.26384C57.1471 7.18777 58.3618 6.64441 59.7572 6.64441C61.2593 6.64441 62.5694 7.27311 63.7095 8.54052V2.89485C63.7095 2.61817 63.8475 2.47949 64.1242 2.47949H66.5003Z" fill="#757575"/>
<path d="M77.5224 15.1557C78.1291 14.591 78.4271 13.7603 78.4271 12.6842C78.4271 11.6088 78.1191 10.7668 77.511 10.1601C76.9043 9.5527 76.1476 9.24402 75.2636 9.24402C74.3909 9.24402 73.6555 9.54204 73.0694 10.1387C72.4834 10.7354 72.1854 11.5662 72.1854 12.6209C72.1854 13.6856 72.4834 14.517 73.0801 15.1137C73.6762 15.7097 74.4229 16.0078 75.3069 16.0078C76.1796 16.0078 76.915 15.7204 77.5224 15.1557ZM81.0693 6.93255C81.3459 6.93255 81.4846 7.07122 81.4846 7.34791V17.9045C81.4846 18.1812 81.3459 18.3199 81.0693 18.3199H78.9498C78.7471 18.3199 78.6091 18.1812 78.5344 17.9045L78.3638 16.5085C77.3197 17.8932 76.0203 18.5859 74.4755 18.5859C73.0061 18.5859 71.7487 18.0425 70.7153 16.9665C69.6819 15.8911 69.1599 14.4423 69.1599 12.6209C69.1599 10.7988 69.6819 9.35003 70.726 8.26396C71.7587 7.1879 72.9948 6.64453 74.4115 6.64453C75.935 6.64453 77.2664 7.29457 78.3851 8.59398L78.5344 7.34791C78.5764 7.07122 78.7151 6.93255 78.9498 6.93255H81.0693Z" fill="#757575"/>
<path d="M95.9704 15.3285C96.2471 15.3285 96.3858 15.4671 96.3858 15.7438V17.9066C96.3858 18.1833 96.2471 18.322 95.9704 18.322H85.2111C84.9344 18.322 84.7957 18.1833 84.7957 17.9066V3.46174C84.7957 3.18506 84.9344 3.04639 85.2111 3.04639H87.5866C87.8639 3.04639 88.0026 3.18506 88.0026 3.46174V15.3285H95.9704Z" fill="#757575"/>
<path d="M98.8744 18.3195C98.5978 18.3195 98.4591 18.1809 98.4591 17.9042V7.34756C98.4591 7.07087 98.5978 6.9322 98.8744 6.9322H101.25C101.527 6.9322 101.666 7.07087 101.666 7.34756V17.9042C101.666 18.1809 101.527 18.3195 101.25 18.3195H98.8744ZM100.079 5.03609C99.5671 5.03609 99.1305 4.85474 98.7684 4.48205C98.4064 4.12003 98.2244 3.68334 98.2244 3.17197C98.2244 2.67128 98.4064 2.23458 98.7684 1.86123C99.1305 1.48854 99.5671 1.30786 100.079 1.30786C100.579 1.30786 101.016 1.48854 101.389 1.86123C101.751 2.23458 101.932 2.67128 101.932 3.17197C101.932 3.68334 101.751 4.12003 101.389 4.48205C101.016 4.85474 100.579 5.03609 100.079 5.03609Z" fill="#757575"/>
<path d="M112.115 17.4272C112.2 17.6619 112.136 17.8433 111.912 17.9706C111.114 18.3646 110.198 18.5566 109.164 18.5666C106.363 18.5666 105.245 17.0119 105.245 13.9337V9.51276H103.871C103.594 9.51276 103.455 9.37409 103.455 9.09741V7.35063C103.455 7.07328 103.594 6.93461 103.871 6.93461H105.245V4.39912C105.245 4.12244 105.383 3.98376 105.66 3.98376H108.014C108.292 3.98376 108.43 4.12244 108.43 4.39912V6.93461H111.348C111.626 6.93461 111.764 7.07328 111.764 7.35063V9.09741C111.764 9.37409 111.626 9.51276 111.348 9.51276H108.43V14.221C108.43 15.5525 108.962 15.9892 110.038 15.9892C110.368 15.9892 110.698 15.9258 111.018 15.8085C111.296 15.7331 111.476 15.8191 111.572 16.0532L112.115 17.4272Z" fill="#757575"/>
<path d="M116.266 11.5122H121.955C121.753 9.88273 120.73 9.00934 119.185 9.00934C117.609 9.00934 116.49 9.90406 116.266 11.5122ZM123.116 8.28463C124.16 9.38203 124.682 10.8094 124.682 12.5776C124.682 12.7802 124.671 12.9396 124.661 13.0569C124.618 13.3229 124.469 13.4509 124.202 13.4509H116.309C116.597 15.2731 117.715 16.1784 119.665 16.1784C120.911 16.1784 121.933 15.6884 122.722 14.719C122.924 14.5163 123.127 14.5057 123.308 14.6977L124.32 15.6777C124.512 15.9011 124.49 16.1244 124.256 16.3591C123.031 17.8292 121.422 18.5639 119.409 18.5639C117.619 18.5639 116.17 18.0105 115.052 16.9131C113.934 15.8164 113.369 14.399 113.369 12.6736C113.369 10.9795 113.891 9.55271 114.935 8.3913C115.979 7.2299 117.364 6.64453 119.079 6.64453C120.719 6.64453 122.061 7.18723 123.116 8.28463Z" fill="#757575"/>
</g>
</svg>
