<svg width="168" height="88" viewBox="0 0 168 88" fill="none" xmlns="http://www.w3.org/2000/svg">
<g clip-path="url(#clip0_292:890)">
<path d="M19.2605 44.6581C19.2277 45.2288 19.4228 45.7892 19.803 46.2161C20.1832 46.643 20.7173 46.9016 21.2879 46.9349H21.4055C21.8258 46.9344 22.2368 46.8109 22.5877 46.5796C22.9386 46.3483 23.2141 46.0193 23.3802 45.6332C23.5463 45.2471 23.5956 44.8208 23.5223 44.407C23.4489 43.9931 23.2559 43.6098 22.9672 43.3044C22.6785 42.999 22.3067 42.7847 21.8976 42.6882C21.4886 42.5916 21.0602 42.6169 20.6654 42.761C20.2706 42.9051 19.9266 43.1617 19.6759 43.499C19.4251 43.8363 19.2787 44.2397 19.2546 44.6593L19.2605 44.6581Z" fill="#757575"/>
<path d="M11.2351 44.1124C11.0979 44.1047 10.9615 44.1379 10.8431 44.2077C10.7248 44.2775 10.6298 44.3809 10.5701 44.5047C10.5105 44.6285 10.4889 44.7672 10.508 44.9033C10.5272 45.0393 10.5862 45.1667 10.6778 45.2692C10.7693 45.3717 10.8891 45.4448 11.0222 45.4792C11.1552 45.5137 11.2955 45.5079 11.4252 45.4626C11.555 45.4174 11.6684 45.3346 11.7511 45.2249C11.8339 45.1152 11.8823 44.9835 11.8902 44.8463C11.8956 44.755 11.8829 44.6636 11.8529 44.5773C11.8228 44.4909 11.776 44.4114 11.7152 44.3432C11.6543 44.275 11.5805 44.2195 11.4982 44.1799C11.4158 44.1403 11.3264 44.1174 11.2351 44.1124Z" fill="#757575"/>
<path d="M19.1239 32.1675C19.2461 32.1047 19.347 32.0072 19.4139 31.8872C19.4808 31.7673 19.5107 31.6302 19.4999 31.4932C19.489 31.3563 19.4379 31.2256 19.353 31.1176C19.268 31.0097 19.1531 30.9293 19.0225 30.8865C18.892 30.8438 18.7517 30.8406 18.6193 30.8774C18.487 30.9142 18.3685 30.9893 18.2787 31.0933C18.189 31.1973 18.132 31.3255 18.115 31.4618C18.098 31.5982 18.1216 31.7365 18.183 31.8593C18.2243 31.9416 18.2815 32.0149 18.3512 32.0749C18.4209 32.135 18.5018 32.1807 18.5893 32.2093C18.6768 32.2379 18.769 32.249 18.8608 32.2418C18.9525 32.2346 19.0419 32.2094 19.1239 32.1675Z" fill="#757575"/>
<path d="M21.3077 35.9754C21.4975 35.8797 21.6546 35.7298 21.7592 35.5448C21.8639 35.3598 21.9113 35.1479 21.8955 34.9359C21.8797 34.7239 21.8014 34.5214 21.6706 34.3539C21.5397 34.1864 21.3621 34.0615 21.1602 33.9949C20.9584 33.9283 20.7413 33.9231 20.5365 33.9798C20.3316 34.0366 20.1482 34.1529 20.0094 34.3139C19.8706 34.4749 19.7827 34.6734 19.7567 34.8844C19.7308 35.0953 19.7679 35.3093 19.8635 35.4991C19.927 35.6252 20.0148 35.7376 20.1217 35.8298C20.2287 35.922 20.3528 35.9923 20.4869 36.0365C20.621 36.0807 20.7625 36.0981 20.9034 36.0876C21.0442 36.0771 21.1816 36.039 21.3077 35.9754Z" fill="#757575"/>
<path d="M13.9587 38.5945C14.1051 38.6907 14.2767 38.7414 14.4519 38.7401C14.6271 38.7388 14.798 38.6855 14.9429 38.5871C15.0878 38.4886 15.2003 38.3494 15.2661 38.187C15.3318 38.0246 15.3479 37.8464 15.3124 37.6748C15.2768 37.5032 15.1912 37.3461 15.0663 37.2232C14.9414 37.1004 14.7828 37.0173 14.6107 36.9846C14.4386 36.9519 14.2607 36.9709 14.0994 37.0393C13.9381 37.1078 13.8007 37.2225 13.7047 37.369C13.576 37.5653 13.5305 37.8045 13.5781 38.0343C13.6258 38.2641 13.7626 38.4655 13.9587 38.5945Z" fill="#757575"/>
<path d="M15.2678 43.7208C15.0556 43.7088 14.8446 43.7601 14.6615 43.868C14.4784 43.9759 14.3314 44.1357 14.2391 44.3271C14.1467 44.5186 14.1132 44.7331 14.1428 44.9436C14.1724 45.154 14.2637 45.351 14.4052 45.5096C14.5467 45.6682 14.732 45.7813 14.9378 45.8346C15.1436 45.8879 15.3605 45.879 15.5612 45.809C15.7619 45.739 15.9373 45.6111 16.0653 45.4414C16.1933 45.2717 16.2682 45.0679 16.2804 44.8557C16.2964 44.571 16.1988 44.2915 16.0089 44.0787C15.8191 43.8659 15.5525 43.7372 15.2678 43.7208Z" fill="#757575"/>
<path d="M14.0767 50.9475C13.9204 51.0265 13.791 51.15 13.705 51.3025C13.6189 51.455 13.5799 51.6296 13.5931 51.8042C13.6062 51.9788 13.6708 52.1457 13.7787 52.2836C13.8866 52.4215 14.033 52.5243 14.1993 52.579C14.3657 52.6338 14.5445 52.638 14.7132 52.5911C14.8819 52.5442 15.033 52.4483 15.1472 52.3156C15.2615 52.1829 15.3338 52.0193 15.3551 51.8455C15.3764 51.6717 15.3457 51.4955 15.2668 51.3391C15.2144 51.2352 15.1421 51.1427 15.0539 51.0667C14.9657 50.9908 14.8635 50.933 14.7529 50.8967C14.6424 50.8603 14.5258 50.8461 14.4097 50.8548C14.2937 50.8635 14.1805 50.895 14.0767 50.9475Z" fill="#757575"/>
<path d="M18.2549 41.4993C18.4642 41.6365 18.7095 41.7085 18.9598 41.7063C19.21 41.7041 19.454 41.6277 19.6609 41.4868C19.8677 41.346 20.0281 41.1469 20.1219 40.9149C20.2156 40.6828 20.2384 40.4282 20.1874 40.1832C20.1365 39.9382 20.014 39.7138 19.8355 39.5384C19.657 39.363 19.4305 39.2444 19.1846 39.1977C18.9387 39.1511 18.6845 39.1783 18.4542 39.2761C18.2238 39.3739 18.0276 39.5378 17.8904 39.747C17.7991 39.886 17.7361 40.0416 17.705 40.2049C17.6739 40.3682 17.6753 40.536 17.7092 40.6988C17.743 40.8616 17.8087 41.0161 17.9023 41.1534C17.996 41.2908 18.1158 41.4083 18.2549 41.4993Z" fill="#757575"/>
<path d="M31.5112 35.8908C31.6894 36.0071 31.8981 36.0679 32.1109 36.0655C32.3236 36.0632 32.5309 35.9978 32.7066 35.8777C32.8822 35.7576 33.0183 35.5881 33.0976 35.3906C33.1769 35.1932 33.1959 34.9767 33.1522 34.7684C33.1085 34.5602 33.004 34.3696 32.852 34.2207C32.7 34.0718 32.5072 33.9714 32.2981 33.932C32.089 33.8927 31.8729 33.9162 31.6771 33.9996C31.4814 34.0831 31.3148 34.2227 31.1984 34.4008C31.1209 34.5191 31.0674 34.6515 31.0412 34.7905C31.015 34.9295 31.0164 35.0723 31.0455 35.2107C31.0746 35.3491 31.1307 35.4805 31.2106 35.5972C31.2905 35.7139 31.3926 35.8137 31.5112 35.8908Z" fill="#757575"/>
<path d="M33.7175 32.0945C33.8327 32.17 33.9677 32.2097 34.1054 32.2084C34.2431 32.2072 34.3774 32.1651 34.4912 32.0876C34.6051 32.01 34.6933 31.9004 34.7448 31.7727C34.7963 31.6449 34.8088 31.5048 34.7807 31.37C34.7525 31.2351 34.685 31.1117 34.5867 31.0152C34.4883 30.9188 34.3636 30.8537 34.2283 30.8281C34.0929 30.8026 33.953 30.8178 33.8263 30.8717C33.6996 30.9257 33.5917 31.0161 33.5164 31.1314C33.4154 31.2858 33.3799 31.474 33.4176 31.6545C33.4553 31.8351 33.5632 31.9934 33.7175 32.0945Z" fill="#757575"/>
<path d="M31.6804 42.6095C31.3981 42.5933 31.1155 42.6328 30.8485 42.7258C30.5815 42.8189 30.3355 42.9636 30.1245 43.1517C29.6983 43.5316 29.4404 44.0652 29.4077 44.6352C29.3749 45.2052 29.57 45.7649 29.9498 46.1911C30.3297 46.6173 30.8634 46.8752 31.4334 46.9079C31.4746 46.9079 31.5169 46.9079 31.5581 46.9079C31.9733 46.9077 32.3796 46.7874 32.728 46.5615C33.0764 46.3355 33.352 46.0136 33.5215 45.6346C33.6911 45.2556 33.7474 44.8356 33.6836 44.4253C33.6199 44.015 33.4388 43.6319 33.1622 43.3222C32.9749 43.111 32.7474 42.9392 32.4929 42.8168C32.2385 42.6944 31.9623 42.624 31.6804 42.6095Z" fill="#757575"/>
<path d="M22.0147 41.35C22.1934 41.7069 22.4682 42.0069 22.8081 42.2161C23.148 42.4254 23.5396 42.5355 23.9387 42.5343C24.3067 42.5343 24.6686 42.4401 24.9898 42.2606C25.3111 42.081 25.5809 41.8221 25.7736 41.5086C25.9663 41.1951 26.0755 40.8375 26.0907 40.4698C26.1059 40.1021 26.0266 39.7367 25.8604 39.4084C25.6805 39.053 25.4052 38.7548 25.0654 38.5471C24.7256 38.3394 24.3346 38.2304 23.9364 38.2323C23.5695 38.2329 23.2089 38.3273 22.8887 38.5064C22.5686 38.6855 22.2995 38.9435 22.107 39.2558C21.9145 39.5681 21.805 39.9244 21.7888 40.2909C21.7727 40.6574 21.8504 41.022 22.0147 41.35Z" fill="#757575"/>
<path d="M38.8909 38.5922C39.0472 38.5133 39.1766 38.3898 39.2628 38.2374C39.349 38.085 39.388 37.9105 39.375 37.7358C39.362 37.5612 39.2976 37.3944 39.1898 37.2564C39.082 37.1184 38.9357 37.0155 38.7695 36.9606C38.6032 36.9058 38.4244 36.9014 38.2556 36.9481C38.0869 36.9948 37.9358 37.0905 37.8214 37.2231C37.707 37.3557 37.6345 37.5192 37.613 37.6929C37.5916 37.8667 37.6221 38.0429 37.7007 38.1994C37.8066 38.4092 37.9914 38.5684 38.2145 38.642C38.4377 38.7157 38.6809 38.6978 38.8909 38.5922Z" fill="#757575"/>
<path d="M33.4328 39.2777C33.2092 39.3903 33.0241 39.5666 32.9008 39.7844C32.7775 40.0022 32.7215 40.2517 32.74 40.5013C32.7585 40.7509 32.8505 40.9894 33.0045 41.1867C33.1586 41.3839 33.3676 41.5311 33.6053 41.6095C33.843 41.688 34.0985 41.6942 34.3397 41.6274C34.5809 41.5606 34.7969 41.4238 34.9603 41.2342C35.1238 41.0447 35.2273 40.8109 35.2579 40.5625C35.2885 40.3141 35.2447 40.0622 35.1321 39.8387C35.0575 39.6902 34.9543 39.5578 34.8285 39.4492C34.7026 39.3406 34.5566 39.2579 34.3988 39.2058C34.2409 39.1537 34.0744 39.1332 33.9086 39.1456C33.7428 39.1579 33.5811 39.2028 33.4328 39.2777Z" fill="#757575"/>
<path d="M26.4023 31.7699C26.5772 31.7799 26.7512 31.7377 26.9021 31.6488C27.053 31.5599 27.1742 31.4283 27.2503 31.2705C27.3264 31.1127 27.354 30.9359 27.3296 30.7624C27.3052 30.589 27.2299 30.4266 27.1132 30.296C26.9966 30.1653 26.8437 30.0722 26.6741 30.0284C26.5045 29.9846 26.3257 29.9921 26.1604 30.0499C25.995 30.1077 25.8505 30.2133 25.7452 30.3532C25.6398 30.4932 25.5784 30.6612 25.5685 30.8361C25.5554 31.0705 25.6358 31.3005 25.7922 31.4756C25.9485 31.6507 26.168 31.7566 26.4023 31.7699Z" fill="#757575"/>
<path d="M26.393 37.3432C26.6428 37.3572 26.8911 37.2968 27.1066 37.1697C27.3222 37.0426 27.4952 36.8545 27.6038 36.6291C27.7124 36.4037 27.7517 36.1511 27.7169 35.9034C27.682 35.6556 27.5745 35.4237 27.4078 35.2371C27.2412 35.0504 27.023 34.9174 26.7808 34.8547C26.5386 34.792 26.2832 34.8025 26.047 34.885C25.8107 34.9674 25.6042 35.118 25.4536 35.3177C25.3029 35.5175 25.2148 35.7574 25.2005 36.0072C25.1815 36.3425 25.2965 36.6715 25.5201 36.9221C25.7438 37.1726 26.0577 37.3241 26.393 37.3432Z" fill="#757575"/>
<path d="M19.5368 50.2607C19.7603 50.148 19.9454 49.9716 20.0686 49.7537C20.1918 49.5359 20.2476 49.2863 20.229 49.0367C20.2104 48.7871 20.1182 48.5486 19.9641 48.3515C19.8099 48.1543 19.6008 48.0072 19.363 47.9289C19.1253 47.8506 18.8697 47.8445 18.6285 47.9115C18.3874 47.9785 18.1715 48.1155 18.0082 48.3052C17.8449 48.4948 17.7415 48.7287 17.7111 48.9771C17.6807 49.2256 17.7247 49.4775 17.8374 49.7009C17.9886 50.0004 18.2525 50.2277 18.5712 50.3327C18.8899 50.4376 19.2372 50.4117 19.5368 50.2607Z" fill="#757575"/>
<path d="M27.2103 39.1895C26.9478 39.59 26.8264 40.0666 26.8653 40.5439C26.9042 41.0211 27.1012 41.4718 27.425 41.8245C27.7489 42.1773 28.1811 42.4119 28.6533 42.4914C29.1255 42.5708 29.6107 42.4905 30.0322 42.2632C30.4536 42.0358 30.7872 41.6744 30.9801 41.2362C31.173 40.7979 31.2143 40.3078 31.0974 39.8435C30.9804 39.3791 30.7119 38.967 30.3344 38.6724C29.9569 38.3778 29.492 38.2175 29.0131 38.2169C28.6555 38.2167 28.3035 38.3054 27.9887 38.4752C27.674 38.645 27.4065 38.8905 27.2103 39.1895Z" fill="#757575"/>
<path d="M30.9524 48.1898C30.78 47.8479 30.5194 47.5582 30.1977 47.3505C29.8759 47.1429 29.5046 47.0249 29.122 47.0086C28.7394 46.9924 28.3594 47.0786 28.0212 47.2582C27.683 47.4378 27.3989 47.7044 27.1981 48.0305C26.9974 48.3566 26.8872 48.7304 26.8791 49.1132C26.871 49.4961 26.9652 49.8742 27.1519 50.2085C27.3387 50.5428 27.6113 50.8212 27.9416 51.015C28.2718 51.2088 28.6478 51.311 29.0308 51.311C29.3676 51.3087 29.6994 51.2282 29.9998 51.0758C30.508 50.8185 30.8936 50.3704 31.0721 49.8295C31.2507 49.2886 31.2076 48.699 30.9524 48.1898Z" fill="#757575"/>
<path d="M34.7135 48.0391C34.5043 47.9018 34.259 47.8295 34.0088 47.8316C33.7585 47.8336 33.5145 47.9098 33.3075 48.0506C33.1006 48.1913 32.94 48.3902 32.8461 48.6222C32.7522 48.8542 32.7292 49.1089 32.78 49.3539C32.8308 49.599 32.9532 49.8235 33.1316 49.999C33.31 50.1745 33.5365 50.2932 33.7823 50.34C34.0282 50.3869 34.2824 50.3597 34.5128 50.2621C34.7433 50.1644 34.9396 50.0006 35.0769 49.7914C35.2605 49.5107 35.3253 49.1686 35.2572 48.8402C35.1891 48.5118 34.9936 48.2237 34.7135 48.0391Z" fill="#757575"/>
<path d="M38.8341 44.8064C38.846 44.5941 38.7948 44.3831 38.6869 44.2C38.579 44.0169 38.4192 43.8699 38.2278 43.7776C38.0363 43.6853 37.8218 43.6518 37.6113 43.6814C37.4009 43.7109 37.2039 43.8022 37.0453 43.9437C36.8867 44.0852 36.7736 44.2706 36.7203 44.4763C36.667 44.6821 36.6759 44.899 36.7459 45.0997C36.8159 45.3004 36.9438 45.4759 37.1135 45.6039C37.2832 45.7319 37.487 45.8067 37.6992 45.8189C37.9839 45.835 38.2634 45.7373 38.4762 45.5475C38.689 45.3576 38.8177 45.0911 38.8341 44.8064Z" fill="#757575"/>
<path d="M41.812 44.0407C41.6745 44.0328 41.5378 44.0658 41.4191 44.1356C41.3004 44.2054 41.2051 44.3088 41.1451 44.4328C41.0852 44.5568 41.0634 44.6958 41.0825 44.8321C41.1015 44.9685 41.1606 45.0962 41.2522 45.199C41.3438 45.3018 41.4639 45.3751 41.5972 45.4097C41.7305 45.4442 41.871 45.4385 42.001 45.3932C42.1311 45.3479 42.2448 45.2651 42.3277 45.1552C42.4107 45.0452 42.4591 44.9132 42.4671 44.7757C42.4773 44.5915 42.4142 44.4106 42.2914 44.2729C42.1686 44.1351 41.9962 44.0516 41.812 44.0407Z" fill="#757575"/>
<path d="M39.0082 50.9441C38.8617 50.8481 38.6901 50.7978 38.515 50.7994C38.3399 50.8009 38.1691 50.8544 38.0244 50.953C37.8797 51.0516 37.7675 51.1909 37.7019 51.3533C37.6363 51.5156 37.6203 51.6938 37.656 51.8652C37.6917 52.0367 37.7774 52.1937 37.9023 52.3165C38.0272 52.4392 38.1857 52.5222 38.3577 52.5549C38.5297 52.5875 38.7076 52.5685 38.8688 52.5001C39.03 52.4317 39.1673 52.3171 39.2634 52.1707C39.3272 52.0734 39.3713 51.9645 39.393 51.8502C39.4147 51.7359 39.4137 51.6184 39.39 51.5045C39.3663 51.3906 39.3204 51.2824 39.2549 51.1863C39.1894 51.0901 39.1055 51.0078 39.0082 50.9441Z" fill="#757575"/>
<path d="M19.2509 57.444C19.1358 57.3684 19.0009 57.3287 18.8632 57.3299C18.7255 57.331 18.5913 57.3729 18.4774 57.4504C18.3636 57.5278 18.2752 57.6372 18.2236 57.7649C18.1719 57.8925 18.1593 58.0326 18.1872 58.1674C18.2152 58.3022 18.2825 58.4257 18.3806 58.5223C18.4787 58.6188 18.6033 58.6841 18.7385 58.7099C18.8738 58.7357 19.0136 58.7208 19.1404 58.6671C19.2672 58.6135 19.3752 58.5234 19.4508 58.4083C19.501 58.3319 19.5357 58.2463 19.5528 58.1564C19.57 58.0666 19.5692 57.9743 19.5507 57.8847C19.5321 57.7952 19.4961 57.7101 19.4446 57.6345C19.3932 57.5589 19.3274 57.4941 19.2509 57.444Z" fill="#757575"/>
<path d="M33.8434 57.3711C33.7204 57.433 33.6186 57.5301 33.5508 57.6499C33.483 57.7698 33.4522 57.9071 33.4624 58.0444C33.4726 58.1817 33.5234 58.313 33.6082 58.4215C33.6929 58.53 33.808 58.6109 33.9388 58.654C34.0696 58.6971 34.2102 58.7004 34.3429 58.6636C34.4756 58.6268 34.5944 58.5514 34.6843 58.4471C34.7741 58.3427 34.831 58.2141 34.8478 58.0774C34.8645 57.9407 34.8403 57.8021 34.7783 57.6792C34.7373 57.5975 34.6805 57.5246 34.6112 57.4649C34.542 57.4052 34.4616 57.3597 34.3748 57.3311C34.2879 57.3024 34.1963 57.2912 34.1051 57.2981C34.0139 57.305 33.925 57.3298 33.8434 57.3711Z" fill="#757575"/>
<path d="M25.7569 50.3455C26.0194 49.9449 26.1407 49.4683 26.1018 48.991C26.0629 48.5137 25.8658 48.063 25.5419 47.7102C25.218 47.3575 24.7857 47.1229 24.3134 47.0436C23.8411 46.9642 23.3559 47.0446 22.9345 47.2721C22.5131 47.4996 22.1795 47.8611 21.9868 48.2995C21.794 48.7379 21.7529 49.2281 21.87 49.6924C21.9872 50.1567 22.2559 50.5688 22.6335 50.8632C23.0112 51.1577 23.4763 51.3177 23.9552 51.3181C24.3128 51.3193 24.6651 51.2309 24.9798 51.0611C25.2945 50.8912 25.5617 50.6452 25.7569 50.3455Z" fill="#757575"/>
<path d="M21.4561 53.6489C21.2782 53.5325 21.0698 53.4715 20.8573 53.4736C20.6448 53.4756 20.4376 53.5406 20.262 53.6604C20.0864 53.7801 19.9502 53.9493 19.8707 54.1464C19.7912 54.3435 19.772 54.5598 19.8154 54.7678C19.8587 54.9759 19.9629 55.1664 20.1145 55.3154C20.2662 55.4643 20.4586 55.5649 20.6674 55.6045C20.8762 55.6441 21.0921 55.6209 21.2878 55.5378C21.4834 55.4547 21.65 55.3155 21.7665 55.1378C21.9226 54.8991 21.9776 54.6082 21.9194 54.3291C21.8612 54.0499 21.6945 53.8053 21.4561 53.6489Z" fill="#757575"/>
<path d="M26.4741 57.7686C26.2993 57.7587 26.1254 57.8008 25.9745 57.8897C25.8236 57.9785 25.7025 58.1101 25.6263 58.2678C25.5502 58.4256 25.5226 58.6023 25.5469 58.7757C25.5712 58.9492 25.6464 59.1115 25.7629 59.2422C25.8795 59.3729 26.0322 59.4661 26.2017 59.51C26.3712 59.5539 26.55 59.5466 26.7154 59.489C26.8807 59.4313 27.0253 59.3259 27.1308 59.1861C27.2362 59.0464 27.2979 58.8784 27.3079 58.7036C27.3146 58.5874 27.2984 58.4711 27.2601 58.3613C27.2218 58.2514 27.1622 58.1502 27.0848 58.0634C27.0073 57.9765 26.9135 57.9058 26.8088 57.8552C26.704 57.8047 26.5903 57.7752 26.4741 57.7686Z" fill="#757575"/>
<path d="M26.4836 52.1964C26.2336 52.1812 25.9847 52.2406 25.7684 52.367C25.5521 52.4933 25.3782 52.6811 25.2687 52.9064C25.1592 53.1317 25.1191 53.3844 25.1533 53.6325C25.1876 53.8806 25.2947 54.113 25.4611 54.3003C25.6275 54.4875 25.8458 54.6211 26.0882 54.6841C26.3306 54.7472 26.5863 54.7369 26.8229 54.6546C27.0594 54.5722 27.2662 54.4215 27.4171 54.2215C27.5679 54.0216 27.656 53.7813 27.6702 53.5312C27.6895 53.1969 27.5754 52.8687 27.3529 52.6184C27.1305 52.3682 26.8178 52.2164 26.4836 52.1964Z" fill="#757575"/>
<path d="M31.6592 53.5631C31.4693 53.6594 31.3122 53.8099 31.2079 53.9956C31.1036 54.1812 31.0568 54.3936 31.0732 54.6059C31.0897 54.8182 31.1688 55.0209 31.3005 55.1882C31.4322 55.3555 31.6106 55.48 31.813 55.5459C32.0155 55.6118 32.233 55.6162 32.438 55.5584C32.6429 55.5007 32.8261 55.3834 32.9644 55.2215C33.1027 55.0595 33.1898 54.8602 33.2147 54.6487C33.2397 54.4373 33.2013 54.2231 33.1045 54.0335C33.0406 53.9076 32.9525 53.7955 32.8452 53.7037C32.738 53.612 32.6137 53.5422 32.4794 53.4985C32.3452 53.4548 32.2036 53.438 32.0629 53.4491C31.9221 53.4602 31.7849 53.4989 31.6592 53.5631Z" fill="#757575"/>
<path d="M55.408 39.6847C57.492 39.6847 58.9514 40.8302 58.9514 42.9564H61.681C61.681 39.2261 58.9303 37.4291 55.3669 37.4291C50.9897 37.4291 48.4471 39.8058 48.4471 44.8287C48.4471 49.9762 50.9897 52.2271 55.3669 52.2271C58.9726 52.2271 61.681 50.4772 61.681 46.7456H59.0549C59.0549 48.8296 57.6166 49.9762 55.4092 49.9762C52.5115 49.9762 51.1755 48.3709 51.1755 45.0368V44.6205C51.1778 41.3512 52.5315 39.6847 55.408 39.6847Z" fill="#757575"/>
<path d="M68.8984 37.6831L63.3334 51.9813H66.0853L67.2308 48.8754H73.7707L74.9467 51.9813H77.8233L72.2548 37.6831H68.8984ZM68.0646 46.621L69.5241 42.7012C69.8157 41.9309 70.3367 40.2633 70.4414 39.9717H70.5448C70.6495 40.2633 71.1705 41.9509 71.4622 42.7012L72.9204 46.6198L68.0646 46.621Z" fill="#757575"/>
<path d="M92.705 42.018C92.705 39.3719 91.1832 37.6831 88.0361 37.6831H80.4907V51.9813H83.1591V46.454H87.5974L90.3023 51.9813H93.2201L90.1624 46.0412C91.85 45.3744 92.705 43.9573 92.705 42.018ZM87.8268 44.2066H83.1591V39.9552H87.8268C89.2651 39.9552 90.0154 40.7267 90.0154 42.018C90.0154 43.3739 89.2027 44.2066 87.8268 44.2066Z" fill="#757575"/>
<path d="M102.064 37.6831H96.3508V51.9813H102.062C106.375 51.9813 109 49.7304 109 44.8322C109 39.934 106.378 37.6831 102.064 37.6831ZM106.274 45.0404C106.253 48.1675 104.774 49.7092 102.064 49.7092H99.0215V39.9552H102.064C104.769 39.9552 106.274 41.4982 106.274 44.6241V45.0404Z" fill="#757575"/>
<path d="M115.99 37.6831L110.423 51.9813H113.174L114.32 48.8754H120.865L122.032 51.9813H124.908L119.343 37.6831H115.99ZM115.157 46.621L116.614 42.7012C116.905 41.9309 117.426 40.2633 117.531 39.9717H117.637C117.74 40.2633 118.263 41.9509 118.554 42.7012L120.012 46.6198L115.157 46.621Z" fill="#757575"/>
<path d="M137.105 46.187C137.105 46.4575 137.146 47.1866 137.146 47.3125L137.043 47.3536C136.98 47.2713 136.563 46.541 136.337 46.2082L130.126 37.6831H127.58V51.9813H130.144V43.4151C130.144 43.0623 130.102 42.3731 130.102 42.2685L130.206 42.2061C130.269 42.2896 130.582 42.8941 130.912 43.3739L137.165 51.9813H139.665V37.6831H137.103V46.187H137.105Z" fill="#757575"/>
<path d="M150.293 37.4337C145.812 37.4337 143.103 39.8093 143.103 44.8322C143.103 49.855 145.808 52.2306 150.293 52.2306C154.778 52.2306 157.505 49.855 157.505 44.8322C157.505 39.8093 154.774 37.4337 150.293 37.4337ZM154.774 45.0615C154.774 48.3332 153.211 49.9797 150.293 49.9797C147.397 49.9797 145.834 48.3332 145.834 45.0615V44.624C145.834 41.3511 147.418 39.6846 150.293 39.6846C153.191 39.6846 154.774 41.3511 154.774 44.624V45.0615Z" fill="#757575"/>
</g>
<defs>
<clipPath id="clip0_292:890">
<rect width="147.004" height="29.5385" fill="white" transform="translate(10.5 30)"/>
</clipPath>
</defs>
</svg>
