<svg width="140" height="88" viewBox="0 0 140 88" fill="#757575" xmlns="http://www.w3.org/2000/svg">
<g clip-path="url(#clip0_1028_2383)" transform="translate(22,22)">
<path d="M52.0575 20.9615H49.9935V28.6575H47.1135V20.9615H45.6255V18.4943H47.1135V17.5343C47.1135 15.0479 48.6655 13.7711 51.0239 13.7711C51.3891 13.7742 51.7529 13.8171 52.1087 13.8991V16.7791C51.7983 16.6546 51.4672 16.5895 51.1327 16.5871C50.9816 16.5751 50.8297 16.596 50.6874 16.6483C50.5452 16.7006 50.4159 16.7832 50.3086 16.8902C50.2012 16.9972 50.1183 17.1263 50.0656 17.2684C50.0129 17.4105 49.9916 17.5624 50.0031 17.7135V18.4783H52.0671L52.0575 20.9615ZM56.3935 28.6575H53.4815V13.9887H56.3935V28.6575Z" fill="#757575"/>
<path d="M62.8574 17.8576C63.9494 17.8557 65.0173 18.1779 65.926 18.7833C66.8347 19.3888 67.5433 20.2503 67.962 21.2588C68.3808 22.2672 68.4908 23.3773 68.2783 24.4483C68.0657 25.5194 67.5401 26.5032 66.768 27.2754C65.9959 28.0475 65.012 28.5731 63.9409 28.7856C62.8699 28.9982 61.7598 28.8882 60.7514 28.4694C59.7429 28.0507 58.8814 27.3421 58.276 26.4334C57.6705 25.5247 57.3483 24.4567 57.3502 23.3648C57.3412 22.6391 57.4775 21.9189 57.751 21.2467C58.0246 20.5744 58.4299 19.9637 58.9431 19.4505C59.4563 18.9373 60.067 18.532 60.7393 18.2584C61.4115 17.9849 62.1317 17.8486 62.8574 17.8576ZM62.8574 26.0656C64.3454 26.0656 65.4174 24.8304 65.4174 23.3648C65.4334 23.0188 65.3791 22.6731 65.2576 22.3487C65.1362 22.0243 64.9501 21.728 64.7108 21.4776C64.4715 21.2272 64.1838 21.0279 63.8652 20.8919C63.5467 20.756 63.2038 20.686 62.8574 20.6864C62.1601 20.7105 61.4995 21.0044 61.0147 21.5061C60.5299 22.0079 60.259 22.6783 60.259 23.376C60.259 24.0737 60.5299 24.7441 61.0147 25.2459C61.4995 25.7476 62.1601 26.0415 62.8574 26.0656Z" fill="#757575"/>
<path d="M71.4049 18.0721L73.2769 25.1121L75.1489 19.5185L74.6369 18.0753H77.5169L79.9841 25.1153L81.8113 18.0753H84.8001L81.6545 28.6609H78.6337L76.5281 22.8561L74.5601 28.6577H71.5201L68.3937 18.0721H71.4049Z" fill="#757575"/>
<path d="M24 37C32.8366 37 40 29.8366 40 21C40 12.1634 32.8366 5 24 5C15.1634 5 8 12.1634 8 21C8 29.8366 15.1634 37 24 37Z" fill="#585858"/>
<path d="M31.0208 18.4976H26.5024V23.016H31.0208V18.4976Z" fill="#212121"/>
<path d="M21.9872 24.7088C21.9872 25.0442 21.8878 25.3721 21.7014 25.651C21.515 25.9299 21.2502 26.1473 20.9403 26.2757C20.6303 26.404 20.2893 26.4376 19.9603 26.3722C19.6314 26.3067 19.3292 26.1452 19.092 25.908C18.8548 25.6708 18.6932 25.3686 18.6278 25.0396C18.5624 24.7106 18.596 24.3696 18.7243 24.0597C18.8527 23.7498 19.0701 23.4849 19.349 23.2986C19.6279 23.1122 19.9558 23.0128 20.2912 23.0128H21.9872V18.4976H20.2912C19.0628 18.4976 17.8619 18.8618 16.8405 19.5443C15.819 20.2268 15.0229 21.1969 14.5528 22.3318C14.0827 23.4668 13.9597 24.7156 14.1994 25.9205C14.439 27.1254 15.0306 28.2321 15.8992 29.1007C16.7679 29.9694 17.8746 30.561 19.0795 30.8006C20.2843 31.0403 21.5332 30.9173 22.6681 30.4472C23.8031 29.977 24.7731 29.1809 25.4556 28.1595C26.1381 27.1381 26.5024 25.9372 26.5024 24.7088V23.0128H21.9872V24.7088Z" fill="#212121"/>
<path d="M28.1983 16.2385H33.2799V11.7201H28.1983C26.5515 11.7218 24.9726 12.3767 23.8082 13.5412C22.6437 14.7056 21.9888 16.2845 21.9871 17.9313V18.4977H26.5023V17.9313C26.5031 17.482 26.6822 17.0515 27.0001 16.7341C27.3181 16.4167 27.749 16.2385 28.1983 16.2385Z" fill="#212121"/>
<path d="M21.9871 23.0128H26.5023V18.4976H21.9871V23.0128Z" fill="#5F5F5F"/>
</g>
<defs>
<clipPath id="clip0_1028_2383">
<rect width="76.8" height="32" fill="#212121" transform="translate(8 5)"/>
</clipPath>
</defs>
</svg>
