<svg width="140" height="88" viewBox="0 0 140 88" fill="none" xmlns="http://www.w3.org/2000/svg">
<g clip-path="url(#clip0_292:856)">
<path d="M30.6395 30H19.3803V45.3401H34.5742V33.9726C34.5742 31.7715 32.8196 30 30.6395 30V30ZM15.871 30H13.9347C11.7546 30 10 31.7715 10 33.9726V35.9275H15.871V30ZM10 39.4705H15.871V45.398H10V39.4705ZM28.7653 54.8106H30.7016C32.8817 54.8106 34.6364 53.0391 34.6364 50.838V48.9459H28.7653V54.8106ZM19.3803 48.9459H25.2513V54.8734H19.3803V48.9459ZM10 48.9459V50.9008C10 53.1019 11.7546 54.8734 13.9347 54.8734H15.871V48.9459H10ZM49.5865 31.5881H47.2868V53.2805H59.4544V51.2049H49.5865V31.5881ZM66.8362 37.3322C62.3564 37.3322 59.2106 40.6917 59.2106 45.5187V46.0738C59.2727 48.1494 60.1811 50.1091 61.6919 51.5717C63.1453 52.9184 65.0194 53.7101 67.0179 53.7101H67.3191C69.437 53.7101 71.4355 52.9136 73.0084 51.5717L73.0706 51.509L72.0427 49.8002L71.9232 49.863C70.6514 51.0263 69.0785 51.6972 67.386 51.6972C64.6035 51.6972 61.7588 49.863 61.5771 45.7697H73.1997V45.649C73.1997 45.649 73.2618 44.9153 73.2618 44.5485C73.2475 40.1463 70.7088 37.3322 66.8362 37.3322ZM61.6297 43.81C62.1126 41.0586 64.111 39.2871 66.7119 39.2871C68.6482 39.2871 70.7662 40.4504 70.9478 43.81H61.6297ZM86.5673 39.1664V39.9629C85.5967 38.312 83.7847 37.2742 81.9058 37.2742H81.7241C77.6077 37.2742 74.7631 40.5759 74.7631 45.4029C74.7631 50.2926 77.4882 53.5894 81.5425 53.5894C84.7505 53.5894 86.2039 51.6345 86.6868 50.7801V53.1646H88.8669V31.5881H86.6294V39.1664H86.5673ZM81.8437 51.5717C78.999 51.5717 77.1249 49.1293 77.1249 45.4608C77.1249 41.9178 79.1233 39.4126 81.9058 39.4126C84.2676 39.4126 86.6246 41.3048 86.6246 45.4608C86.6246 49.9836 84.1433 51.5717 81.8437 51.5717ZM102.12 39.4705V39.5912C101.694 38.8575 100.365 37.2694 97.1571 37.2694C93.1029 37.2694 90.4399 40.3876 90.4399 45.1519C90.4399 49.9161 93.2224 53.155 97.3388 53.155C99.5763 53.155 101.092 52.3585 102.12 50.7125V52.8509C102.12 55.8436 100.246 57.5572 96.9133 57.5572C95.522 57.5572 94.0686 57.1903 92.7969 56.5194L92.6774 56.4566L91.8311 58.3488L91.9506 58.4115C93.5236 59.208 95.2782 59.6328 96.9754 59.6328C100.547 59.6328 104.357 57.7985 104.357 52.7254V37.699H102.12V39.4705ZM97.64 51.1421C94.6758 51.1421 92.7395 48.8203 92.7395 45.2146C92.7395 41.5461 94.432 39.4705 97.3388 39.4705C100.547 39.4705 102.058 41.3627 102.058 45.2146C102.12 49.0038 100.547 51.1421 97.64 51.1421ZM113.498 37.3322C109.019 37.3322 105.935 40.6917 105.935 45.4608V46.0111C105.997 48.0867 106.906 50.0464 108.416 51.509C109.87 52.8557 111.744 53.6473 113.742 53.6473H114.044C116.161 53.6473 118.16 52.8509 119.733 51.509L119.795 51.4462L118.705 49.7375L118.585 49.8002C117.314 50.9635 115.741 51.6345 114.048 51.6345C111.266 51.6345 108.421 49.8002 108.239 45.707H119.915V45.5863C119.915 45.5863 119.977 44.8526 119.977 44.4857C119.977 40.1463 117.433 37.3322 113.498 37.3322ZM108.354 43.81C108.837 41.0586 110.835 39.2871 113.436 39.2871C115.373 39.2871 117.491 40.4504 117.672 43.81H108.354ZM129.419 37.6363C129.118 37.5735 128.874 37.5735 128.573 37.5156C126.455 37.5156 124.7 38.8623 123.792 41.1213V37.6363H121.554L121.617 53.097V53.2177H123.916V46.682C123.916 45.7021 124.036 44.6643 124.342 43.7472C125.068 41.3627 126.704 39.8374 128.64 39.8374C128.884 39.8374 129.123 39.8374 129.367 39.9001H129.486V37.6411L129.419 37.6363Z" fill="#757575"/>
</g>
<defs>
<clipPath id="clip0_292:856">
<rect width="119.477" height="29.6376" fill="white" transform="translate(10 30)"/>
</clipPath>
</defs>
</svg>
