<svg width="169" height="88" viewBox="0 0 169 88" fill="none" xmlns="http://www.w3.org/2000/svg">
<g clip-path="url(#clip0_292:876)">
<path d="M60.3543 46.2116H65.9567C66.7445 46.2116 67.3828 46.8567 67.3828 47.6444C67.3828 48.439 66.7445 49.0773 65.9567 49.0773H59.1998C59.0912 49.0773 58.9893 49.1181 58.9146 49.186L56.8773 50.9448C56.565 51.2164 56.7551 51.7257 57.1626 51.7257H65.6172C65.6172 51.7257 65.624 51.7257 65.624 51.719C65.624 51.7122 65.6308 51.7122 65.6308 51.7122C65.7394 51.719 65.8413 51.7257 65.9567 51.7257C68.1977 51.7257 70.0177 49.899 70.0177 47.6444C70.0177 45.5053 68.3811 43.7465 66.2895 43.5767C66.2895 43.5767 66.2827 43.5767 66.2827 43.5699C66.2827 43.5631 66.2827 43.5631 66.2759 43.5631H60.2456C59.4579 43.5631 58.8195 42.918 58.8195 42.1303C58.8195 41.3357 59.4579 40.6974 60.2456 40.6974H66.9889C67.0976 40.6974 67.2062 40.6566 67.2877 40.5819L69.1824 38.8231C69.4812 38.5515 69.2842 38.049 68.8836 38.049H60.3543C60.3203 38.049 60.2796 38.049 60.2456 38.049C58.0046 38.049 56.1847 39.8757 56.1847 42.1303C56.1847 44.3848 58.0046 46.2116 60.2456 46.2116C60.2796 46.2116 60.3203 46.2116 60.3543 46.2116Z" fill="#757575"/>
<path d="M92.9707 38.0421C92.7262 38.0421 92.5293 38.239 92.5293 38.4903V51.2843C92.5293 51.5288 92.7262 51.7325 92.9707 51.7325H103.225C103.347 51.7325 103.463 51.6782 103.551 51.5899L104.834 50.2113C105.099 49.9261 104.902 49.4643 104.508 49.4643H95.558C95.3136 49.4643 95.1166 49.2674 95.1166 49.0161V38.4903C95.1166 38.2458 94.9197 38.0421 94.6752 38.0421H92.9707Z" fill="#757575"/>
<path fill-rule="evenodd" clip-rule="evenodd" d="M76.5435 38.0421C75.2329 38.1032 74.1803 39.1558 74.1192 40.4665V49.0705C74.1192 49.1044 74.1192 49.1452 74.1192 49.1791C74.1192 50.5441 75.1921 51.6578 76.5435 51.7121H85.847C87.1916 51.651 88.2713 50.5373 88.2713 49.1791C88.2713 49.1452 88.2713 49.1044 88.2713 49.0705V40.4732C88.217 39.1626 87.1644 38.1032 85.8538 38.0489H76.5435V38.0421ZM78.282 40.4732C77.4603 40.5072 76.8016 41.1727 76.7676 42.0012V47.4135C76.7676 47.4339 76.7676 47.461 76.7676 47.4814C76.7676 48.3371 77.4399 49.0433 78.282 49.0773H84.1153C84.9574 49.0433 85.6297 48.3371 85.6297 47.4814C85.6297 47.461 85.6297 47.4339 85.6297 47.4135V42.0012C85.5957 41.1727 84.937 40.514 84.1153 40.4732H78.282Z" fill="#757575"/>
<path fill-rule="evenodd" clip-rule="evenodd" d="M119.74 51.2843C119.74 51.5288 119.937 51.7325 120.182 51.7325H121.92C122.165 51.7325 122.361 51.5356 122.361 51.2843V40.6906C122.361 40.6566 122.361 40.6159 122.361 40.5819C122.361 39.217 121.295 38.1033 119.964 38.049H111.034C111 38.049 110.96 38.049 110.926 38.049C109.54 38.049 108.42 39.183 108.42 40.5887C108.42 40.6227 108.42 40.6634 108.42 40.6974V51.2843C108.42 51.5288 108.617 51.7325 108.861 51.7325H110.6C110.844 51.7325 111.041 51.5356 111.041 51.2843V46.8771C111.041 46.6326 111.238 46.4289 111.483 46.4289H119.319C119.564 46.4289 119.761 46.6258 119.761 46.8771V51.2843H119.74ZM111.021 43.9977V41.7975C111.021 40.9419 111.707 40.2492 112.549 40.2492H118.212C119.054 40.2492 119.74 40.9419 119.74 41.7975V43.9977C119.74 44.2422 119.543 44.4459 119.299 44.4459H111.462C111.218 44.4459 111.021 44.2422 111.021 43.9977Z" fill="#757575"/>
<path fill-rule="evenodd" clip-rule="evenodd" d="M156.445 51.7257C156.2 51.7257 156.004 51.5288 156.004 51.2775V46.8702C156.004 46.6258 155.807 46.422 155.562 46.422H147.637C147.393 46.422 147.196 46.619 147.196 46.8702V51.2775C147.196 51.522 146.999 51.7257 146.754 51.7257H145.002C144.758 51.7257 144.561 51.5288 144.561 51.2775V40.6905C144.561 40.6566 144.561 40.6158 144.561 40.5819C144.561 39.183 145.695 38.0421 147.094 38.0421C147.128 38.0421 147.169 38.0421 147.203 38.0421H156.234C157.579 38.1032 158.659 39.2169 158.659 40.5751C158.659 40.6091 158.659 40.6498 158.659 40.6838V51.2707C158.659 51.5152 158.462 51.7189 158.217 51.7189H156.445V51.7257ZM147.189 41.7975V43.9977C147.189 44.2422 147.386 44.4459 147.63 44.4459H155.555C155.8 44.4459 155.997 44.249 155.997 43.9977V41.7975C155.997 40.9418 155.304 40.2491 154.455 40.2491H148.731C147.875 40.2491 147.189 40.9418 147.189 41.7975Z" fill="#757575"/>
<path d="M128.901 38.0421C129.03 38.0421 129.152 38.0964 129.234 38.1983L137.03 47.495C137.295 47.8074 137.804 47.6172 137.804 47.203V38.4903C137.804 38.2458 138.001 38.0421 138.245 38.0421H139.984C140.228 38.0421 140.425 38.239 140.425 38.4903V51.2843C140.425 51.5288 140.228 51.7325 139.984 51.7325H137.824C137.818 51.7325 137.811 51.7257 137.811 51.7189C137.811 51.7121 137.811 51.7121 137.804 51.7053L129.872 42.4765C129.607 42.1642 129.098 42.3611 129.098 42.7686V51.2911C129.098 51.5355 128.901 51.7393 128.657 51.7393H126.905C126.66 51.7393 126.463 51.5423 126.463 51.2911V38.4903C126.463 38.2458 126.66 38.0421 126.905 38.0421H128.901Z" fill="#757575"/>
<path d="M15.7587 52.2011C15.976 51.9838 16.268 51.8616 16.5736 51.8616H44.8575C45.3736 51.8616 45.6316 52.4863 45.2649 52.8462L39.6761 58.4351C39.4588 58.6524 39.1667 58.7747 38.8612 58.7747H10.5772C10.0611 58.7747 9.80307 58.1499 10.1698 57.79L15.7587 52.2011Z" fill="#757575"/>
<path d="M15.7583 31.3395C15.9756 31.1222 16.2676 31 16.5732 31H44.8571C45.3732 31 45.6313 31.6248 45.2646 31.9847L39.6757 37.5736C39.4584 37.7909 39.1664 37.9131 38.8608 37.9131H10.5769C10.0608 37.9131 9.8027 37.2883 10.1694 36.9284L15.7583 31.3395Z" fill="#757575"/>
<path d="M39.6761 41.7023C39.4588 41.485 39.1667 41.3628 38.8612 41.3628H10.5772C10.0611 41.3628 9.80307 41.9876 10.1698 42.3475L15.7587 47.9296C15.976 48.1469 16.268 48.2691 16.5736 48.2691H44.8575C45.3736 48.2691 45.6316 47.6443 45.2649 47.2844L39.6761 41.7023Z" fill="#757575"/>
</g>
<defs>
<clipPath id="clip0_292:876">
<rect width="148.645" height="27.7678" fill="white" transform="translate(10 31)"/>
</clipPath>
</defs>
</svg>
