<svg width="141" height="88" viewBox="0 0 141 88" fill="none" xmlns="http://www.w3.org/2000/svg">
<g clip-path="url(#clip0_292:862)">
<path d="M22.0135 26C17.4312 26 13.7228 29.7808 13.7228 34.4526V37.6206C12.1137 37.9176 10.5 38.3136 10.5 38.8274V55.3603C10.5 55.3603 10.5 55.8176 11.004 56.0344C12.8304 56.7887 20.0159 59.3815 21.6667 59.9755C21.8794 60.0557 21.9395 60.0557 21.995 60.0557C22.0736 60.0557 22.1106 60.0557 22.3233 59.9755C23.974 59.3815 31.178 56.7887 33.0044 56.0344C33.4714 55.8364 33.4899 55.3791 33.4899 55.3791V38.8274C33.4899 38.3136 31.8993 37.8987 30.2856 37.6206V34.4526C30.3087 29.7808 26.5772 26 22.0135 26ZM22.0135 30.0401C24.7138 30.0401 26.346 31.7042 26.346 34.4573V37.2105C23.3174 36.9936 20.7326 36.9936 17.6855 37.2105V34.4573C17.6855 31.6995 19.3177 30.0401 22.0135 30.0401ZM21.995 41.2647C25.7634 41.2647 28.9262 41.5617 28.9262 42.0944V52.4092C28.9262 52.5695 28.9077 52.5883 28.769 52.6449C28.6349 52.7062 22.3418 55.0209 22.3418 55.0209C22.3418 55.0209 22.0874 55.101 22.0135 55.101C21.9349 55.101 21.6852 55.002 21.6852 55.002C21.6852 55.002 15.3921 52.6873 15.258 52.626C15.1239 52.5647 15.1008 52.5459 15.1008 52.3903V42.0756C15.0638 41.5428 18.2265 41.2647 21.995 41.2647Z" fill="#757575"/>
<path d="M44.1834 52.5498V41.2542H40.1354V37.2036H52.7568V41.2542H48.7485V52.5498H44.1834Z" fill="#757575"/>
<path d="M62.983 52.5498L60.906 47.7243H59.2532V52.5498H54.688V37.2036H62.7223C66.2489 37.2036 68.1403 39.5871 68.1403 42.4617C68.1403 45.111 66.6378 46.5122 65.4313 47.116L68.158 52.5453H62.983V52.5498ZM63.5222 42.4617C63.5222 41.6281 62.7974 41.2677 62.0373 41.2677H59.2532V43.6917H62.0373C62.7974 43.6737 63.5222 43.3132 63.5222 42.4617Z" fill="#757575"/>
<path d="M70.5356 52.5498V37.2036H81.9506V41.2542H75.083V42.7681H81.7827V46.8186H75.083V48.5037H81.9506V52.5498H70.5356Z" fill="#757575"/>
<path d="M84.3237 52.5677V48.8776L90.0599 41.2721H84.3237V37.2216H96.0701V40.8756L90.3163 48.5217H96.2381V52.5722L84.3237 52.5677Z" fill="#757575"/>
<path d="M97.3517 44.9037C97.3517 40.1909 100.936 36.9558 105.594 36.9558C110.234 36.9558 113.836 40.1728 113.836 44.9037C113.836 49.6166 110.252 52.8337 105.594 52.8337C100.936 52.8337 97.3517 49.6166 97.3517 44.9037ZM109.195 44.9037C109.195 42.7636 107.768 41.0604 105.576 41.0604C103.384 41.0604 101.957 42.7636 101.957 44.9037C101.957 47.0439 103.384 48.7471 105.576 48.7471C107.786 48.7471 109.195 47.0439 109.195 44.9037Z" fill="#757575"/>
<path d="M124.04 52.5677L121.963 47.7422H120.31V52.5677H115.745V37.2216H123.779C127.306 37.2216 129.197 39.605 129.197 42.4796C129.197 45.1289 127.694 46.5302 126.488 47.1339L129.215 52.5632H124.04V52.5677ZM124.597 42.4616C124.597 41.6281 123.872 41.2676 123.112 41.2676H120.328V43.6916H123.112C123.876 43.6736 124.597 43.3132 124.597 42.4616Z" fill="#757575"/>
</g>
<defs>
<clipPath id="clip0_292:862">
<rect width="118.718" height="34.0509" fill="white" transform="translate(10.5 26)"/>
</clipPath>
</defs>
</svg>
