<svg width="185" height="88" viewBox="0 0 177 88" fill="none" xmlns="http://www.w3.org/2000/svg">
<g clip-path="url(#clip0_292:934)">
<path fill-rule="evenodd" clip-rule="evenodd" d="M22.482 46.8045L18.8111 40.4593C18.2213 41.6447 17.7708 43.3658 17.7556 45.9161L20.916 51.3795C21.0879 51.6766 21.4061 51.86 21.7499 51.86H23.2146C23.5584 51.86 23.8758 51.6775 24.0477 51.3804C25.7095 48.5073 28.4386 43.7898 30.9579 39.4354C31.088 39.2104 30.9248 38.9293 30.6645 38.9293H27.4479C27.1942 38.9293 26.9596 39.0644 26.8329 39.2842L22.482 46.8045Z" fill="#757575"/>
<path fill-rule="evenodd" clip-rule="evenodd" d="M36.923 29.1237C29.7025 41.6047 16.6446 29.1237 16.6446 43.996L9.32226 31.3386C9.06676 30.8973 9.04848 30.3356 9.32226 29.8621C9.59604 29.3886 10.0931 29.1237 10.6037 29.1237H36.923Z" fill="#757575"/>
<path fill-rule="evenodd" clip-rule="evenodd" d="M40.973 48.2678C41.6641 47.6267 42.0032 46.6832 42.0032 45.4612C42.0032 44.2397 41.652 43.284 40.9612 42.5942C40.27 41.9048 39.4095 41.5538 38.4036 41.5538C37.4095 41.5538 36.5729 41.8926 35.9065 42.5699C35.2401 43.2475 34.9006 44.191 34.9006 45.3887C34.9006 46.598 35.2401 47.542 35.9187 48.2192C36.5973 48.8968 37.4456 49.2357 38.4519 49.2357C39.4461 49.2357 40.2822 48.909 40.973 48.2678ZM45.0091 38.9288C45.3247 38.9288 45.4818 39.086 45.4818 39.4005V51.3885C45.4818 51.703 45.3247 51.8603 45.0091 51.8603H42.5973C42.3671 51.8603 42.2095 51.703 42.1247 51.3885L41.9305 49.8038C40.7427 51.3764 39.2641 52.1626 37.5065 52.1626C35.8338 52.1626 34.4036 51.5458 33.2279 50.3238C32.0519 49.1023 31.4582 47.4572 31.4582 45.3887C31.4582 43.3201 32.0519 41.675 33.2401 40.4409C34.4158 39.2194 35.8216 38.6025 37.4339 38.6025C39.1671 38.6025 40.6822 39.3401 41.9549 40.8162L42.1247 39.4005C42.173 39.086 42.3305 38.9288 42.5973 38.9288H45.0091Z" fill="#757575"/>
<path fill-rule="evenodd" clip-rule="evenodd" d="M49.8122 50.1786C48.5638 48.872 47.9458 47.2634 47.9458 45.3642C47.9458 43.4894 48.5756 41.8926 49.8244 40.5859C51.0727 39.2797 52.6605 38.6263 54.6122 38.6263C55.6668 38.6263 56.6362 38.8318 57.5211 39.2432C58.4059 39.6667 59.1089 40.1989 59.6299 40.8643C59.8362 41.1185 59.7996 41.3361 59.5328 41.5294L57.9211 42.7392C57.6908 42.8964 57.4727 42.8721 57.2786 42.6666C56.5395 41.9286 55.6786 41.5537 54.721 41.5537C53.6908 41.5537 52.8668 41.9164 52.2244 42.6545C51.5815 43.3925 51.2668 44.2995 51.2668 45.3881C51.2668 46.4893 51.5815 47.3963 52.2244 48.1222C52.8668 48.8481 53.703 49.2108 54.7454 49.2108C55.3757 49.2108 55.8605 49.0418 56.2727 48.8846C56.5147 48.7877 56.8303 48.5696 56.9395 48.4732C56.9996 48.4367 57.0845 48.3642 57.1937 48.2677L57.3757 48.1222C57.6059 47.9406 57.8366 47.9163 58.0425 48.074L59.6299 49.2108C59.8601 49.3924 59.9089 49.61 59.7513 49.852C59.2543 50.5175 58.5391 51.0618 57.6059 51.4849C56.6727 51.9206 55.6668 52.1386 54.5878 52.1386C52.6483 52.1386 51.0609 51.4849 49.8122 50.1786Z" fill="#757575"/>
<path fill-rule="evenodd" clip-rule="evenodd" d="M74.1533 38.9288C74.4685 38.9288 74.626 39.0861 74.626 39.4006V51.3886C74.626 51.7031 74.4685 51.8603 74.1533 51.8603H71.6441C71.3773 51.8603 71.2197 51.7031 71.1714 51.3886L71.0016 50.1306C69.7777 51.485 68.2625 52.1627 66.481 52.1627C63.3654 52.1627 61.6931 49.9851 61.6931 45.9691V39.4006C61.6931 39.0861 61.8503 38.9288 62.1654 38.9288H64.8684C65.1839 38.9288 65.3411 39.0861 65.3411 39.4006V45.9691C65.3411 47.82 66.3108 48.9086 67.9713 48.9086C69.6806 48.9086 70.8684 47.711 70.9777 45.195V39.4006C70.9777 39.0861 71.1352 38.9288 71.4504 38.9288H74.1533Z" fill="#757575"/>
<path fill-rule="evenodd" clip-rule="evenodd" d="M90.1313 38.9288C90.4464 38.9288 90.6036 39.0861 90.6036 39.4006V51.3886C90.6036 51.7031 90.4464 51.8603 90.1313 51.8603H87.622C87.3557 51.8603 87.1977 51.7031 87.1494 51.3886L86.9796 50.1306C85.7552 51.485 84.2401 52.1627 82.4585 52.1627C79.3434 52.1627 77.6711 49.9851 77.6711 45.9691V39.4006C77.6711 39.0861 77.8282 38.9288 78.1434 38.9288H80.8463C81.1619 38.9288 81.319 39.0861 81.319 39.4006V45.9691C81.319 47.82 82.2888 48.9086 83.9493 48.9086C85.6581 48.9086 86.8464 47.711 86.9552 45.195V39.4006C86.9552 39.0861 87.1128 38.9288 87.4284 38.9288H90.1313Z" fill="#757575"/>
<path fill-rule="evenodd" clip-rule="evenodd" d="M114.727 40.2714C115.636 41.3722 116.084 42.8843 116.084 44.7956V51.3884C116.084 51.7029 115.927 51.8602 115.612 51.8602H112.909C112.594 51.8602 112.436 51.7029 112.436 51.3884V44.7956C112.436 42.9451 111.479 41.8804 109.831 41.8804C108.073 41.8804 106.897 43.0537 106.8 45.5697V51.3884C106.8 51.7029 106.643 51.8602 106.327 51.8602H103.697C103.382 51.8602 103.224 51.7029 103.224 51.3884V44.7956C103.224 42.9451 102.255 41.8804 100.594 41.8804C98.8369 41.8804 97.6608 43.0537 97.5637 45.5697V51.3884C97.5637 51.7029 97.4062 51.8602 97.091 51.8602H94.3881C94.0729 51.8602 93.9158 51.7029 93.9158 51.3884V39.4004C93.9158 39.0859 94.0729 38.9287 94.3881 38.9287H96.9217C97.152 38.9287 97.3091 39.0859 97.3944 39.4004L97.5398 40.6341C98.7154 39.2914 100.121 38.6263 101.782 38.6263C103.806 38.6263 105.249 39.5212 106.109 41.3118C107.334 39.5212 108.958 38.6263 110.994 38.6263C112.57 38.6263 113.818 39.1706 114.727 40.2714Z" fill="#757575"/>
<path fill-rule="evenodd" clip-rule="evenodd" d="M119.604 51.86C119.386 51.86 119.277 51.7514 119.289 51.5334V34.1989C119.289 33.9812 119.398 33.8722 119.604 33.8722H121.373C121.592 33.8722 121.701 33.9812 121.689 34.1989V51.5334C121.689 51.7514 121.58 51.86 121.373 51.86H119.604Z" fill="#757575"/>
<path fill-rule="evenodd" clip-rule="evenodd" d="M134.635 48.9691C135.496 48.1707 135.932 47.0821 135.932 45.6907C135.932 44.2876 135.496 43.1265 134.611 42.2068C133.726 41.2998 132.635 40.8398 131.338 40.8398C130.09 40.8398 129.047 41.2755 128.211 42.1343C127.374 43.0053 126.951 44.1303 126.951 45.5213C126.951 46.9126 127.374 48.0256 128.224 48.8844C129.072 49.7432 130.138 50.1789 131.435 50.1789C132.696 50.1789 133.762 49.7797 134.635 48.9691ZM137.896 39.1465C138.114 39.1465 138.223 39.2556 138.211 39.4732V51.5333C138.211 51.7514 138.101 51.86 137.896 51.86H136.501C136.344 51.86 136.235 51.7514 136.175 51.5333L136.004 49.6828C134.732 51.34 133.035 52.1627 130.938 52.1627C129.132 52.1627 127.629 51.5459 126.417 50.3118C125.193 49.0777 124.587 47.4813 124.587 45.5213C124.587 43.5378 125.193 41.9288 126.417 40.6826C127.629 39.4489 129.108 38.832 130.866 38.832C132.95 38.832 134.805 39.7877 136.004 41.3845L136.175 39.4732C136.211 39.2556 136.319 39.1465 136.501 39.1465H137.896Z" fill="#757575"/>
<path fill-rule="evenodd" clip-rule="evenodd" d="M152.031 48.8843C152.88 48.0255 153.304 46.9126 153.304 45.5212C153.304 44.1303 152.88 43.0052 152.043 42.1343C151.195 41.2755 150.153 40.8398 148.904 40.8398C147.607 40.8398 146.528 41.2998 145.643 42.2068C144.759 43.1264 144.311 44.2876 144.311 45.6907C144.311 47.082 144.747 48.1706 145.62 48.969C146.48 49.7796 147.547 50.1784 148.807 50.1784C150.104 50.1784 151.17 49.7431 152.031 48.8843ZM153.837 40.6825C155.049 41.9288 155.655 43.5374 155.655 45.5212C155.655 47.4934 155.049 49.0902 153.837 50.3117C152.613 51.5454 151.11 52.1623 149.304 52.1623C147.122 52.1623 145.402 51.2796 144.141 49.5255L143.947 51.5333C143.898 51.7513 143.789 51.8599 143.619 51.8599H142.226C142.008 51.8599 141.898 51.7513 141.911 51.5333V34.1987C141.911 33.9811 142.019 33.8721 142.226 33.8721H143.995C144.214 33.8721 144.322 33.9811 144.311 34.1987V41.2876C145.62 39.6543 147.304 38.832 149.377 38.832C151.134 38.832 152.613 39.4488 153.837 40.6825Z" fill="#757575"/>
<path fill-rule="evenodd" clip-rule="evenodd" d="M159.767 51.6062C158.883 51.243 158.204 50.7717 157.743 50.1787C157.598 50.0332 157.585 49.8764 157.719 49.707L158.362 48.7392C158.495 48.5332 158.652 48.5215 158.859 48.6909C159.67 49.6827 160.955 50.1787 162.737 50.1787C164.664 50.1787 165.622 49.5132 165.61 48.1949C165.61 47.5294 165.403 47.1302 164.761 46.8278C164.434 46.6827 164.131 46.5741 163.852 46.4894C163.573 46.4164 163.125 46.32 162.507 46.1866C161.791 46.0416 161.222 45.8965 160.774 45.7635C160.325 45.6302 159.865 45.4365 159.367 45.171C158.374 44.6385 157.864 43.7914 157.864 42.5938C157.864 41.4448 158.313 40.5256 159.222 39.8484C160.119 39.1707 161.307 38.8319 162.786 38.8319C164.494 38.8319 166.01 39.364 167.355 40.4409C167.561 40.5495 167.586 40.7072 167.428 40.9127L166.773 41.8323C166.664 42.0134 166.507 42.0495 166.312 41.9287C165.38 41.2028 164.252 40.8397 162.907 40.8397C161.052 40.8397 160.131 41.3966 160.131 42.5212C160.131 42.8965 160.277 43.211 160.567 43.4652C160.846 43.7193 161.161 43.9004 161.501 43.9973C161.84 44.1063 162.313 44.2149 162.907 44.324C163.016 44.3361 163.113 44.36 163.186 44.3843C164.725 44.6988 165.889 45.1224 166.689 45.6545C167.476 46.1988 167.876 47.0337 167.876 48.1705C167.876 49.3803 167.428 50.3482 166.543 51.074C165.647 51.7999 164.398 52.1626 162.786 52.1626C161.658 52.1626 160.652 51.981 159.767 51.6062Z" fill="#757575"/>
</g>
<defs>
<clipPath id="clip0_292:934">
<rect width="100%" height="100%" fill="white"/>
</clipPath>
</defs>
</svg>
